<svg xmlns="http://www.w3.org/2000/svg" xml:space="preserve" viewBox="0 0 139.764 200"><path d="M181.806 24.775q-1.494 1.494-3.585 2.748t-3.047 1.255q-.478 0-.657-.239 2.568-1.255 5.138-3.645t2.569-4.182q0-.298-.089-.538a2.6 2.6 0 0 0-.329-.568 4 4 0 0 1-.299-.448q.358-.358.568-.866.209-.507.388-.747.239-.239.687-.508t.627-.448q.12.12.747.538t.926.896q1.374 0 4.63-1.434t3.316-1.434q4.301 0 4.301 1.195 0 1.554-1.135 1.553-.478 0-1.494-.298-1.016-.299-1.554-.299-.896 0-3.405 1.195-1.913.956-2.211 3.047 1.911-.596 2.331-.956.417-.358.538-1.135 1.194.12 1.553.956.238.179.06.896-.18.716-.18.896 0 .598.239 2.45.835.419 2.868 1.195 2.031.778 2.928 1.374.896.598.896 1.494 0 .598-.388 1.046-.39.448-.926.448-.36 0-2.21-1.165-1.852-1.166-3.585-1.166-.36 0-.777.09t-.538.09q-.418 0-.418-.239 0-.059.06-.358t.06-.717q-1.016.418-2.181.807t-1.763.597q-.597.21-1.165.478t-.807.538a.9.9 0 0 0-.239.627q-.06.12-.418.119-1.017 0-1.613-.657t-.597-1.613q0-.418.298-1.075.299-.656.299-1.076 0-.537-.417-.717m1.613-1.254q-.06.18-.06.538 0 .479.209 1.225.209.748.209.986 0 .06-.03.149-.03.09-.03.149.299.24.657.119.657-.657 1.135-2.808-.06 0-.239.03-.18.03-.299.03-1.253 0-1.552-.418m2.032-4.959q0 .121-.03.986a7.6 7.6 0 0 1-.209 1.583q-.179.717-.538.896.119.538.358.538.537 0 1.255-.418.896-2.15.896-2.569 0-.477-.567-.747a2.7 2.7 0 0 0-1.165-.269m.836 8.125q1.374 0 4.123-1.434-.06-.239-.06-.776 0-.239.03-.687.03-.447.03-.568 0-1.134-.598-1.135-.18.001-.567.239-.39.239-.956.598a7.4 7.4 0 0 1-.986.538q-1.016 1.851-1.016 3.225" style="fill:#870000" transform="translate(-683.63 -33.177)scale(4.03323)"/><path d="M184.555 44.133q-.24 0-.956.299l-.239.478q-.3.478-.538.717-.897-.537-.896-3.465 0-2.27.239-3.286 2.21-.359 4.869-1.076t3.316-.717q1.255 0 1.255.836l-.418 1.553a12.4 12.4 0 0 0-.418 3.227q0 .956.12 2.031 1.135.06 2.449.358 1.314.3 2.719 1.195 1.403.897 1.404 2.091 0 1.017-.777 1.553-.777.537-1.972.538-.3 0-1.344.389-1.047.388-1.583.388-.777 0-2.838-.807t-2.898-1.344q-.3.12-.627.388-.328.27-.508.269-.298 0-1.912-.478 0 .061-.03.358-.03.3-.06.448-.03.15-.06.358a.57.57 0 0 1-.149.329.4.4 0 0 1-.299.12q-.179 0-.388-.239a2 2 0 0 1-.358-.627q-.15-.388-.299-.747a7 7 0 0 1-.269-.777 5 5 0 0 0-.179-.538h-.717q-1.136 0-2.091-.358t-.956-1.016q0-.059.03-.179t.03-.239q.537 0 1.494.12.955.12 1.494.12h.239q-.061-.478-.239-1.344l-.298-1.434q-.12-.567-.12-.866 0-.119.239-.358.717.12 1.045.687t.568 1.583q.238 1.016.597 1.673.835 0 2.271-.478 0-.178.03-.836.027-.658.028-.897m7.467-8.185q-1.792 0-5.317 1.045t-4.66 1.045q-3.585 0-4.66-1.314 1.076-.657 1.613-.657.596 0 1.822.299 1.224.299 2.061.298 1.194 0 1.613-.239.417-.238.418-1.076 0-.179-.328-.269-.33-.09-.448-.269 0-.238.089-.358a4 4 0 0 1 .299-.329q.209-.209.329-.448.12-.18.448-.747.327-.567.538-.777a.7.7 0 0 1 .508-.209q.417 0 .418.597 0 .479-.09.986a8 8 0 0 1-.299 1.135q-.21.627-.269.986.118.3.418.299.358 0 1.045-1.375.688-1.374.688-1.971 0-.359-.389-.687t-.508-.508q.478-1.075 2.091-1.673 1.194.419 1.195 2.21 0 .597-.508 1.434-.508.838-.568 1.554.477-.06 1.315-.239.835-.18 1.672-.269t1.792-.09q1.911 0 2.211.418a2.68 2.68 0 0 1-1.314 1.254q-.775-.055-3.225-.056m-9.559 11.65q.238.597.418.956.837-.18 1.912-.657-.3-.358-.299-.956zm.896-7.887v1.076h.12l.12.06 1.075-.179q0-.477.12-1.195zm1.196 1.972q-.36.062-.777.12-.359 0-.389.06a.6.6 0 0 0-.03.239v.239q0 .12.03.418.03.3.03.418.298 0 1.136-.119zm1.493-2.509q0 .299-.089.658-.09.358-.09.597.597-.12 1.375-.269.776-.149 1.135-.209 0-.299.03-.717t.03-.657q-.538.12-1.255.329a9 9 0 0 1-1.136.268m-.179 2.27v1.314q.837-.06 2.39-.538 0-.896.06-1.375-1.316.421-2.45.599m.119 2.39v1.613a11.6 11.6 0 0 0 2.33-.657q0-1.016-.06-1.553-.3.12-1.046.299t-1.224.298m.06 2.688q0 .957.299.956.239 0 .508-.089.269-.09.717-.269a9 9 0 0 1 .867-.299q-.12-.656-.06-.956-.36.061-2.331.657m5.018-.716q0 .121.09.538.09.42.089.717 0 .3-.179.657-1.136.777-2.21.776-.06-.059-.179-.358a7 7 0 0 0-.179-.418q-.359.12-.807.418-.449.3-.747.418.238.358 1.195.747.956.39 1.494.389.358 0 .687-.149.328-.149.717-.448a4.3 4.3 0 0 1 .627-.418q.298-.12 1.165-.18.866-.059 1.314-.328.448-.27.448-.926 0-.477-1.255-.926t-2.27-.509" style="fill:#870000" transform="translate(-683.63 -33.177)scale(4.03323)"/></svg>