<svg xmlns="http://www.w3.org/2000/svg" xml:space="preserve" viewBox="0 0 139.764 200"><path d="M190.828 172.407q1.673 1.672 1.673 4.003 0 2.33-1.673 4.003t-4.003 1.673-4.003-1.673q-1.674-1.673-1.673-4.003t1.673-4.003q1.673-1.673 4.003-1.673t4.003 1.673m-.628 7.378q1.404-1.403 1.404-3.375t-1.404-3.376q-1.404-1.403-3.375-1.404t-3.376 1.404q-1.404 1.405-1.404 3.376 0 1.972 1.404 3.375 1.405 1.405 3.376 1.404 1.971 0 3.375-1.404" style="fill:#870000" transform="translate(-683.63 -611.503)scale(4.03323)"/><path d="M189.782 173.453q1.225 1.225 1.225 2.958t-1.225 2.957q-1.226 1.225-2.958 1.225-1.734 0-2.958-1.225-1.225-1.224-1.225-2.957t1.225-2.958q1.224-1.225 2.958-1.225 1.732 0 2.958 1.225m-4.75 3.017q0-.358.06-.598a2.3 2.3 0 0 1 .179-.478l.179-.359-.657-.956h-.717a3.56 3.56 0 0 0-.837 2.331v.239l.538.418 1.135-.358zm.956 3.405.538-.358v-1.195l-.179-.18a1.72 1.72 0 0 1-1.016-.717l-.239-.12-1.076.358-.239.658q.718 1.196 2.211 1.554m-.478-6.811-.239.657.657.956h.239q.238-.06.657-.06.418 0 .657.06h.239l.657-.956-.239-.657q-.718-.238-1.314-.239-.597.001-1.314.239m2.151 4.182q.358-.358.358-.836t-.358-.836a1.15 1.15 0 0 0-.836-.358q-.478 0-.836.358a1.15 1.15 0 0 0-.358.836q0 .478.358.836.358.359.836.359.477 0 .836-.359m-.836-1.433q.597 0 .598.598 0 .597-.598.597-.597 0-.597-.597 0-.598.597-.598m1.732 1.493q-.895.777-1.434 1.016v1.195l.538.358q1.493-.358 2.21-1.553l-.239-.658zm.06-.836.12.239 1.135.358.538-.418v-.239q0-1.313-.837-2.331h-.717l-.657.956q.059.121.179.359.12.239.179.478.06.24.06.598m-4.959-17.506q1.673 1.672 1.673 4.003 0 2.33-1.673 4.003t-4.003 1.673q-2.332 0-4.003-1.673-1.674-1.673-1.673-4.003t1.673-4.003 4.003-1.673q2.33.001 4.003 1.673m0 26.886q1.673 1.672 1.673 4.003 0 2.33-1.673 4.003-1.674 1.671-4.003 1.672-2.332 0-4.003-1.672-1.674-1.673-1.673-4.003t1.673-4.003 4.003-1.673 4.003 1.673m-.627-19.507q1.404-1.404 1.404-3.375t-1.404-3.375-3.375-1.404q-1.972 0-3.375 1.404-1.405 1.404-1.404 3.375 0 1.972 1.404 3.375 1.403 1.405 3.375 1.404 1.971 0 3.375-1.404m0 26.885q1.404-1.403 1.404-3.375t-1.404-3.376q-1.404-1.403-3.375-1.404t-3.375 1.404q-1.405 1.405-1.404 3.376 0 1.972 1.404 3.375 1.403 1.405 3.375 1.404 1.971 0 3.375-1.404m-.418-33.218q1.225 1.225 1.225 2.958t-1.225 2.958-2.958 1.225q-1.734 0-2.958-1.225-1.225-1.224-1.225-2.958 0-1.732 1.225-2.958 1.224-1.224 2.958-1.225 1.733 0 2.958 1.225m0 26.885q1.225 1.226 1.225 2.958t-1.225 2.957-2.958 1.225q-1.734 0-2.958-1.225-1.225-1.224-1.225-2.957t1.225-2.958q1.224-1.223 2.958-1.224 1.733 0 2.958 1.224m-4.75-23.868q0-.358.06-.598a2.3 2.3 0 0 1 .179-.478q.12-.238.179-.359l-.657-.956h-.717a3.56 3.56 0 0 0-.836 2.331v.239l.538.418 1.135-.358zm0 26.886q0-.358.06-.598a2.3 2.3 0 0 1 .179-.478q.12-.238.179-.359l-.657-.956h-.717a3.56 3.56 0 0 0-.836 2.331v.239l.538.418 1.135-.358zm.956-23.48.538-.358v-1.195l-.179-.18a1.72 1.72 0 0 1-1.016-.717l-.239-.119-1.076.358-.239.658q.717 1.193 2.211 1.553m0 26.885.538-.358v-1.195l-.179-.179a1.72 1.72 0 0 1-1.016-.717l-.239-.12-1.076.358-.239.657q.717 1.196 2.211 1.554m-.478-33.697-.239.658.657.956h.239q.238-.06.657-.06.418 0 .657.06h.239l.657-.956-.239-.658q-.718-.238-1.314-.239-.597.001-1.314.239m0 26.886-.239.657.657.956h.239q.238-.06.657-.06.418 0 .657.06h.239l.657-.956-.239-.657q-.718-.239-1.314-.239t-1.314.239m2.151-22.703q.358-.358.358-.836t-.358-.836a1.15 1.15 0 0 0-.836-.358q-.479 0-.836.358a1.15 1.15 0 0 0-.358.836q0 .478.358.836t.836.358q.477 0 .836-.358m0 26.885q.358-.358.358-.836t-.358-.836a1.15 1.15 0 0 0-.836-.358q-.479 0-.836.358a1.15 1.15 0 0 0-.358.836q0 .478.358.836.358.359.836.359.477 0 .836-.359m-.837-28.319q.597 0 .597.598 0 .597-.597.597-.598 0-.598-.597.001-.598.598-.598m0 26.885q.597 0 .597.598 0 .597-.597.597-.598 0-.598-.597t.598-.598m1.733-25.391q-.895.776-1.434 1.016v1.195l.538.358q1.493-.358 2.21-1.553l-.239-.658zm0 26.885q-.895.777-1.434 1.016v1.195l.538.358q1.493-.358 2.21-1.553l-.239-.657zm.06-27.722.119.239 1.135.358.538-.418v-.239q0-1.312-.836-2.331h-.717l-.657.956.179.359q.12.239.179.478.06.24.06.598m0 26.886.119.239 1.135.358.538-.418v-.239a3.57 3.57 0 0 0-.836-2.331h-.717l-.657.956.179.359q.12.239.179.478.06.239.06.598m16.549-30.949q1.673 1.672 1.673 4.003 0 2.33-1.673 4.003-1.672 1.674-4.003 1.673-2.33 0-4.003-1.673t-1.673-4.003 1.673-4.003 4.003-1.673q2.33.001 4.003 1.673m0 26.886q1.673 1.672 1.673 4.003 0 2.33-1.673 4.003-1.672 1.672-4.003 1.672-2.33 0-4.003-1.672-1.674-1.673-1.673-4.003t1.673-4.003q1.673-1.673 4.003-1.673t4.003 1.673m-.627-19.507q1.404-1.404 1.404-3.375t-1.404-3.375-3.375-1.404q-1.972 0-3.375 1.404-1.405 1.404-1.404 3.375 0 1.972 1.404 3.375 1.404 1.405 3.375 1.404 1.971 0 3.375-1.404m0 26.885q1.404-1.403 1.404-3.375t-1.404-3.376q-1.404-1.403-3.375-1.404t-3.375 1.404q-1.405 1.404-1.404 3.376 0 1.972 1.404 3.375 1.404 1.405 3.375 1.404 1.971 0 3.375-1.404m-.418-33.218q1.225 1.225 1.225 2.958t-1.225 2.958q-1.226 1.224-2.958 1.225-1.734 0-2.958-1.225-1.225-1.224-1.225-2.958 0-1.732 1.225-2.958 1.224-1.225 2.958-1.225 1.732 0 2.958 1.225m0 26.885q1.225 1.226 1.225 2.958t-1.225 2.957q-1.226 1.225-2.958 1.225-1.734 0-2.958-1.225-1.225-1.224-1.225-2.957t1.225-2.958q1.224-1.223 2.958-1.224 1.732 0 2.958 1.224m-4.75-23.868q0-.358.06-.598.06-.238.18-.478l.179-.359-.657-.956h-.717a3.56 3.56 0 0 0-.836 2.331v.239l.538.418 1.135-.358zm0 26.886q0-.358.06-.598.06-.237.18-.478l.179-.359-.657-.956h-.717a3.56 3.56 0 0 0-.836 2.331v.239l.538.418 1.135-.358zm.956-23.48.538-.358v-1.195l-.179-.18a1.72 1.72 0 0 1-1.016-.717l-.239-.119-1.075.358-.239.658q.716 1.194 2.21 1.553m0 26.885.538-.358v-1.195l-.179-.179a1.72 1.72 0 0 1-1.016-.717l-.239-.12-1.075.358-.239.657q.716 1.196 2.21 1.554m-.478-33.697-.239.658.657.956h.239q.238-.06.657-.06.418 0 .657.06h.239l.657-.956-.239-.658q-.718-.238-1.314-.239-.597.001-1.314.239m0 26.886-.239.657.657.956h.239q.238-.06.657-.06.418 0 .657.06h.239l.657-.956-.239-.657q-.718-.239-1.314-.239t-1.314.239m2.151-22.703q.358-.358.358-.836t-.358-.836a1.15 1.15 0 0 0-.836-.358q-.478 0-.836.358a1.15 1.15 0 0 0-.358.836q0 .478.358.836t.836.358q.477 0 .836-.358m0 26.885q.358-.358.358-.836t-.358-.836a1.15 1.15 0 0 0-.836-.358q-.478 0-.836.358a1.15 1.15 0 0 0-.358.836q0 .478.358.836.358.359.836.359.477 0 .836-.359m-.837-28.319q.597 0 .598.598 0 .597-.598.597-.597 0-.597-.597 0-.598.597-.598m0 26.885q.597 0 .598.598 0 .597-.598.597-.597 0-.597-.597t.597-.598m1.733-25.391q-.896.776-1.434 1.016v1.195l.538.358q1.493-.358 2.211-1.553l-.239-.658zm0 26.885q-.896.777-1.434 1.016v1.195l.538.358q1.493-.358 2.211-1.553l-.239-.657zm.06-27.722.119.239 1.136.358.538-.418v-.239q0-1.312-.836-2.331h-.717l-.657.956.18.359q.119.239.179.478.057.24.058.598m0 26.886.119.239 1.136.358.538-.418v-.239a3.57 3.57 0 0 0-.836-2.331h-.717l-.657.956.18.359q.119.239.179.478.057.239.058.598" style="fill:#870000" transform="translate(-683.63 -611.503)scale(4.03323)"/></svg>