<svg xmlns="http://www.w3.org/2000/svg" xml:space="preserve" viewBox="0 0 139.764 200"><path d="M42.171 64.338c-9.482 0-14.217-1.206-14.217-3.614q-.002-2.168 3.856-2.17.963 0 3.372.121c1.601.085 2.892.121 3.856.121q13.012-.002 29.999-7.227t20.36-7.228q3.855.001 7.832 1.085 3.975 1.084 5.905 1.085c3.529 0 5.864.48 6.985 1.444q1.685 1.446 1.686 5.058c0 1.605-.443 3.134-1.327 4.578-.883 1.443-2.049 2.17-3.492 2.17-.162 0-2.255-.803-6.264-2.408-4.021-1.606-8.837-2.412-14.46-2.412-7.553 0-15.463 1.569-23.735 4.698q-12.407 4.7-20.356 4.7"/><path d="M31.605 44.133q-.24 0-.956.299l-.239.478a4 4 0 0 1-.538.717q-.896-.537-.896-3.465 0-2.27.239-3.286 2.21-.359 4.87-1.076 2.657-.717 3.316-.717 1.254 0 1.254.836l-.418 1.553a12.4 12.4 0 0 0-.418 3.227q0 .956.12 2.031 1.134.06 2.45.358 1.313.3 2.718 1.195 1.403.897 1.404 2.091 0 1.017-.776 1.553-.777.537-1.972.538-.3 0-1.344.389-1.046.388-1.583.388-.776 0-2.838-.807-2.061-.807-2.897-1.344-.3.12-.627.388-.329.27-.508.269-.299 0-1.912-.478 0 .061-.03.358-.03.3-.06.448-.03.15-.06.358a.57.57 0 0 1-.149.329.4.4 0 0 1-.299.12q-.18 0-.388-.239a2 2 0 0 1-.359-.627q-.15-.388-.299-.747a7 7 0 0 1-.269-.777 5 5 0 0 0-.179-.538h-.717a5.9 5.9 0 0 1-2.091-.358q-.957-.358-.956-1.016 0-.059.03-.179t.03-.239q.538 0 1.494.12t1.494.12h.239a19 19 0 0 0-.239-1.344l-.298-1.434q-.12-.567-.12-.866 0-.119.239-.358.717.12 1.045.687t.567 1.583q.239 1.017.598 1.673.836 0 2.27-.478 0-.178.03-.836.027-.658.028-.897m7.469-8.185q-1.793 0-5.317 1.045-3.526 1.045-4.66 1.045-3.585 0-4.66-1.314 1.075-.657 1.613-.657.597 0 1.822.299 1.224.299 2.062.298 1.194 0 1.613-.239.417-.238.418-1.076 0-.179-.329-.269t-.448-.269q0-.238.09-.358.09-.118.298-.329.209-.209.329-.448.119-.18.448-.747.328-.567.538-.777a.7.7 0 0 1 .508-.209q.417 0 .418.597 0 .479-.089.986a8 8 0 0 1-.299 1.135 7 7 0 0 0-.269.986q.12.3.418.299.358 0 1.046-1.375.685-1.37.686-1.969 0-.358-.388-.687-.39-.329-.508-.508.478-1.075 2.091-1.673 1.195.419 1.195 2.21 0 .597-.508 1.434-.508.838-.567 1.554.477-.06 1.314-.239.836-.18 1.673-.269.836-.09 1.792-.09 1.911 0 2.211.418a2.68 2.68 0 0 1-1.314 1.254q-.779-.058-3.227-.058m-9.56 11.65q.239.597.418.956.836-.18 1.912-.657-.3-.358-.299-.956zm.896-7.887v1.076h.12l.12.06 1.076-.179q0-.477.119-1.195zm1.195 1.972q-.36.062-.777.12-.359 0-.388.06a.6.6 0 0 0-.03.239v.239q0 .12.03.418.03.3.03.418.298 0 1.135-.119zm1.494-2.509q0 .299-.09.658-.09.358-.089.597.596-.12 1.374-.269.776-.149 1.135-.209 0-.299.03-.717t.03-.657a20 20 0 0 0-1.254.329 9 9 0 0 1-1.136.268m-.179 2.27v1.314q.836-.06 2.39-.538 0-.896.06-1.375-1.316.421-2.45.599m.119 2.39v1.613a11.6 11.6 0 0 0 2.33-.657q0-1.016-.06-1.553-.3.12-1.045.299-.747.179-1.225.298m.06 2.688q0 .957.299.956.239 0 .508-.089.268-.09.717-.269t.866-.299q-.12-.656-.06-.956-.358.061-2.33.657m5.019-.716q0 .121.089.538.09.42.09.717 0 .3-.179.657-1.136.777-2.21.776-.061-.059-.179-.358a7 7 0 0 0-.18-.418q-.359.12-.806.418-.448.3-.747.418.239.358 1.195.747.955.39 1.494.389.358 0 .688-.149.327-.149.717-.448.387-.298.627-.418.298-.12 1.166-.18.865-.059 1.314-.328.448-.27.448-.926 0-.477-1.254-.926c-.836-.299-1.597-.469-2.273-.509" style="fill:#870000" transform="translate(-66.746 -33.177)scale(4.03323)"/></svg>