<svg xmlns="http://www.w3.org/2000/svg" xml:space="preserve" viewBox="0 0 139.764 200"><path d="M27.871 182.415q-2.48-2.478-2.479-6.004t2.479-6.005q2.479-2.478 6.004-2.479t6.005 2.479q2.478 2.48 2.479 6.005t-2.479 6.004q-2.48 2.48-6.005 2.479t-6.004-2.479m-1.284-6.124h3.584q0-.358.06-.478l-2.211-.418.06-.299 2.21.479q0-.12.119-.479l-3.345-1.374-1.494 1.016zm.478 2.808 3.345-1.374q-.12-.358-.119-.479l-2.21.479-.06-.299 2.211-.418q-.06-.119-.06-.478h-3.584l-1.016 1.553zm.119-5.557 3.346 1.314q.12-.237.239-.358l-1.972-1.254.179-.239 1.912 1.255q.12-.12.239-.359l-2.509-2.569-1.792.358zm1.434 7.947 2.509-2.569a1.5 1.5 0 0 0-.239-.358l-1.912 1.254-.179-.239 1.972-1.254a1.3 1.3 0 0 1-.239-.359l-3.346 1.314-.358 1.853zm.179-10.337 2.569 2.509q.238-.119.359-.239l-1.255-1.912.239-.179 1.255 1.972q.12-.12.358-.239l-1.314-3.346-1.852-.358zm2.211 11.95 1.314-3.346a1.4 1.4 0 0 1-.358-.239l-1.255 1.972-.239-.18 1.255-1.912q-.121-.12-.359-.239l-2.569 2.509.358 1.792zm.478-9.082q-1.017 1.017-1.016 2.39 0 1.375 1.016 2.39 1.015 1.016 2.39 1.016 1.374 0 2.39-1.016 1.016-1.015 1.016-2.39 0-1.373-1.016-2.39-1.016-1.016-2.39-1.016t-2.39 1.016m0 2.928-.478-.239v-.298q0-1.075.777-1.852l.418.06 1.016 1.254q-.18.3-.18.538zm-.299-7.349 1.374 3.345q.358-.119.478-.119l-.478-2.21.299-.06.418 2.211q.119-.06.478-.06v-3.584l-1.553-1.016zm2.569 14.1v-3.585q-.359 0-.478-.06l-.418 2.211-.299-.06.478-2.21q-.12 0-.478-.12l-1.374 3.346 1.016 1.494zm-.179-4.84-.298.358q-1.135-.238-1.852-1.374l.239-.418 1.554-.478q.179.18.358.239zm-.836-5.078q.477-.239 1.135-.239.657.001 1.135.239l.06.478-.956 1.374q-.06-.06-.239-.06-.18 0-.239.06l-.956-1.374zm1.134 2.927q-.3 0-.299-.298 0-.299.299-.299.299.001.299.299 0 .299-.299.298m.12-7.587v3.584q.358 0 .478.06l.418-2.211.298.06-.478 2.21q.119.001.478.119l1.375-3.345-1.016-1.494zm2.569 14.1-1.375-3.346q-.358.12-.478.12l.478 2.21-.298.06-.418-2.211q-.12.06-.478.06v3.585l1.553 1.016zm-2.39-4.362v-1.673a.9.9 0 0 0 .358-.239l1.554.478.239.418q-.718 1.136-1.852 1.374zm2.569-2.151-.478.239-1.553-.538q0-.238-.18-.538l1.016-1.254.418-.06q.776.777.776 1.852zm0-6.99-1.314 3.346q.238.121.358.239l1.254-1.972.239.179-1.255 1.912q.12.12.359.239l2.569-2.509-.358-1.792zm2.211 11.949-2.569-2.509q-.24.12-.359.239l1.255 1.912-.239.18-1.254-1.972q-.121.12-.358.239l1.314 3.346 1.853.358zm.179-10.335-2.509 2.569q.12.24.239.359l1.912-1.255.179.239-1.972 1.254q.119.121.239.358l3.346-1.314.358-1.852zm1.434 7.945-3.346-1.314q-.12.24-.239.359l1.972 1.254-.179.239-1.912-1.254q-.121.12-.239.358l2.509 2.569 1.792-.359zm.12-5.556-3.346 1.374q.12.36.12.479l2.21-.479.06.299-2.211.418q.06.12.06.478h3.584l1.016-1.553zm.478 2.809H37.58q0 .358-.06.478l2.211.418-.06.299-2.21-.479q0 .12-.12.479l3.346 1.374 1.494-1.016z" style="fill:#870000" transform="translate(-66.746 -611.503)scale(4.03323)"/><path d="M24.227 186.059q-4.033-4.032-4.033-9.649t4.033-9.649 9.649-4.033 9.649 4.033 4.033 9.649-4.033 9.649q-4.034 4.032-9.649 4.033-5.617 0-9.649-4.033m.627-18.671q-3.764 3.765-3.764 9.022 0 5.258 3.764 9.021t9.021 3.764q5.257 0 9.022-3.764 3.764-3.765 3.764-9.021t-3.764-9.022q-3.765-3.764-9.022-3.764t-9.021 3.764m.388 17.655q-3.555-3.555-3.555-8.633t3.555-8.633 8.633-3.555 8.634 3.555q3.554 3.555 3.554 8.633 0 5.08-3.554 8.633-3.556 3.555-8.634 3.554-5.078.002-8.633-3.554m-2.837-11.859-.359 1.613 1.613-.538-.896 1.852h1.375l.418-.418q.119-1.434.598-2.629l-1.195-.478zm1.553 7.049 1.195-.478a9 9 0 0 1-.598-2.629l-.418-.418h-1.375l.896 1.853-1.613-.538.359 1.613zm2.569-10.813-1.016-1.016-.657.179a19 19 0 0 0-1.434 2.091l.478 1.254 1.254.538.299-.179q.298-.657.776-1.375l-1.494-.418zm-.299 12.487q-.239-.358-.418-.658a3 3 0 0 1-.209-.388 2 2 0 0 0-.09-.209q-.06-.118-.119-.149a3 3 0 0 1-.239-.149l-1.254.538-.478 1.254q.596 1.075 1.553 2.151l.538.119 1.016-1.016-1.792-1.075zm1.225-11.92q-2.66 2.659-2.659 6.423 0 3.764 2.659 6.422t6.422 2.659q3.764 0 6.423-2.659t2.659-6.422q0-3.764-2.659-6.423t-6.423-2.659q-3.764.001-6.422 2.659m.926-1.225a18 18 0 0 1 .658-.418q.297-.178.388-.209.09-.03.209-.089.119-.06.149-.12.03-.059.149-.239l-.538-1.254-1.254-.478q-1.075.598-2.151 1.553l-.12.538 1.016 1.016 1.076-1.792zm-1.494 14.997-1.016 1.016.179.657q.896.717 2.091 1.434l1.254-.479.538-1.254-.179-.299a10 10 0 0 1-1.375-.776l-.418 1.494zm6.274-16.669.418-.418v-1.374l-1.852.896.538-1.613-1.613.359-.597 1.553.478 1.195a9 9 0 0 1 2.628-.598m-2.51 20.791 1.613.358-.538-1.613 1.852.896v-1.374l-.418-.418a9 9 0 0 1-2.629-.598l-.478 1.195zm3.525-21.21.418.418q1.434.12 2.628.597l.478-1.195-.597-1.553-1.613-.359.538 1.613-1.852-.896zm3.525 19.657-.478-1.195a9 9 0 0 1-2.628.598l-.418.418v1.374l1.852-.896-.538 1.613 1.613-.358zm1.674-17.566.418-1.493 1.075 1.792 1.016-1.016-.179-.658a19 19 0 0 0-2.091-1.434l-1.254.478-.538 1.254.179.299q.656.302 1.374.778m0 15.296q-.358.239-.658.418-.299.18-.388.209-.09.03-.209.09-.12.06-.149.12-.031.06-.149.239l.538 1.254 1.254.479a12 12 0 0 0 2.151-1.554l.119-.538-1.016-1.016-1.075 1.792zm2.15-13.145q.238.358.418.658.179.3.209.388.03.09.09.209.059.12.119.149.06.031.239.149l1.254-.538.478-1.254a12.2 12.2 0 0 0-1.553-2.151l-.538-.119-1.016 1.016 1.792 1.075zm-.298 12.487 1.016 1.016.657-.179q.717-.895 1.434-2.091l-.478-1.254-1.254-.538-.299.18q-.3.657-.776 1.374l1.494.418zm2.568-10.814-1.195.478a9.1 9.1 0 0 1 .598 2.629l.418.418h1.374l-.896-1.852 1.613.538-.359-1.613zm1.554 7.05.359-1.613-1.613.538.896-1.853h-1.374l-.418.418a9.1 9.1 0 0 1-.598 2.629l1.195.478z" style="fill:#00082d" transform="translate(-66.746 -611.503)scale(4.03323)"/></svg>