<svg xmlns="http://www.w3.org/2000/svg" xml:space="preserve" viewBox="0 0 139.764 200"><path d="M26.408 107.941q0 .12-.12.12-.24 0-1.673-1.195a7 7 0 0 0-1.165-.688 35 35 0 0 0-1.105-.508q-.418-.179-.418-.239 0-.12.478-.119.955.06 1.941.657.986.598 1.523 1.165.539.57.539.807m-3.645-5.078q.358 0 1.195.298.835.3 2.121 1.255a7.25 7.25 0 0 1 2.061 2.39q.239.599.239.657 0 .18-.119.179l-.657-.657q-3.347-3.285-4.899-3.883-.18-.06-.179-.179-.002-.06.238-.06m2.629 6.034q-.479 0-1.644-.269-1.164-.269-1.165-.567 0-.12.657-.12.298 0 .867.209.567.21.986.418.417.21.418.269 0 .06-.119.06m1.553-1.493q0-.06.12-.06.179 0 .956.777.776.778.777 1.195 0 .418-.358.418-.478 0-1.195-.299-.717-.298-.717-.478 0-.06.179-.06.18 0 .627.12.448.12.508.119.12 0 .12-.119 0-.239-.508-.867-.51-.626-.509-.746m5.497 14.279q0 .179-.239.179-.121 0-.329-.149-.21-.149-.329-.09-.06 0-1.075.687-1.017.688-1.314.688-.179 0-.179-.18-.001-.06.568-.597.567-.537.567-.598t-.12-.06q-.359 0-.866.09-.508.09-.567.089-.18 0-.18-.12 0-.417 2.211-.657.417-.06.538-.299.12-.238.12-1.255 0-.417-.09-.866a5 5 0 0 1-.089-.508q0-.12.179-.12.656 0 .956.478.06.12.06.478 0 1.254-.299 2.151.476.361.477.659m3.047-1.494q0 .837.149 1.105.148.27.717.359.567.09.986.329 0 .06.09.119.09.061.089.12 0 .12-.299.12-.12 0-.866-.12-.748-.12-.986-.12-.06 0-.627.448-.568.448-.867.448-.12 0-.119-.18 0-.06.239-.298.477-.597.299-.598-.06 0-.747.299-.687.3-.926.299-.18 0-.179-.12 0-.18 1.075-.866 1.076-.687 1.076-1.583 0-.239-.03-.567t-.089-.717a4 4 0 0 1-.06-.627q-.06-.18.119-.179h.06q1.016 0 1.016.597 0 .24-.06.867t-.06.865" style="fill:#870000" transform="translate(-66.745 -322.33)scale(4.03315)"/><path d="M44.336 67.955q.002-.478-1.084-1.686a147 147 0 0 1-2.53-2.892c-.963-1.121-1.685-1.928-2.17-2.408-6.59-8.994-9.88-14.616-9.88-16.866q.001-.726.722-.726.482 0 1.206.726 13.972 20.963 15.422 20.964c.319 0 .484-.161.484-.484 0-.484-2.133-3.53-6.384-9.16-4.26-5.622-6.385-9.316-6.385-11.083q.001-.725.722-.725.48 0 6.748 9.159c4.174 6.106 6.586 9.16 7.227 9.16q.48 0 .48-.243 0-.962-5.662-9.038c-3.78-5.38-5.663-8.474-5.663-9.276q.001-.721.722-.722.961.002 5.541 7.711 4.576 7.712 5.304 7.711c.319 0 .48-.157.48-.484q0-.477-2.65-5.3-2.65-4.815-2.65-6.267c0-.64.158-.964.484-.964.484 0 1.848 2.372 4.098 7.107q3.37 7.11 3.614 7.11.478 0 .48-.964 0-.96-2.892-7.469c-1.928-4.34-2.892-6.828-2.892-7.473q.001-.721.722-.722.48 0 3.614 6.989l3.372 6.985c.963 1.287 1.6 1.686 1.927 1.206q0-.24-3.012-10.482-3.013-10.236-3.013-13.612.001-1.445.722-1.444.962 0 3.735 11.205c1.847 7.473 3.012 11.204 3.492 11.204q.964.002.964-1.206.001-.962-2.17-8.313c-1.444-4.9-2.17-8.953-2.17-12.168q-.001-2.41.48-2.411 1.684.001 3.614 10.244 1.923 10.241 2.412 10.24.721 0 .722-2.412 0-.96-.843-7.227c-.565-4.175-.843-6.986-.843-8.434q.001-3.854.722-3.855.961 0 1.928 5.904.963 5.905.964 11.446c0 2.412.399 3.614 1.206 3.614q.724.002.722-3.856c0-1.448-.121-3.775-.36-6.99q-.362-4.816-.362-6.505.001-2.89.722-2.891 1.202 0 1.806 9.639.6 9.642 1.327 9.64c.803 0 1.206-2.413 1.206-7.228 0-4.977.158-7.47.484-7.47 1.121 0 1.686 2.573 1.686 7.712q0 .966-.12 3.13c-.086 1.443-.122 2.492-.122 3.133q-.001 2.167 1.206 1.206.48-.24.48-.722c.161-.323.484-1.605.964-3.856q.719-3.37 1.565-5.783c.56-1.601 1.165-2.408 1.807-2.408.48 0 .722.565.722 1.686 0 .807-.404 2.529-1.206 5.183-.807 2.65-1.206 4.456-1.206 5.42q.001.484.722.484.724.002 4.097-10.123 3.373-10.121 4.336-10.12c.484 0 .722 1.203.722 3.614q-.243 1.93-1.569 5.784a490 490 0 0 1-2.408 6.868c-.722 2.013-1.085 3.094-1.085 3.255q.001.721.722.722.726-.001 4.699-9.76c2.654-6.506 4.376-9.756 5.182-9.756q.484 0 .484.964 0 2.653-3.254 9.88c-2.17 4.82-3.255 7.555-3.255 8.192q.242.242.484.242.719 0 5.183-8.07 4.454-8.07 4.94-8.07c.484 0 .722.326.722.963 0 .807-.722 2.73-2.17 5.784a109 109 0 0 1-3.013 5.183 305 305 0 0 0-2.286 3.734q-.724 1.21-.722 1.444.001.484.722.484c.64 0 2.17-2.049 4.577-6.146 2.408-4.098 3.771-6.143 4.098-6.143q.724.001.722.964c0 1.287-1.125 3.614-3.372 6.99l-3.614 5.057q-.002.726.48.726.483.001 3.977-4.82c2.327-3.21 3.815-4.82 4.457-4.82q.482.001.48.965c0 .964-1.489 3.097-4.457 6.384q-4.457 4.943-4.457 5.42l.484.485q1.683.001 9.64-7.954 7.231-7.951 7.953-7.953c.323 0 .484.327.484.964q-.002 2.65-7.832 9.64c-5.223 4.661-7.829 7.07-7.829 7.227q-.001.481.48.48c1.283 0 4.78-2.57 10.482-7.712q8.55-7.709 9.519-7.711.484.001.484.722c0 1.129-3.054 4.218-9.16 9.28-6.106 5.057-9.155 7.752-9.155 8.07 0 .48.036.722.121.722h.601c.48 0 3.287-1.887 8.433-5.662 5.139-3.771 8.111-5.663 8.914-5.663q.483 0 .484.484-.002.96-1.444 2.17-7.23 5.3-13.011 8.913-2.171 1.445-2.17 2.17c0 .484.157.722.48.722q.242.002 6.384-3.856c4.098-2.569 6.784-3.855 8.07-3.855q1.206.002.48 1.201-.238.728-3.13 2.291-2.892 1.568-6.263 3.372c-2.254 1.206-3.698 2.049-4.34 2.529q-1.208 1.207.723 1.206.477 0 5.3-2.65 4.816-2.652 6.505-2.654c.802 0 1.202.327 1.202.964q0 .484-5.905 3.134-5.902 2.65-5.9 3.613c0 .484.318.722.963.722.162 0 1.965-.44 5.425-1.327 3.448-.879 5.42-1.326 5.9-1.326 1.283 0 1.928.326 1.928.963q-.002.97-7.469 2.65-7.47 1.689-7.47 2.408.001.966.723.964 1.201 0 6.505-1.323 5.295-1.326 6.505-1.327 1.205.001 1.206.722-.001.721-1.085 1.085-1.088.364-4.456.964c-2.255.403-4.42.924-6.506 1.565q-.724.242-1.085.722c-.242.326-.242.6 0 .843.242.242.601.359 1.085.359q1.205.002 5.3-.964 4.094-.963 4.82-.964 1.204.001 1.205.722c0 .964-3.613 2.012-10.84 3.134-.327 0-.602.16-.844.483q-.363.483 0 .964.361.484 1.327.484c.48 0 1.807-.242 3.973-.722 2.17-.484 3.654-.721 4.457-.721.484 0 .722.084.722.242 0 .806-1.771 1.564-5.3 2.29q-5.3 1.082-5.3 1.807t1.686.722c.803 0 2.085-.242 3.856-.722l2.65-.484q1.204 0 1.206.726c0 .807-2.287 1.529-6.869 2.17q-6.867.968-6.868 2.65.237.242.722.242c.318 0 1.161-.158 2.528-.484q2.046-.48 3.013-.48 1.445.001 1.444.964c0 .484-1.125.883-3.372 1.206-2.25.322-3.698.484-4.335.484-.807 0-1.206.242-1.206.722q.001.482.722.48.961 0 2.65-.242c1.12-.162 1.766-.242 1.927-.242q.963.001.964.722c0 1.125-2.254 1.685-6.747 1.685q-.721.245-.722 1.686.483 0 1.686-.12 1.202-.122 1.807-.243c.399-.08.677-.036.843.121q-.001.724-1.085 1.085-1.083.364-2.892.843-1.809.488-3.013 1.448-2.41 2.166-5.182 2.529-2.773.364-3.735.6c-.162 0-1.565 1.17-4.219 3.493-2.65 2.332-5.263 3.493-7.828 3.493-.646 0-1.767-.278-3.372-.843q-2.409-.842-3.614-.843-.72.001-2.891.722-2.167.724-3.614.722c-1.77 0-3.372-.681-4.82-2.049a237 237 0 0 1-2.412-2.286q-.24-.001-2.286-.601-2.053-.6-3.372-1.206-1.329-.6-1.327-1.327c0-.323.157-.48.484-.48q.719 0 2.17.6c.964.404 1.601.602 1.928.602.318 0 .48-.158.48-.484q-.002-.719-4.098-1.686c-2.735-.641-4.098-1.283-4.098-1.928 0-.319.242-.484.722-.484.641 0 1.686.165 3.134.484l2.17.722q1.204 0 1.206-.242c0-.964-.565-1.444-1.686-1.444q-9.883-1.683-9.881-3.614.001-.721.722-.722.719.002 4.456 1.444 3.734 1.445 4.703 1.444c.48 0 .722-.157.722-.48q.001-.725-1.807-1.444a108 108 0 0 0-4.578-1.685q-2.772-.962-4.456-1.928-4.58-2.891-9.16-7.47-4.578-4.574-4.577-5.783.001-.963.722-.964c.318 0 2.008 1.407 5.057 4.214 3.05 2.816 5.062 4.22 6.026 4.22q.484 0 .484-.727c0-.318-.525-.88-1.565-1.686q-1.572-1.205-3.977-3.371c-1.609-1.444-2.972-2.973-4.097-4.578-.48-.641-.763-1.206-.843-1.686-.081-.484-.081-.883 0-1.206q.12-.484.363-.484c.322 0 1.964 1.65 4.94 4.94 2.969 3.296 4.94 4.941 5.9 4.941.323 0 .485-.157.485-.484 0-.318-1.77-2.488-5.3-6.505q-5.3-6.018-5.3-7.711c0-.484.158-.722.485-.722.318 0 2.125 1.891 5.42 5.662 3.291 3.78 5.501 5.663 6.627 5.663l.242-.484c0-.158-1.928-2.412-5.784-6.748-3.856-4.34-5.784-7.388-5.784-9.159q0-.48.242-.48c.484 0 2.489 2.287 6.026 6.869q5.3 6.867 6.505 6.868.721 0 .722-.484 0-.719-2.77-4.215a632 632 0 0 0-6.026-7.469q-3.255-3.975-4.219-5.42-1.446-2.41.242-2.412.478 0 5.784 6.747 5.3 6.75 6.747 6.748c.331.008.492-.073.492-.234m5.304 12.53c-1.287 0-2.65.52-4.098 1.565q-2.168 1.574-2.17 5.421.001.967.36 1.928.361.967 1.927 2.049 1.566 1.084 3.977 1.085 6.746 0 6.747-5.546-.002-2.648-2.048-4.578c-1.364-1.278-2.928-1.923-4.695-1.923m.242 3.614c1.605 0 2.412.964 2.412 2.892q0 1.93-2.65 1.928-2.408.001-2.408-1.928c-.004-1.928.875-2.892 2.646-2.892m11.805-12.773q-.002-2.648-1.928-4.698c-1.286-1.364-2.734-2.05-4.335-2.05q-3.135 0-5.3 1.808-2.168 1.81-2.17 4.94c0 4.179 2.327 6.264 6.986 6.264q2.648.001 4.698-1.928c1.363-1.279 2.05-2.726 2.05-4.336m-9.397 0q0-.96.964-1.928.96-.962 1.928-.963.96 0 1.806.963.842.968.843 1.928 0 2.168-2.891 2.17-2.65.001-2.65-2.17m15.423 29.882c0-4.178-2.013-6.268-6.026-6.268q-5.784-.001-5.783 5.062.002 2.41 1.806 4.336 1.808 1.928 4.941 1.927 5.063.007 5.062-5.057m-2.65-21.686q-2.655.001-4.336 2.049c-1.125 1.367-1.686 2.936-1.686 4.698q0 6.026 7.712 6.026 2.891.001 4.456-2.17c1.04-1.444 1.565-2.807 1.565-4.098q-.002-6.504-7.711-6.505m-5.542 21.206c0-1.605.803-2.412 2.412-2.412 1.601 0 2.408.887 2.408 2.65q.001 1.93-2.17 1.928c-1.77 0-2.65-.722-2.65-2.166m13.975-42.655q-.002-1.682-1.565-3.371-1.57-1.684-3.976-1.686c-4.663 0-6.99 2.25-6.99 6.747 0 1.287.601 2.287 1.807 3.013s2.367 1.085 3.493 1.085q2.649.001 4.94-1.928c1.529-1.286 2.291-2.569 2.291-3.86m-5.3 28.196q.002 1.93-2.17 1.928c-1.77 0-2.649-.641-2.649-1.928q0-2.65 2.408-2.65c1.605 0 2.412.884 2.412 2.65m-.963-25.542q-2.654.002-2.654-2.412c0-1.6 1.044-2.407 3.134-2.407q2.17-.002 2.17 2.17-.007 2.65-2.65 2.65m5.78 17.589q.724 0 2.048-.36t3.013-2.169c1.121-1.206 1.686-2.775 1.686-4.699 0-2.085-.601-3.573-1.807-4.456q-1.81-1.327-3.497-1.327-2.166.002-5.058 1.444-2.89 1.448-2.891 4.82-.001 2.654 1.928 4.698 1.922 2.05 4.577 2.049m.483-8.672c1.767 0 2.65.807 2.65 2.408 0 1.605-.883 2.412-2.65 2.412-1.77 0-2.65-.803-2.65-2.412 0-1.605.88-2.408 2.65-2.408m9.64 30.842q0-2.649-2.287-3.856-2.292-1.205-4.457-1.206-5.3 0-5.3 6.748 0 5.3 5.3 5.3a8.4 8.4 0 0 0 2.412-.364c.802-.242 1.722-.923 2.77-2.048 1.037-1.118 1.561-2.646 1.561-4.574m-5.784-.964q2.168.002 2.17 1.928c0 1.928-.807 2.892-2.412 2.892-1.444 0-2.17-.88-2.17-2.65q0-2.171 2.412-2.17m-2.17-15.18q-.001 2.653 1.928 4.097a7.04 7.04 0 0 0 4.335 1.444q6.026.001 6.026-5.546.001-2.166-1.565-3.976-1.568-1.808-3.973-1.807c-2.093 0-3.734.564-4.94 1.686q-1.813 1.694-1.811 4.101m7.953-20.485q1.683-.001 3.977-1.448 2.287-1.445 2.287-4.578c0-3.371-1.767-5.061-5.3-5.061-4.34 0-6.505 1.847-6.505 5.541q-.001 2.654 1.565 4.098 1.564 1.45 3.976 1.448M81.687 81.93c1.602 0 2.412.964 2.412 2.892q-.002 2.168-2.654 2.17c-1.443 0-2.17-.803-2.17-2.408.005-1.766.807-2.654 2.412-2.654m1.686-21.202q-2.168.001-2.17-2.17 0-2.65 2.412-2.65c1.601 0 2.412.722 2.412 2.17q-.002 2.65-2.654 2.65m1.69 34.697q-.001 1.688 2.17 3.134 2.167 1.445 3.614 1.444 2.167.001 3.976-1.565 1.805-1.567 1.807-3.255c0-1.448-.6-2.77-1.807-3.976q-1.809-1.808-4.218-1.807c-1.444 0-2.735.645-3.856 1.928q-1.687 1.934-1.686 4.097m1.202-26.505q0 5.546 5.784 5.545c1.6 0 3.089-.52 4.456-1.569 1.363-1.04 2.05-2.367 2.05-3.976q0-5.784-5.542-5.784-2.89-.002-4.82 1.807c-1.287 1.206-1.928 2.529-1.928 3.977m6.748 25.783q-.001.725-.722 1.444-.721.721-1.206.722c-1.605 0-2.412-.56-2.412-1.686q-.001-2.65 2.17-2.65t2.17 2.17M90.605 69.16q-.001-2.65 2.412-2.65c1.443 0 2.17.807 2.17 2.409q0 2.412-2.65 2.411c-1.295-.004-1.932-.726-1.932-2.17m5.783 18.795c4.34 0 6.506-1.767 6.506-5.3q-.001-2.163-1.448-4.097-1.447-1.926-4.098-1.928-1.928-.001-4.097 1.444-2.168 1.447-2.17 4.34c0 1.443.484 2.734 1.444 3.855.972 1.125 2.254 1.686 3.863 1.686m.964-2.892q-2.892.001-2.892-2.17-.001-1.203.964-2.048.962-.842 1.928-.843 1.926 0 1.928 2.65-.002 2.412-1.928 2.411"/><path d="M35.907 116.664q-.478 0-1.434-.179-.957-.179-1.374-.179-.3 0-1.195.358-.897.359-1.434.359-.3 0-1.255-.149-.956-.149-1.374-.149-3.526 0-6.213 1.016-.12-.238-.12-.717 0-2.509 1.673-4.332 1.672-1.822 3.346-1.822.477 0 1.076.179.596.18.657.179.239 0 .239-.179 0-.059-.149-.269-.15-.209-.149-.269 0-.299.12-.299t.299.239q.18.24.329.807t.149 1.225q0 .3-.03 1.076t-.03.956q0 2.031 1.254 2.031.417 0 1.434-.389 1.014-.388 1.673-.388.178 0 .418.03.238.03.358.03.956 0 .956-1.314 0-.417-.508-.807-.508-.389-.986-.389-.597 0-1.404 1.016t-1.345 1.016q-.956 0-.956-1.434 0-.597.329-1.673.328-1.076.329-1.613 0-.717-.329-1.045-.33-.328-.687-.388-.359-.06-.359-.12 0-.12.359-.12.596 0 1.075.627.477.627.598.627.119 0 .478-.538.358-.538 1.075-1.046t1.732-.508q1.194 0 1.972 1.105.776 1.105.836 1.105l.896-.239q.896-.299 2.211-.299 1.793 0 3.764 1.853t1.972 4.6l-.18 1.016q-.12 0-2.21-.358-2.093-.358-3.405-.358-2.092 0-3.107.06t-1.374.059m-11.232-.477q0-.239-.717-.239-.537 0-.926.12-.388.12-.538.299t-.149.298q0 .24.239.239.299 0 1.195-.269.896-.27.896-.448m-1.972-1.016q0 .24.598.239.416 0 .986-.179.567-.179.567-.299 0-.298-.717-.298-1.434 0-1.434.537m1.733-1.793q-1.076 0-1.076.358 0 .3 1.076.299.956 0 .956-.299 0-.358-.956-.358m-.18-.776q0 .358 1.315.358.417 0 .418-.179 0-.477-1.016-.478-.716 0-.717.299m.897-.896q0 .299 1.135.298.358 0 .358-.179 0-.358-.896-.358-.597 0-.597.239m3.226 4.062q-3.047 0-3.047.299 0 .24.777.239.239 0 .896-.03t1.016-.03q.776 0 .777-.239-.002-.238-.419-.239m.18-.657q0-.477-2.331-.478-.717 0-.717.298 0 .121.06.149.058.03.269.06.208.03.418.03h.688q.477 0 .896.06.716.06.717-.119m-.06-.956q0-.478-1.613-.478-.777 0-.776.298 0 .3 1.852.299.536 0 .537-.119m-1.912-1.075q0 .06.776.209.776.15.896.149.239 0 .239-.06 0-.12-.179-.239a2.4 2.4 0 0 0-.538-.239 2.3 2.3 0 0 0-.717-.12q-.477.002-.477.3m.418-.896q0 .179.627.358t.926.179q.119 0 .119-.12 0-.119-.448-.358a1.85 1.85 0 0 0-.866-.239q-.358 0-.358.18m1.613-.359q0-.418-.836-.418-.359 0-.359.12 0 .18.418.298.418.12.598.12t.179-.12m1.255-1.135q0 .179-.179.179t-.418-.358-.239-.598q0-.12.119-.12.238 0 .478.329.238.33.239.568m1.374 2.628q0-.358-.418-.358-.478 0-.478.896 0 .358.239.358.119 0 .388-.329.269-.326.269-.567m.717.598q0-.299-.179-.299-.24 0-.567.388-.33.39-.329.628 0 .24.239.239.18 0 .508-.358.327-.359.328-.598m-.299-1.075q.12 0 .269-.239.149-.238.149-.358 0-.477-.418-.478-.717 0-.717.598 0 .477.717.477m1.255-3.167q0-.239-.359-.239-.597 0-.597.538 0 .298.358.298.597 0 .598-.597m-.478 2.032q.418 0 .418-.478 0-.418-.418-.418-.478 0-.478.478 0 .418.478.418m.119.776q-.12 0-.269.18-.15.179-.149.298 0 .418.418.418t.418-.538q0-.357-.418-.358m.777-3.824q-.478 0-.478.359 0 .358.478.358.119.06.239-.03t.12-.269q0-.418-.359-.418m0 2.211q.417 0 .418-.418 0-.418-.418-.418t-.418.418.418.418m.537 1.195q0-.477-.418-.478-.537 0-.538.418 0 .478.478.478t.478-.418m.299-1.374q-.478 0-.478.478-.061.179.149.328.209.15.329.15.478 0 .478-.418 0-.538-.478-.538m-.059-.598q.537 0 .538-.478 0-.358-.418-.358-.478 0-.478.478-.002.358.358.358m.119-1.733q-.418 0-.418.299 0 .3.418.299.358 0 .358-.299.001-.299-.358-.299m1.733 7.887q.358 0 2.181-.269a23 23 0 0 1 3.376-.269q.836 0 .836-.239 0-.478-1.135-.478-.658.001-2.032.239-1.375.24-1.673.239-.24 0-.239-.06 0-.299 1.553-.627t2.211-.329q.657 0 .657-.298 0-.299-.597-.299-.598 0-1.822.299-1.226.298-1.523.298-.18 0-.179-.119 0-.418 2.748-.837.657-.059.657-.358 0-.18-.358-.18-.419 0-1.523.329-1.106.33-1.285.329-.358 0 .06-.299a1 1 0 0 1 .239-.179q.358-.12.777-.269.417-.149.627-.209l.418-.12q.209-.06.269-.149.06-.09.06-.149 0-.18-.299-.179-.359 0-1.225.329t-.986.329q-.18 0-.179-.06 0-.179 1.105-.688 1.105-.507 1.105-.627 0-.18-.239-.179-.18 0-1.016.448t-1.075.448q-.12 0-.12-.12 0-.239.986-.747t.986-.687q0-.12-.239-.12-.418 0-1.046.329a9 9 0 0 0-1.045.627l-.478.299q-.24 0-.239-.239 0-.059.209-.388.209-.328.209-.448 0-.239-.358-.239-.36 0-1.314 1.076-.957 1.075-.956 1.255 0 .06.807.567.807.508.807 1.464 0 .895-.538 1.434.476.12.835.119m-.359-5.975q0-.358-.538-.358-.12 0-.298.179-.18.18-.179.358 0 .358.478.358.18 0 .359-.179.177-.177.178-.358m-.358-1.732q-.418 0-.418.478 0 .299.358.298.538 0 .538-.418 0-.358-.478-.358m1.075 1.075q0-.299-.299-.299-.358 0-.358.299 0 .359.299.359.358 0 .358-.359m1.912-1.135q1.673-1.851 3.465-2.988 1.792-1.135 2.749-1.135.358 0 .358.239 0 .121-.119.179-.3.24-1.255.687-.957.449-1.255.627a51 51 0 0 0-2.181 1.494q-.986.717-1.374.986t-.508.269q-.239 0 .12-.358m2.032 2.509q0 .24.239.239 1.554 0 1.554-.418 0-.239-.478-.239-.3 0-.807.149-.508.15-.508.269m.059-2.569q0-.059.687-.568a12.5 12.5 0 0 1 1.673-1.016q.986-.508 1.524-.508.537 0 .538.18 0 .179-4.003 1.852-.48.24-.419.06m2.271 3.107q-1.375 0-1.374.478 0 .18.358.18.178 0 .657-.03.477-.03.597-.03.359 0 .359-.239 0-.359-.597-.359m-1.196-2.509q0-.06.389-.269.388-.209.986-.389.597-.179 1.016-.179.538 0 .717.358.06.12-.06.149-.12.03-.538.03-.658.06-1.225.149-.569.09-.807.15-.24.06-.298.06-.18.001-.18-.059m.598 4.063q0 .24 1.554.239.537 0 .538-.179 0-.359-.956-.359-1.136 0-1.136.299m2.987 1.374q0-.537-1.553-.538-.478 0-.657.06-.18.061-.12.239 0 .18.867.329.865.15 1.105.149.358 0 .358-.239m-.358.956a4.2 4.2 0 0 0-1.016-.12q-.538 0-.538.179 0 .538 1.852.717.299.06.299-.179 0-.477-.597-.597" style="fill:#133f00" transform="translate(-66.745 -322.33)scale(4.03315)"/></svg>