<svg xmlns="http://www.w3.org/2000/svg" xml:space="preserve" viewBox="0 0 139.764 200"><path d="M39.518 70.36q7.23 0 26.748-7.107c13.011-4.735 21.364-7.11 25.059-7.11q8.432 0 16.508 3.254c5.38 2.17 8.07 4.623 8.07 7.349 0 1.444-.762 2.856-2.287 4.215q-2.291 2.05-5.183 2.049c-.645 0-3.734-1.041-9.276-3.134q-8.314-3.129-14.818-3.13-8.677 0-26.264 5.542c-11.73 3.698-19.122 5.541-22.171 5.541-5.627 0-9.64-1.282-12.047-3.855q.718-2.17 7.47-4.34c.802 0 2.084.12 3.855.363 1.766.246 3.21.363 4.336.363m2.17-20.481q.001-1.924 13.015-5.542.962-.236 3.372-.722a1949 1949 0 0 1 6.985-1.927l9.64-3.013q5.783-1.809 9.28-2.892c2.327-.726 3.977-1.085 4.94-1.085 1.445 0 2.17.327 2.17.964q0 1.446-.6 2.892a17.3 17.3 0 0 1-1.565 2.892c-.646.963-1.049 1.528-1.206 1.685-24.421 6.43-38.155 9.64-41.204 9.64-3.222 0-4.827-.964-4.827-2.892"/><path d="M69.843 44.133q-.24 0-.956.299l-.239.478a4 4 0 0 1-.538.717q-.896-.537-.896-3.465 0-2.27.239-3.286 2.21-.359 4.87-1.076 2.657-.717 3.316-.717 1.254 0 1.254.836l-.418 1.553a12.4 12.4 0 0 0-.418 3.227q0 .956.12 2.031 1.134.06 2.45.358 1.313.3 2.718 1.195 1.404.897 1.404 2.091 0 1.017-.776 1.553-.778.537-1.972.538-.3 0-1.344.389-1.046.388-1.583.388-.776 0-2.838-.807-2.061-.807-2.897-1.344-.3.12-.627.388-.329.27-.508.269-.299 0-1.912-.478 0 .061-.03.358-.03.3-.06.448-.03.15-.06.358a.57.57 0 0 1-.149.329.4.4 0 0 1-.299.12q-.18 0-.388-.239a2 2 0 0 1-.359-.627q-.15-.388-.299-.747a7 7 0 0 1-.269-.777 5 5 0 0 0-.179-.538h-.717a5.9 5.9 0 0 1-2.091-.358q-.957-.358-.956-1.016 0-.059.03-.179t.03-.239q.538 0 1.494.12.955.12 1.494.12h.239a19 19 0 0 0-.239-1.344l-.298-1.434q-.12-.567-.12-.866 0-.119.239-.358.717.12 1.045.687t.567 1.583.598 1.673q.836 0 2.27-.478 0-.178.03-.836.028-.658.028-.897m7.468-8.185q-1.793 0-5.317 1.045-3.526 1.045-4.66 1.045-3.585 0-4.66-1.314 1.075-.657 1.613-.657.597 0 1.822.299 1.224.299 2.062.298 1.194 0 1.613-.239.418-.238.418-1.076 0-.179-.329-.269t-.448-.269q0-.238.09-.358.09-.118.298-.329.209-.209.329-.448.119-.18.448-.747.328-.567.538-.777a.7.7 0 0 1 .508-.209q.418 0 .418.597 0 .479-.089.986a8 8 0 0 1-.299 1.135 7 7 0 0 0-.269.986q.12.3.418.299.358 0 1.046-1.375.687-1.374.687-1.971 0-.359-.388-.687-.39-.329-.508-.508.478-1.075 2.091-1.673 1.195.419 1.195 2.21 0 .597-.508 1.434-.508.838-.567 1.554.477-.06 1.314-.239.836-.18 1.673-.269.836-.09 1.792-.09 1.911 0 2.211.418a2.68 2.68 0 0 1-1.314 1.254q-.78-.055-3.228-.056m-9.56 11.65q.239.597.418.956.836-.18 1.912-.657-.3-.358-.299-.956zm.896-7.887v1.076h.12l.12.06 1.076-.179q0-.477.119-1.195zm1.196 1.972q-.36.062-.777.12-.359 0-.388.06a.6.6 0 0 0-.03.239v.239q0 .12.03.418.03.3.03.418.298 0 1.135-.119zm1.493-2.509q0 .299-.09.658-.09.358-.089.597.596-.12 1.374-.269.776-.149 1.135-.209 0-.299.03-.717t.03-.657a20 20 0 0 0-1.254.329 9 9 0 0 1-1.136.268m-.179 2.27v1.314q.836-.06 2.39-.538 0-.896.06-1.375-1.316.421-2.45.599m.119 2.39v1.613a11.6 11.6 0 0 0 2.33-.657q0-1.016-.06-1.553-.3.12-1.045.299-.747.179-1.225.298m.06 2.688q0 .957.299.956.239 0 .508-.089.269-.09.717-.269t.866-.299q-.12-.656-.06-.956-.358.061-2.33.657m5.019-.716q0 .121.089.538.09.42.09.717 0 .3-.179.657-1.136.777-2.21.776-.061-.059-.179-.358a7 7 0 0 0-.18-.418q-.359.12-.806.418-.449.3-.747.418.239.358 1.195.747.956.39 1.494.389.358 0 .688-.149.327-.149.717-.448.387-.298.627-.418.298-.12 1.166-.18.865-.059 1.314-.328.448-.27.448-.926 0-.477-1.254-.926-1.256-.449-2.273-.509" style="fill:#870000" transform="translate(-220.969 -33.177)scale(4.03323)"/></svg>