<svg xmlns="http://www.w3.org/2000/svg" xml:space="preserve" viewBox="0 0 139.764 200"><path d="M77.43 161.533q2.21 2.211 2.21 5.317t-2.21 5.318q-2.212 2.21-5.317 2.21-3.107 0-5.317-2.21t-2.211-5.318q0-3.105 2.211-5.317 2.21-2.21 5.317-2.21 3.107.001 5.317 2.21m0 19.119q2.21 2.212 2.21 5.317 0 3.107-2.21 5.317-2.212 2.21-5.317 2.21-3.107 0-5.317-2.21t-2.211-5.317q0-3.105 2.211-5.317 2.21-2.21 5.317-2.21t5.317 2.21m-.746-9.231q1.882-1.882 1.882-4.57t-1.882-4.57-4.571-1.882-4.57 1.882-1.882 4.57 1.882 4.57 4.57 1.882q2.688 0 4.571-1.882m0 19.119q1.882-1.882 1.882-4.571t-1.882-4.57q-1.882-1.882-4.571-1.882t-4.57 1.882q-1.882 1.881-1.882 4.57t1.882 4.571q1.882 1.881 4.57 1.882t4.571-1.882m-.508-27.752q1.673 1.673 1.673 4.063t-1.673 4.063q-1.674 1.673-4.063 1.673-2.39 0-4.063-1.673-1.674-1.672-1.673-4.063 0-2.389 1.673-4.063 1.672-1.673 4.063-1.673t4.063 1.673m0 19.119q1.673 1.673 1.673 4.063t-1.673 4.063q-1.674 1.672-4.063 1.672-2.39 0-4.063-1.672-1.674-1.672-1.673-4.063t1.673-4.063q1.672-1.673 4.063-1.673t4.063 1.673m-6.214-15.296q0-.118.06-.329.058-.208.12-.328l-1.972-1.136-1.255.598a6 6 0 0 0-.179 1.434q0 .717.179 1.434l1.255.597 1.972-1.135a2 2 0 0 1-.12-.328 1.3 1.3 0 0 1-.06-.329H68.05v-.479h1.912zm0 19.119q0-.119.06-.329.058-.209.12-.329l-1.972-1.135-1.255.598a6 6 0 0 0-.179 1.434q0 .717.179 1.434l1.255.597 1.972-1.135a2 2 0 0 1-.12-.329q-.06-.21-.06-.329H68.05v-.478h1.912zm1.912-21.03v-2.271l-1.135-.777q-1.495.359-2.449 1.435l.06 1.374 2.031 1.135q.179-.298.478-.478l-.956-1.673.358-.239.956 1.673q.119-.06.329-.12.208-.059.328-.059m0 4.302q-.12 0-.329-.061a2 2 0 0 1-.329-.119l-.956 1.673-.358-.239.956-1.673a1.36 1.36 0 0 1-.478-.478l-2.031 1.135-.06 1.374q.955 1.076 2.449 1.434l1.135-.776zm0 14.816v-2.27l-1.135-.777q-1.495.359-2.449 1.434l.06 1.375 2.031 1.135q.179-.299.478-.479l-.956-1.672.358-.239.956 1.673q.119-.06.329-.119.208-.06.328-.061m0 4.302q-.12 0-.329-.06a2 2 0 0 1-.329-.12l-.956 1.673-.358-.239.956-1.672q-.299-.179-.478-.478l-2.031 1.135-.06 1.375q.955 1.076 2.449 1.434l1.135-.776zm-1.046-22.554q-.507.508-.508 1.284 0 .778.508 1.285.507.508 1.285.508t1.285-.508q.507-.507.508-1.285 0-.776-.508-1.284-.508-.507-1.285-.508-.777.001-1.285.508m0 19.119q-.507.509-.508 1.285 0 .778.508 1.285.507.508 1.285.508t1.285-.508q.507-.507.508-1.285 0-.775-.508-1.285-.508-.507-1.285-.508-.777 0-1.285.508m1.285-16.998q-.837 0-.836-.836 0-.836.836-.836.837 0 .837.836t-.837.836m0 19.119q-.837 0-.836-.836 0-.836.836-.836.837 0 .837.836t-.837.836m1.852-23.6.358.239-.956 1.673q.298.18.478.478l2.031-1.135.06-1.374q-.957-1.075-2.449-1.435l-1.135.777v2.271q.118 0 .329.06.208.061.329.12zm.359 7.05-.358.239-.956-1.673q-.12.06-.329.119-.21.061-.329.061v2.27l1.135.776q1.493-.358 2.449-1.434l-.06-1.374-2.031-1.135q-.18.299-.478.478zm-.359 12.069.358.239-.956 1.672q.298.18.478.479l2.031-1.135.06-1.375q-.957-1.075-2.449-1.434l-1.135.777v2.27q.118 0 .329.06.208.06.329.119zm.359 7.05-.358.239-.956-1.673a2 2 0 0 1-.329.12q-.21.06-.329.06v2.271l1.135.776q1.493-.359 2.449-1.434l-.06-1.375-2.031-1.135q-.18.299-.478.478zm1.852-22.764v.479h-1.912q0 .12-.06.329t-.12.328l1.972 1.135 1.255-.597q.179-.717.179-1.434t-.179-1.434l-1.255-.598-1.972 1.136q.06.12.12.328.06.21.06.329zm0 19.119v.478h-1.912q0 .12-.06.329t-.12.329L76.056 188l1.255-.598q.179-.717.179-1.434t-.179-1.434l-1.255-.598-1.972 1.135q.06.12.12.329t.06.329h1.912z" style="fill:#00082d" transform="translate(-220.969 -611.503)scale(4.03323)"/></svg>