<svg xmlns="http://www.w3.org/2000/svg" xml:space="preserve" viewBox="0 0 139.764 200"><path d="M74.458 71.566c-2.574 0-8.357 1.569-17.351 4.698-8.999 3.134-16.867 4.7-23.615 4.7-5.945 0-9.079-.88-9.397-2.65q0-.963 3.976-2.53c2.65-1.04 5.179-1.726 7.59-2.048.965-.158 2.808-.36 5.543-.601q4.096-.362 8.913-1.206c3.21-.565 6.828-1.408 10.845-2.53a256 256 0 0 0 12.29-3.496 787 787 0 0 1 8.191-2.529 65 65 0 0 1 4.578-1.206c1.444-.318 2.65-.484 3.614-.484 1.448 0 4.34 1.049 8.675 3.134 2.085.964 4.856 2.013 8.313 3.134q5.177 1.689 7.106 3.13 1.926 1.446 1.928 4.097c0 1.444-.6 3.175-1.807 5.183-1.206 2.013-2.529 3.013-3.977 3.013-1.286 0-4.904-1.686-10.845-5.058q-8.917-5.057-12.527-6.025c-3.368-.484-7.385-.726-12.043-.726M37.11 60.962c0-.641 1.327-1.6 3.977-2.891q3.974-1.926 5.182-1.928.239 0 1.444.12c.803.085 1.767.122 2.892.122 3.05 0 9.64-1.602 19.759-4.82 10.12-3.21 16.145-4.82 18.073-4.82 1.282 0 1.928.645 1.928 1.928 0 2.09-1.448 4.336-4.34 6.748-16.867 6.106-28.838 9.155-35.904 9.155q-3.854.002-8.433-.964-4.58-.955-4.578-2.65m3.372-17.831q0-.72 3.254-2.407 3.254-1.684 4.941-1.686c.641 0 1.444.084 2.412.242q1.446.242 2.65.242 4.338 0 13.975-2.412 9.639-2.403 17.589-4.82c5.3-1.601 8.11-2.408 8.433-2.408 1.448 0 2.17.646 2.17 1.928q0 1.445-2.529 4.336c-1.685 1.928-3.335 3.372-4.94 4.34-4.663.806-11.29 2.286-19.88 4.456q-12.893 3.255-16.988 3.255-3.38.001-7.228-1.686c-2.577-1.125-3.86-2.254-3.86-3.38"/><path d="M108.08 44.133q-.24 0-.956.299l-.239.478q-.3.478-.538.717-.897-.537-.896-3.465 0-2.27.239-3.286 2.21-.359 4.869-1.076t3.316-.717q1.254 0 1.255.836l-.418 1.553a12.4 12.4 0 0 0-.418 3.227q0 .956.12 2.031 1.135.06 2.449.358 1.314.3 2.719 1.195 1.403.897 1.404 2.091 0 1.017-.777 1.553-.777.537-1.972.538-.3 0-1.344.389-1.046.388-1.583.388-.777 0-2.838-.807t-2.898-1.344q-.3.12-.627.388-.328.27-.508.269-.298 0-1.912-.478 0 .061-.03.358-.03.3-.06.448-.03.15-.06.358a.57.57 0 0 1-.149.329.4.4 0 0 1-.299.12q-.179 0-.388-.239a2 2 0 0 1-.358-.627q-.15-.388-.299-.747a7 7 0 0 1-.269-.777 5 5 0 0 0-.179-.538h-.717q-1.136 0-2.091-.358t-.956-1.016q0-.059.03-.179t.03-.239q.537 0 1.494.12.956.12 1.494.12h.239q-.061-.478-.239-1.344l-.298-1.434q-.12-.567-.12-.866 0-.119.239-.358.717.12 1.045.687t.568 1.583.597 1.673q.836 0 2.271-.478 0-.178.03-.836.027-.658.028-.897m7.468-8.185q-1.792 0-5.317 1.045t-4.66 1.045q-3.585 0-4.66-1.314 1.076-.657 1.613-.657.596 0 1.822.299 1.224.299 2.061.298 1.194 0 1.613-.239.418-.238.418-1.076 0-.179-.328-.269-.33-.09-.448-.269 0-.238.089-.358a4 4 0 0 1 .299-.329q.209-.209.329-.448.12-.18.448-.747.327-.567.538-.777a.7.7 0 0 1 .508-.209q.418 0 .418.597 0 .479-.09.986a8 8 0 0 1-.299 1.135q-.21.627-.269.986.118.3.418.299.358 0 1.045-1.375.688-1.374.688-1.971 0-.359-.389-.687t-.508-.508q.478-1.075 2.091-1.673 1.195.419 1.195 2.21 0 .597-.508 1.434-.508.838-.568 1.554.477-.06 1.315-.239.835-.18 1.672-.269t1.792-.09q1.911 0 2.211.418a2.68 2.68 0 0 1-1.314 1.254q-.775-.055-3.225-.056m-9.559 11.65q.238.597.418.956.837-.18 1.912-.657-.3-.358-.299-.956zm.896-7.887v1.076h.12l.12.06 1.075-.179q0-.477.12-1.195zm1.195 1.972q-.36.062-.777.12-.359 0-.389.06a.6.6 0 0 0-.03.239v.239q0 .12.03.418.03.3.03.418.298 0 1.136-.119zm1.493-2.509q0 .299-.089.658-.09.358-.09.597.597-.12 1.375-.269.776-.149 1.135-.209 0-.299.03-.717t.03-.657q-.538.12-1.255.329a9 9 0 0 1-1.136.268m-.179 2.27v1.314q.837-.06 2.39-.538 0-.896.06-1.375-1.316.421-2.45.599m.12 2.39v1.613a11.6 11.6 0 0 0 2.33-.657q0-1.016-.06-1.553-.3.12-1.046.299-.747.179-1.224.298m.059 2.688q0 .957.299.956.239 0 .508-.089.269-.09.717-.269a9 9 0 0 1 .867-.299q-.12-.656-.06-.956-.358.061-2.331.657m5.019-.716q0 .121.09.538.09.42.089.717 0 .3-.179.657-1.136.777-2.21.776-.06-.059-.179-.358a7 7 0 0 0-.179-.418q-.358.12-.807.418-.449.3-.747.418.238.358 1.195.747.956.39 1.494.389.358 0 .687-.149.328-.149.717-.448a4.3 4.3 0 0 1 .627-.418q.298-.12 1.165-.18.866-.059 1.314-.328.448-.27.448-.926 0-.477-1.255-.926t-2.27-.509" style="fill:#870000" transform="translate(-375.188 -33.177)scale(4.03323)"/></svg>