<svg xmlns="http://www.w3.org/2000/svg" xml:space="preserve" viewBox="0 0 139.764 200"><path d="M146.317 44.133q-.24 0-.956.299l-.239.478q-.3.478-.538.717-.897-.537-.896-3.465 0-2.27.239-3.286 2.21-.359 4.869-1.076t3.316-.717q1.255 0 1.255.836l-.418 1.553a12.4 12.4 0 0 0-.418 3.227q0 .956.12 2.031 1.135.06 2.449.358 1.314.3 2.719 1.195 1.403.897 1.404 2.091 0 1.017-.777 1.553-.777.537-1.972.538-.3 0-1.344.389-1.047.388-1.583.388-.777 0-2.838-.807t-2.898-1.344q-.3.12-.627.388-.328.27-.508.269-.298 0-1.912-.478 0 .061-.03.358-.03.3-.06.448-.03.15-.06.358a.57.57 0 0 1-.149.329.4.4 0 0 1-.299.12q-.179 0-.388-.239a2 2 0 0 1-.358-.627q-.15-.388-.299-.747a7 7 0 0 1-.269-.777 5 5 0 0 0-.179-.538h-.717q-1.136 0-2.091-.358t-.956-1.016q0-.059.03-.179t.03-.239q.537 0 1.494.12.955.12 1.494.12h.239q-.061-.478-.239-1.344l-.298-1.434q-.12-.567-.12-.866 0-.119.239-.358.717.12 1.045.687t.568 1.583q.238 1.016.597 1.673.835 0 2.271-.478 0-.178.03-.836.028-.658.028-.897m7.468-8.185q-1.792 0-5.317 1.045t-4.66 1.045q-3.585 0-4.66-1.314 1.076-.657 1.613-.657.596 0 1.822.299 1.224.299 2.061.298 1.194 0 1.613-.239.418-.238.418-1.076 0-.179-.328-.269-.33-.09-.448-.269 0-.238.089-.358a4 4 0 0 1 .299-.329q.209-.209.329-.448.12-.18.448-.747.327-.567.538-.777a.7.7 0 0 1 .508-.209q.418 0 .418.597 0 .479-.09.986a8 8 0 0 1-.299 1.135q-.21.627-.269.986.118.3.418.299.358 0 1.045-1.375.688-1.374.688-1.971 0-.359-.389-.687t-.508-.508q.478-1.075 2.091-1.673 1.195.419 1.195 2.21 0 .597-.508 1.434-.508.838-.568 1.554.477-.06 1.315-.239.835-.18 1.672-.269t1.792-.09q1.911 0 2.211.418a2.68 2.68 0 0 1-1.314 1.254q-.775-.055-3.225-.056m-9.559 11.65q.238.597.418.956.837-.18 1.912-.657-.3-.358-.299-.956zm.896-7.887v1.076h.12l.12.06 1.075-.179q0-.477.12-1.195zm1.195 1.972q-.36.062-.777.12-.359 0-.389.06a.6.6 0 0 0-.03.239v.239q0 .12.03.418.03.3.03.418.298 0 1.136-.119zm1.494-2.509q0 .299-.089.658-.09.358-.09.597.597-.12 1.375-.269.776-.149 1.135-.209 0-.299.03-.717t.03-.657q-.538.12-1.255.329a9 9 0 0 1-1.136.268m-.18 2.27v1.314q.837-.06 2.39-.538 0-.896.06-1.375-1.315.421-2.45.599m.12 2.39v1.613a11.6 11.6 0 0 0 2.33-.657q0-1.016-.06-1.553-.3.12-1.046.299-.747.179-1.224.298m.06 2.688q0 .957.299.956.239 0 .508-.089.269-.09.717-.269a9 9 0 0 1 .867-.299q-.12-.656-.06-.956-.36.061-2.331.657m5.018-.716q0 .121.09.538.09.42.089.717 0 .3-.179.657-1.136.777-2.21.776-.06-.059-.179-.358a7 7 0 0 0-.179-.418q-.358.12-.807.418-.448.3-.747.418.238.358 1.195.747.956.39 1.494.389.358 0 .687-.149.328-.149.717-.448a4.3 4.3 0 0 1 .627-.418q.298-.12 1.165-.18.866-.059 1.314-.328.448-.27.448-.926 0-.477-1.255-.926t-2.27-.509" style="fill:#870000" transform="translate(-529.41 -33.177)scale(4.03323)"/><path d="M20.719 50.843c.637-1.121 1.524-1.686 2.65-1.686q2.166.001 11.805 3.614c17.67-7.066 30.52-11.406 38.558-13.011q.237-.483.721-2.17c.32-1.121.642-1.928.964-2.408.323-.484.722-.722 1.206-.722q.725.001 1.807.964a29 29 0 0 1 2.17 2.17q1.084 1.208 1.327 1.444a109 109 0 0 1 22.65 4.34c5.623 1.605 9.434 3.335 11.447 5.182q3.013 2.77 3.013 8.555 0 3.133-5.784 8.554c-3.856 3.614-7.348 6.47-10.482 8.555a589 589 0 0 1-8.07 5.3q-1.448-.238-4.098-1.566c-1.771-.883-3.735-1.605-5.905-2.17-2.17-.56-4.784-.842-7.833-.842q-7.231.001-14.455 4.097c-4.82 2.735-7.873 4.098-9.16 4.098a7.2 7.2 0 0 1-2.286-.359c-.722-.242-1.488-.681-2.29-1.327q-1.21-.96-1.808-1.686a74 74 0 0 0-1.928-2.17 83 83 0 0 0-1.807-1.927c-1.605-1.606-3.654-3.53-6.142-5.784q-3.74-3.37-5.3-5.058-1.565-1.683-4.457-5.183-2.896-3.503-6.513-8.804m24.34 4.578q-3.858 0-4.82.48.962 1.687 1.807 2.774.84 1.082 1.928 2.17c.722.722 2.247 2.332 4.578 4.82q3.49 3.739 8.07 8.555l2.892-1.444q-.245-4.093-1.448-9.64c-.806-3.694-1.201-5.94-1.201-6.747 0-1.602-.404-2.73-1.206-3.372q-1.446.246-3.497.964-2.049.721-3.735 1.085a16.2 16.2 0 0 1-3.368.355m20.001-5.542q2.168 6.992 2.17 8.196c0 2.891-.565 7.312-1.686 13.253.641-.162 1.565-.4 2.77-.726q1.81-.479 2.53-.722c.641-10.277 1.206-17.67 1.686-22.17q-3.86.002-7.47 2.169m13.733 19.279c1.767 0 3.892.12 6.385.359q3.734.364 6.384.722c1.767.242 2.731.359 2.892.359q1.446-.001 5.3-6.506 3.855-6.51 3.856-7.953c0-1.283-2.408-3.134-7.228-5.542-4.82-2.412-8.675-3.775-11.567-4.098 0 .161.036.403.12.722q.122.485.122.722c0 1.125-.887 4.098-2.65 8.913-1.77 4.832-2.972 8.926-3.614 12.302"/></svg>