<svg xmlns="http://www.w3.org/2000/svg" xml:space="preserve" viewBox="0 0 139.764 200"><path d="M49.637 66.746q-6.026 6.026-14.46 11.083-8.437 5.06-12.288 5.062-1.93-.001-2.65-.964c6.905-3.376 13.814-8.272 20.723-14.701q10.358-9.637 10.36-16.867 0-1.203-.358-2.17-.364-.96-1.327-2.29-.969-1.322-1.206-1.808c.964-.964 1.726-2.125 2.29-3.492q.844-2.046 1.566-3.013.962-.964 2.77-2.05c1.203-.721 2.05-1.326 2.53-1.806.318.323 1.326 1.045 3.012 2.17q2.53 1.689 3.735 3.614 5.541 0 18.674-5.784t13.374-5.784q17.349 0 17.347 4.82-.002 6.265-4.578 6.264-1.93 0-6.025-1.202c-2.735-.803-4.82-1.206-6.268-1.206q-3.612-.001-13.733 4.82c-5.142 2.573-8.115 6.666-8.918 12.289 5.139-1.601 8.273-2.892 9.402-3.856q1.68-1.445 2.17-4.578c3.21.323 5.3 1.605 6.263 3.856q.963.721.242 3.614-.726 2.89-.726 3.614c0 1.609.323 4.9.964 9.881 2.247 1.125 6.103 2.735 11.568 4.82 5.46 2.089 9.397 3.94 11.809 5.541 2.408 1.61 3.614 3.614 3.614 6.026 0 1.61-.525 3.013-1.565 4.219-1.049 1.206-2.291 1.807-3.735 1.807-.964 0-3.94-1.565-8.913-4.699q-7.471-4.702-14.46-4.703c-.963 0-2.012.121-3.133.363q-1.688.363-2.17.363-1.687 0-1.686-.964c0-.157.08-.641.242-1.444q.242-1.203.242-2.891a137 137 0 0 1-8.797 3.254 575 575 0 0 0-7.11 2.408 49 49 0 0 0-4.699 1.928q-2.292 1.082-3.255 2.17a3.68 3.68 0 0 0-.964 2.529c-.165.326-.722.48-1.686.48-2.734 0-4.9-.88-6.505-2.65q-2.408-2.651-2.408-6.506c0-1.12.4-2.569 1.202-4.335.803-1.767 1.206-3.21 1.206-4.34.004-1.444-.56-2.408-1.682-2.892m6.506-5.058q-.242.725-.242 2.17c0 1.287.278 2.936.843 4.94.56 2.013.843 3.336.843 3.978 0 .161-.045.363-.121.6q-.121.365-.121.602 1.203.968 2.65.48 2.648-2.65 4.577-11.326-.243 0-.964.121a7 7 0 0 1-1.206.121q-5.054.002-6.26-1.686m8.195-20q0 .488-.12 3.976c-.082 2.331-.36 4.457-.844 6.385q-.722 2.893-2.17 3.614.48 2.168 1.444 2.17 2.168 0 5.062-1.686 3.613-8.674 3.614-10.362 0-1.924-2.287-3.013c-1.533-.726-3.098-1.084-4.699-1.084m3.372 32.77q5.54 0 16.629-5.784c-.165-.641-.242-1.686-.242-3.13 0-.641.036-1.565.121-2.77.08-1.207.12-1.965.12-2.292q-.002-4.575-2.41-4.577c-.485 0-1.247.326-2.288.964a323 323 0 0 0-3.856 2.411q-2.293 1.445-3.976 2.17c-2.735 4.977-4.098 9.313-4.098 13.008"/><path d="M184.555 44.133q-.24 0-.956.299l-.239.478q-.3.478-.538.717-.897-.537-.896-3.465 0-2.27.239-3.286 2.21-.359 4.869-1.076t3.316-.717q1.255 0 1.255.836l-.418 1.553a12.4 12.4 0 0 0-.418 3.227q0 .956.12 2.031 1.135.06 2.449.358 1.314.3 2.719 1.195 1.403.897 1.404 2.091 0 1.017-.777 1.553-.777.537-1.972.538-.3 0-1.344.389-1.047.388-1.583.388-.777 0-2.838-.807t-2.898-1.344q-.3.12-.627.388-.328.27-.508.269-.298 0-1.912-.478 0 .061-.03.358-.03.3-.06.448-.03.15-.06.358a.57.57 0 0 1-.149.329.4.4 0 0 1-.299.12q-.179 0-.388-.239a2 2 0 0 1-.358-.627q-.15-.388-.299-.747a7 7 0 0 1-.269-.777 5 5 0 0 0-.179-.538h-.717q-1.136 0-2.091-.358t-.956-1.016q0-.059.03-.179t.03-.239q.537 0 1.494.12.955.12 1.494.12h.239q-.061-.478-.239-1.344l-.298-1.434q-.12-.567-.12-.866 0-.119.239-.358.717.12 1.045.687t.568 1.583q.238 1.016.597 1.673.835 0 2.271-.478 0-.178.03-.836.027-.658.028-.897m7.467-8.185q-1.792 0-5.317 1.045t-4.66 1.045q-3.585 0-4.66-1.314 1.076-.657 1.613-.657.596 0 1.822.299 1.224.299 2.061.298 1.194 0 1.613-.239.417-.238.418-1.076 0-.179-.328-.269-.33-.09-.448-.269 0-.238.089-.358a4 4 0 0 1 .299-.329q.209-.209.329-.448.12-.18.448-.747.327-.567.538-.777a.7.7 0 0 1 .508-.209q.417 0 .418.597 0 .479-.09.986a8 8 0 0 1-.299 1.135q-.21.627-.269.986.118.3.418.299.358 0 1.045-1.375.688-1.374.688-1.971 0-.359-.389-.687t-.508-.508q.478-1.075 2.091-1.673 1.194.419 1.195 2.21 0 .597-.508 1.434-.508.838-.568 1.554.477-.06 1.315-.239.835-.18 1.672-.269t1.792-.09q1.911 0 2.211.418a2.68 2.68 0 0 1-1.314 1.254q-.775-.055-3.225-.056m-9.559 11.65q.238.597.418.956.837-.18 1.912-.657-.3-.358-.299-.956zm.896-7.887v1.076h.12l.12.06 1.075-.179q0-.477.12-1.195zm1.196 1.972q-.36.062-.777.12-.359 0-.389.06a.6.6 0 0 0-.03.239v.239q0 .12.03.418.03.3.03.418.298 0 1.136-.119zm1.493-2.509q0 .299-.089.658-.09.358-.09.597.597-.12 1.375-.269.776-.149 1.135-.209 0-.299.03-.717t.03-.657q-.538.12-1.255.329a9 9 0 0 1-1.136.268m-.179 2.27v1.314q.837-.06 2.39-.538 0-.896.06-1.375-1.316.421-2.45.599m.119 2.39v1.613a11.6 11.6 0 0 0 2.33-.657q0-1.016-.06-1.553-.3.12-1.046.299t-1.224.298m.06 2.688q0 .957.299.956.239 0 .508-.089.269-.09.717-.269a9 9 0 0 1 .867-.299q-.12-.656-.06-.956-.36.061-2.331.657m5.018-.716q0 .121.09.538.09.42.089.717 0 .3-.179.657-1.136.777-2.21.776-.06-.059-.179-.358a7 7 0 0 0-.179-.418q-.359.12-.807.418-.449.3-.747.418.238.358 1.195.747.956.39 1.494.389.358 0 .687-.149.328-.149.717-.448a4.3 4.3 0 0 1 .627-.418q.298-.12 1.165-.18.866-.059 1.314-.328.448-.27.448-.926 0-.477-1.255-.926t-2.27-.509" style="fill:#870000" transform="translate(-683.63 -33.177)scale(4.03323)"/></svg>