<svg xmlns="http://www.w3.org/2000/svg" xml:space="preserve" viewBox="0 0 139.764 200"><path d="M183.24 97.725q0-1.255 3.585-1.255t3.585 1.255q0 1.016-1.494 1.792v3.764q1.493.478 1.494 1.434t-1.494 1.434v3.764q1.493.778 1.494 1.792 0 1.254-3.585 1.254t-3.585-1.254q0-1.015 1.494-1.792v-3.764q-1.494-.477-1.494-1.434 0-.956 1.494-1.434v-3.764q-1.495-.776-1.494-1.792m2.689 0v5.257q.299-.06.896-.06.596 0 .896.06v-5.257q-.3-.06-.896-.06-.599 0-.896.06m0 8.126q.178 0 .478.03.298.03.418.03.118 0 .418-.03.298-.03.478-.03v-2.271q-.18 0-.478-.03-.3-.03-.418-.03-.12 0-.418.03-.299.03-.478.03zm1.792 5.855v-5.258q-.3.06-.896.06t-.896-.06v5.258q.299.06.896.06.596 0 .896-.06" style="fill:#870000" transform="translate(-683.615 -322.33)scale(4.03315)"/><path d="M174.577 87.27q0-1.254 3.585-1.255t3.584 1.255q0 1.017-1.494 1.792v3.764q1.494.478 1.494 1.434 0 .957-1.494 1.434v3.764q1.494.778 1.494 1.792 0 1.254-3.584 1.254t-3.585-1.254q0-1.015 1.494-1.792v-3.764q-1.494-.477-1.494-1.434 0-.956 1.494-1.434v-3.764q-1.494-.777-1.494-1.792m0 20.911q0-1.255 3.585-1.255t3.584 1.255q0 1.017-1.494 1.792v3.764q1.494.478 1.494 1.434t-1.494 1.434v3.764q1.494.777 1.494 1.792 0 1.254-3.584 1.254t-3.585-1.254q0-1.015 1.494-1.792v-3.764q-1.494-.477-1.494-1.434 0-.956 1.494-1.434v-3.764q-1.494-.776-1.494-1.792m2.688-20.911v5.258q.299-.06.896-.06t.896.06V87.27q-.3-.06-.896-.06t-.896.06m0 8.125q.12 0 .418.03t.478.03q.178 0 .478-.03.298-.03.418-.03v-2.27q-.12 0-.418-.03-.3-.03-.478-.03-.18 0-.478.03-.3.03-.418.03zm1.793 5.855v-5.258q-.3.06-.896.06t-.896-.06v5.258q.299.06.896.06t.896-.06m-1.793 6.931v5.257q.299-.06.896-.06t.896.06v-5.257q-.3-.06-.896-.06t-.896.06m0 8.125q.12 0 .418.03t.478.03q.178 0 .478-.03.298-.03.418-.03v-2.271q-.12 0-.418-.03-.3-.03-.478-.03-.18 0-.478.03-.3.03-.418.03zm1.793 5.855v-5.258q-.3.06-.896.06t-.896-.06v5.258q.299.06.896.06t.896-.06m12.845-34.891q0-1.254 3.584-1.255t3.585 1.255q0 1.017-1.494 1.792v3.764q1.493.478 1.494 1.434 0 .957-1.494 1.434v3.764q1.493.778 1.494 1.792 0 1.254-3.585 1.254t-3.584-1.254q0-1.015 1.494-1.792v-3.764q-1.494-.477-1.494-1.434 0-.956 1.494-1.434v-3.764q-1.494-.777-1.494-1.792m0 20.911q0-1.255 3.584-1.255t3.585 1.255q0 1.017-1.494 1.792v3.764q1.493.478 1.494 1.434t-1.494 1.434v3.764q1.493.777 1.494 1.792 0 1.254-3.585 1.254t-3.584-1.254q0-1.015 1.494-1.792v-3.764q-1.494-.477-1.494-1.434 0-.956 1.494-1.434v-3.764q-1.494-.776-1.494-1.792m2.689-20.911v5.258q.299-.06.896-.06.596 0 .896.06V87.27q-.3-.06-.896-.06-.598 0-.896.06m0 8.125q.118 0 .418.03.298.03.478.03.179 0 .478-.03.298-.03.418-.03v-2.27q-.12 0-.418-.03-.299-.03-.478-.03-.18 0-.478.03-.3.03-.418.03zm1.792 5.855v-5.258q-.3.06-.896.06t-.896-.06v5.258q.299.06.896.06.596 0 .896-.06m-1.792 6.931v5.257q.299-.06.896-.06.596 0 .896.06v-5.257q-.3-.06-.896-.06-.598 0-.896.06m0 8.125q.118 0 .418.03.298.03.478.03.179 0 .478-.03.298-.03.418-.03v-2.271q-.12 0-.418-.03-.299-.03-.478-.03-.18 0-.478.03-.3.03-.418.03zm1.792 5.855v-5.258q-.3.06-.896.06t-.896-.06v5.258q.299.06.896.06.596 0 .896-.06" style="fill:#133f00" transform="translate(-683.615 -322.33)scale(4.03315)"/></svg>