<svg xmlns="http://www.w3.org/2000/svg" xml:space="preserve" viewBox="0 0 139.764 200"><path d="M49.637 67.472q.48-.725 1.085-1.686c.4-.641.722-1.206.964-1.686.242-.484.6-.964 1.085-1.448q.722-.719 1.444-1.202c.802-.64 1.569-1.044 2.29-1.206q1.084-.235 2.771-.363 1.685-.118 2.412-.359c2.892 1.606 5.941 4.502 9.156 8.676-.162.807-.48 1.488-.964 2.049a95 95 0 0 1-2.287 2.529 34 34 0 0 0-2.77 3.371c-2.255 0-7.434 1.327-15.545 3.977Q37.107 84.1 33.012 84.101q-6.025-.001-7.47-1.448 1.205-1.203 5.058-2.049c2.57-.56 4.417-1.085 5.546-1.565q15.18-5.54 15.18-7.953-.006-1.931-1.689-3.614"/><path d="M82.17 49.399q-.244 0-17.348 5.542c-11.41 3.698-18.557 5.541-21.449 5.541-1.286 0-3.214-.516-5.783-1.565-2.573-1.04-3.856-1.806-3.856-2.286 0-.803 1.085-1.57 3.255-2.291q3.254-1.084 4.94-1.085c.32 0 1 .04 2.05.12 1.04.086 1.806.122 2.286.122 4.013 0 8.349-.88 13.011-2.65.484-1.767.642-2.73.484-2.892-.806-1.444-2.65-3.452-5.545-6.025 0-4.014-.404-6.99-1.202-8.918q.962-.96 2.408-3.25 1.445-2.286 2.17-2.776.721-.72 1.443-.964c.484-.157 1.283-.242 2.408-.242 1.122 0 2.009-.08 2.65-.242 4.34 4.663 6.506 8.277 6.506 10.846q.001 3.134-2.17 6.263-2.168 3.134-2.17 4.336.001.486.359 1.085.363.606.363.843a207 207 0 0 0 12.047-4.578c3.856-1.6 6.667-2.77 8.434-3.492q2.65-1.084 4.097-1.085 1.205.001 3.255.722c1.363.48 3.09 1.125 5.183 1.927a724 724 0 0 0 5.058 1.928q.482.244 1.807.843 1.324.607 1.806.843.48.244 1.565.722c.722.323 1.206.601 1.444.843.242.242.56.524.964.843q.6.485.843.964c.161.323.319.686.484 1.085.157.403.242.843.242 1.323q-.001 2.891-1.69 5.062-1.688 2.17-4.098 2.17c-.964 0-4.9-1.602-11.809-4.82-6.893-3.207-11.712-4.812-14.443-4.812"/><path d="M222.792 44.133q-.24 0-.956.299l-.239.478q-.3.478-.538.717-.897-.537-.896-3.465 0-2.27.239-3.286 2.21-.359 4.869-1.076t3.316-.717q1.255 0 1.255.836l-.418 1.553a12.4 12.4 0 0 0-.418 3.227q0 .956.12 2.031 1.134.06 2.449.358 1.313.3 2.718 1.195 1.404.897 1.404 2.091 0 1.017-.777 1.553-.777.537-1.971.538-.3 0-1.344.389-1.047.388-1.583.388-.777 0-2.838-.807t-2.898-1.344q-.3.12-.627.388-.328.27-.508.269-.298 0-1.912-.478 0 .061-.03.358-.03.3-.06.448-.03.15-.06.358a.57.57 0 0 1-.149.329.4.4 0 0 1-.299.12q-.179 0-.388-.239a2 2 0 0 1-.358-.627q-.15-.388-.299-.747a7 7 0 0 1-.269-.777 5 5 0 0 0-.179-.538h-.717q-1.136 0-2.091-.358t-.956-1.016q0-.059.03-.179t.03-.239q.537 0 1.494.12.956.12 1.494.12h.239q-.061-.478-.239-1.344l-.298-1.434q-.12-.567-.12-.866 0-.119.239-.358.717.12 1.045.687t.568 1.583q.238 1.016.597 1.673.835 0 2.271-.478 0-.178.03-.836.027-.658.028-.897m7.468-8.185q-1.792 0-5.317 1.045t-4.66 1.045q-3.585 0-4.66-1.314 1.076-.657 1.613-.657.596 0 1.822.299 1.224.299 2.061.298 1.194 0 1.613-.239.418-.238.418-1.076 0-.179-.328-.269-.33-.09-.448-.269 0-.238.089-.358a4 4 0 0 1 .299-.329q.209-.209.329-.448.12-.18.448-.747.327-.567.538-.777a.7.7 0 0 1 .508-.209q.417 0 .418.597 0 .479-.09.986a8 8 0 0 1-.299 1.135q-.21.627-.269.986.118.3.418.299.358 0 1.045-1.375.688-1.374.688-1.971 0-.359-.389-.687t-.508-.508q.478-1.075 2.091-1.673 1.195.419 1.195 2.21 0 .597-.508 1.434-.508.838-.568 1.554.477-.06 1.315-.239.835-.18 1.672-.269t1.792-.09q1.911 0 2.21.418a2.68 2.68 0 0 1-1.314 1.254q-.774-.055-3.224-.056m-9.559 11.65q.239.597.418.956.837-.18 1.912-.657-.3-.358-.299-.956zm.896-7.887v1.076h.12l.12.06 1.075-.179q0-.477.12-1.195zm1.195 1.972q-.36.062-.777.12-.359 0-.389.06a.6.6 0 0 0-.03.239v.239q0 .12.03.418.03.3.03.418.298 0 1.136-.119zm1.493-2.509q0 .299-.089.658-.09.358-.09.597.597-.12 1.375-.269.776-.149 1.135-.209 0-.299.03-.717t.03-.657q-.538.12-1.255.329a9 9 0 0 1-1.136.268m-.179 2.27v1.314q.836-.06 2.39-.538 0-.896.06-1.375-1.316.421-2.45.599m.12 2.39v1.613a11.6 11.6 0 0 0 2.33-.657q0-1.016-.06-1.553-.3.12-1.046.299-.747.179-1.224.298m.059 2.688q0 .957.299.956.239 0 .508-.089.269-.09.717-.269a9 9 0 0 1 .867-.299q-.12-.656-.06-.956-.36.061-2.331.657m5.019-.716q0 .121.09.538.09.42.089.717 0 .3-.179.657-1.136.777-2.21.776-.06-.059-.179-.358a7 7 0 0 0-.179-.418q-.359.12-.807.418-.449.3-.747.418.238.358 1.195.747.956.39 1.494.389.358 0 .687-.149.328-.149.717-.448a4.3 4.3 0 0 1 .627-.418q.298-.12 1.165-.18.866-.059 1.314-.328.448-.27.448-.926 0-.477-1.254-.926t-2.271-.509" style="fill:#870000" transform="translate(-837.848 -33.177)scale(4.03323)"/><path d="M70.844 61.204c5.94 0 12.249 2.05 18.916 6.143q9.996 6.146 9.998 10.724.001 2.65-1.444 5.3-1.445 2.655-2.654 3.134-5.784-3.127-13.975-11.326c-5.46-5.456-9.075-10.119-10.841-13.975"/></svg>