<svg xmlns="http://www.w3.org/2000/svg" xml:space="preserve" viewBox="0 0 139.764 200"><path d="M215.204 181.189q0-2.09 1.494-3.584 1.493-1.493 3.584-1.494 1.613 0 2.928.927a4.96 4.96 0 0 1 1.852 2.419 4.95 4.95 0 0 1 1.852-2.419 4.97 4.97 0 0 1 2.928-.927q2.091 0 3.584 1.494t1.494 3.584a4.97 4.97 0 0 1-.926 2.928 4.95 4.95 0 0 1-2.42 1.852 4.95 4.95 0 0 1 2.42 1.853q.926 1.314.926 2.927 0 2.093-1.494 3.584-1.494 1.493-3.584 1.494a4.97 4.97 0 0 1-2.928-.926 4.94 4.94 0 0 1-1.852-2.42 4.95 4.95 0 0 1-1.852 2.42 4.97 4.97 0 0 1-2.928.926q-2.092 0-3.584-1.494-1.494-1.492-1.494-3.584 0-1.613.926-2.927a4.95 4.95 0 0 1 2.42-1.853 4.94 4.94 0 0 1-2.42-1.852 4.96 4.96 0 0 1-.926-2.928m2.121-2.957q-1.225 1.225-1.225 2.957 0 1.734 1.225 2.958 1.224 1.224 2.958 1.224 1.733 0 2.958-1.224t1.225-2.958q0-1.732-1.225-2.957t-2.958-1.225q-1.735.001-2.958 1.225m0 9.56q-1.225 1.225-1.225 2.958t1.225 2.958q1.224 1.225 2.958 1.225 1.733 0 2.958-1.225 1.225-1.224 1.225-2.958 0-1.733-1.225-2.958t-2.958-1.225q-1.735 0-2.958 1.225m4.69-1.823q2.21.837 3.047 3.047.836-2.21 3.047-3.047-2.211-.836-3.047-3.047-.837 2.211-3.047 3.047m4.869-7.737q-1.225 1.225-1.225 2.957 0 1.734 1.225 2.958 1.224 1.224 2.958 1.224 1.732 0 2.958-1.224 1.224-1.224 1.225-2.958 0-1.732-1.225-2.957t-2.958-1.225q-1.734.001-2.958 1.225m0 9.56q-1.225 1.225-1.225 2.958t1.225 2.958q1.224 1.225 2.958 1.225 1.732 0 2.958-1.225 1.224-1.224 1.225-2.958 0-1.733-1.225-2.958t-2.958-1.225q-1.734 0-2.958 1.225m-10.186-22.136q-1.494-1.493-1.494-3.584t1.494-3.585q1.493-1.493 3.584-1.494a4.97 4.97 0 0 1 2.928.926 4.96 4.96 0 0 1 1.852 2.42 4.96 4.96 0 0 1 1.852-2.42 4.97 4.97 0 0 1 2.928-.926q2.091 0 3.584 1.494t1.494 3.585q0 2.092-1.494 3.584-1.494 1.494-3.584 1.494a4.96 4.96 0 0 1-2.928-.926 4.94 4.94 0 0 1-1.852-2.419 4.94 4.94 0 0 1-1.852 2.419 4.96 4.96 0 0 1-2.928.926q-2.091 0-3.584-1.494m.627-6.543q-1.225 1.226-1.225 2.958t1.225 2.957q1.224 1.225 2.958 1.225 1.733 0 2.958-1.225 1.225-1.224 1.225-2.957t-1.225-2.958-2.958-1.225q-1.735.001-2.958 1.225m.657 5.259q-.986-.986-.986-2.3t.986-2.301q.986-.985 2.3-.985t2.3.985q.986.987.986 2.301t-.986 2.3q-.986.985-2.3.985t-2.3-.985m.03-1.704q.598-.118.777-.597 0-.358.149-.658a2.3 2.3 0 0 0 .209-.657l-.359-.478h-.538a2.7 2.7 0 0 0-.657 1.792v.239zm1.852.837a2 2 0 0 1-.836-.597l-.358-.18-.538.18-.18.538q.716 1.016 1.733 1.254l.478-.299v-.597zm.896-2.868.418-.06.359-.478-.179-.479a2.4 2.4 0 0 0-1.076-.239q-.598.001-1.075.239l-.179.479.358.478.418.06q.12-.06.478-.06t.478.06m-1.105.807a.86.86 0 0 0-.269.627q0 .359.269.627a.863.863 0 0 0 1.254 0 .86.86 0 0 0 .269-.627.86.86 0 0 0-.269-.627.86.86 0 0 0-1.254 0m.627.926q-.3 0-.299-.298 0-.299.299-.299t.299.299q0 .298-.299.298m1.614.358q-.718.3-1.494 1.076v.597l.478.299q1.015-.238 1.732-1.254l-.179-.538zm-.479-1.971q.06.359.209.657t.149.658l.239.418.538.179.418-.358v-.239q0-1.015-.657-1.792h-.538zm5.467-1.644q-1.225 1.226-1.225 2.958t1.225 2.957q1.224 1.225 2.958 1.225 1.732 0 2.958-1.225 1.224-1.224 1.225-2.957 0-1.732-1.225-2.958-1.226-1.225-2.958-1.225-1.734.001-2.958 1.225m.658 5.259q-.986-.986-.986-2.3t.986-2.301q.986-.985 2.3-.985t2.3.985q.986.987.986 2.301t-.986 2.3q-.986.985-2.3.985-1.315 0-2.3-.985m.029-1.704q.596-.118.777-.597 0-.358.149-.658a2.3 2.3 0 0 0 .209-.657l-.358-.478h-.538a2.7 2.7 0 0 0-.657 1.792v.239zm1.852.837a2.03 2.03 0 0 1-.836-.597l-.358-.18-.538.18-.179.538q.717 1.016 1.732 1.254l.478-.299v-.597zm.897-2.868.418-.06.358-.478-.179-.479a2.4 2.4 0 0 0-1.075-.239q-.597.001-1.076.239l-.179.479.358.478.418.06q.12-.06.478-.06.359 0 .479.06m-1.106.807a.86.86 0 0 0-.269.627q0 .359.269.627a.86.86 0 0 0 .627.269.86.86 0 0 0 .627-.269.86.86 0 0 0 .269-.627.86.86 0 0 0-.269-.627.863.863 0 0 0-1.254 0m.628.926q-.3 0-.299-.298 0-.299.299-.299t.299.299q0 .298-.299.298m1.613.358q-.717.3-1.494 1.076v.597l.478.299q1.015-.238 1.733-1.254l-.179-.538zm-.478-1.971q.06.359.209.657.15.299.15.658l.239.418.538.179.418-.358v-.239q0-1.015-.657-1.792h-.538z" style="fill:#00082d" transform="translate(-837.848 -611.503)scale(4.03323)"/><path d="M217.982 183.49q-.986-.986-.986-2.3t.986-2.3q.987-.986 2.3-.986 1.314 0 2.3.986t.986 2.3-.986 2.3-2.3.986q-1.313 0-2.3-.986m0 9.559q-.986-.985-.986-2.3t.986-2.3q.987-.986 2.3-.986 1.314 0 2.3.986t.986 2.3-.986 2.3q-.986.987-2.3.986-1.313 0-2.3-.986m.03-11.262q.598-.119.777-.598 0-.358.149-.657.149-.298.209-.658l-.359-.478h-.538a2.7 2.7 0 0 0-.657 1.792v.239zm0 9.559q.598-.119.777-.597 0-.358.149-.657a2.3 2.3 0 0 0 .209-.657l-.359-.478h-.538a2.7 2.7 0 0 0-.657 1.792v.239zm1.852-8.722a2 2 0 0 1-.836-.598l-.358-.179-.538.179-.18.538q.717 1.017 1.733 1.254l.478-.298v-.598zm0 9.559a2 2 0 0 1-.836-.598l-.358-.179-.538.179-.18.538q.717 1.017 1.733 1.255l.478-.299v-.598zm.896-12.427.418-.06.359-.479-.179-.478a2.4 2.4 0 0 0-1.076-.239q-.597 0-1.075.239l-.179.478.358.479.418.06q.12-.06.478-.06t.478.06m0 9.559.418-.06.359-.478-.179-.478a2.4 2.4 0 0 0-1.076-.239q-.597 0-1.075.239l-.179.478.358.478.418.06q.12-.06.478-.06t.478.06m-1.105-8.753a.86.86 0 0 0 0 1.254.86.86 0 0 0 .627.269.86.86 0 0 0 .627-.269.86.86 0 0 0 .269-.627.86.86 0 0 0-.269-.627.86.86 0 0 0-1.254 0m0 9.56a.86.86 0 0 0 0 1.254.863.863 0 0 0 1.254 0 .86.86 0 0 0 0-1.254.86.86 0 0 0-.627-.269.86.86 0 0 0-.627.269m.627-8.633q-.3 0-.299-.299 0-.298.299-.298t.299.298q0 .299-.299.299m0 9.559q-.3 0-.299-.299 0-.299.299-.299t.299.299q0 .3-.299.299m1.614-9.201q-.718.3-1.494 1.076v.598l.478.298q1.015-.238 1.732-1.254l-.179-.538zm0 9.559q-.718.3-1.494 1.075v.598l.478.299q1.015-.238 1.732-1.255l-.179-.538zm-.479-11.531q.06.358.209.658t.149.657l.239.418.538.179.418-.358v-.239q0-1.015-.657-1.792h-.538zm0 9.56q.06.358.209.657t.149.657l.239.418.538.179.418-.358v-.239q0-1.015-.657-1.792h-.538zm6.125-5.945q-.986-.986-.986-2.3t.986-2.3 2.3-.986 2.3.986.986 2.3-.986 2.3-2.3.986-2.3-.986m0 9.559q-.986-.985-.986-2.3t.986-2.3 2.3-.986 2.3.986.986 2.3-.986 2.3-2.3.986-2.3-.986m.029-11.262q.596-.119.777-.598 0-.358.149-.657.149-.298.209-.658l-.358-.478h-.538a2.7 2.7 0 0 0-.657 1.792v.239zm0 9.559q.596-.119.777-.597 0-.358.149-.657a2.3 2.3 0 0 0 .209-.657l-.358-.478h-.538a2.7 2.7 0 0 0-.657 1.792v.239zm1.852-8.722a2 2 0 0 1-.836-.598l-.358-.179-.538.179-.179.538q.717 1.017 1.732 1.254l.478-.298v-.598zm0 9.559a2 2 0 0 1-.836-.598l-.358-.179-.538.179-.179.538q.717 1.017 1.732 1.255l.478-.299v-.598zm.897-12.427.418-.06.358-.479-.179-.478a2.4 2.4 0 0 0-1.075-.239q-.597 0-1.076.239l-.179.478.358.479.418.06q.12-.06.478-.06.359 0 .479.06m0 9.559.418-.06.358-.478-.179-.478a2.4 2.4 0 0 0-1.075-.239q-.597 0-1.076.239l-.179.478.358.478.418.06q.12-.06.478-.06.359 0 .479.06m-1.106-8.753a.86.86 0 0 0 0 1.254q.269.27.627.269a.86.86 0 0 0 .627-.269.86.86 0 0 0 .269-.627.86.86 0 0 0-.269-.627.863.863 0 0 0-1.254 0m0 9.56a.86.86 0 0 0 0 1.254.86.86 0 0 0 .627.269.86.86 0 0 0 .627-.269.86.86 0 0 0 .269-.627.86.86 0 0 0-.269-.627.86.86 0 0 0-.627-.269.86.86 0 0 0-.627.269m.628-8.633q-.3 0-.299-.299 0-.298.299-.298t.299.298q0 .299-.299.299m0 9.559q-.3 0-.299-.299 0-.299.299-.299t.299.299q0 .3-.299.299m1.613-9.201q-.717.3-1.494 1.076v.598l.478.298q1.015-.238 1.733-1.254l-.179-.538zm0 9.559q-.717.3-1.494 1.075v.598l.478.299q1.015-.238 1.733-1.255l-.179-.538zm-.478-11.531q.06.358.209.658.15.3.15.657l.239.418.538.179.418-.358v-.239q0-1.015-.657-1.792h-.538zm0 9.56q.06.358.209.657.15.3.15.657l.239.418.538.179.418-.358v-.239q0-1.015-.657-1.792h-.538z" style="fill:#870000" transform="translate(-837.848 -611.503)scale(4.03323)"/></svg>