<svg xmlns="http://www.w3.org/2000/svg" xml:space="preserve" viewBox="0 0 139.764 200"><path d="M57.353 66.504q0-2.892-1.081-8.554c-.722-3.776-1.17-6.466-1.327-8.075-.162-1.928-1.126-4.053-2.892-6.385-1.77-2.327-2.65-4.779-2.65-7.348q-.001-6.02 1.928-8.434c2.892 0 6.102 1.408 9.64 4.215q5.301 4.217 5.303 8.555-.001 1.688-1.69 5.783c-1.125 2.735-1.686 5.062-1.686 6.99q0 4.58 2.408 8.671c2.09-1.444 6.062-4.735 11.93-9.877q8.788-7.708 12.169-9.398c4.658-2.411 10.76-3.613 18.315-3.613q2.89 0 2.891 2.891c0 1.767-.403 3.175-1.201 4.215q-1.21 1.566-2.412 1.928c-.807.242-2.17.52-4.098.843-9.317 1.605-15.343 3.134-18.069 4.578-4.017 2.089-9.482 6.909-16.387 14.459.484.641 2.09 1.407 4.82 2.287q4.096 1.326 6.505 1.327 1.204-.001 3.255-.601 2.045-.6 3.013-.601 1.683.001 3.977 1.085 2.286 1.084 2.287 3.25c0 2.255-.964 4.38-2.892 6.385-1.928 2.013-3.94 3.013-6.026 3.013-1.928 0-4.182-.242-6.748-.726-2.569-.48-4.259-.803-5.057-.964-7.228-.641-11.729-2.65-13.495-6.026q-.969 0-8.676 2.53-7.714 2.528-20.48 3.734 2.648-4.574 13.495-8.555c7.231-2.653 12.2-5.17 14.93-7.582"/><path d="M261.029 44.133q-.24 0-.956.299l-.239.478q-.3.478-.538.717-.897-.537-.896-3.465 0-2.27.239-3.286 2.21-.359 4.87-1.076 2.657-.717 3.316-.717 1.254 0 1.254.836l-.418 1.553a12.4 12.4 0 0 0-.418 3.227q0 .956.12 2.031 1.134.06 2.45.358 1.313.3 2.718 1.195 1.404.897 1.404 2.091 0 1.017-.777 1.553-.777.537-1.972.538-.3 0-1.344.389-1.047.388-1.583.388-.777 0-2.838-.807t-2.897-1.344q-.3.12-.627.388-.328.27-.508.269-.299 0-1.912-.478 0 .061-.03.358-.03.3-.06.448-.03.15-.06.358a.57.57 0 0 1-.15.329.4.4 0 0 1-.298.12q-.18 0-.389-.239a2 2 0 0 1-.358-.627q-.15-.388-.298-.747a7 7 0 0 1-.269-.777 5 5 0 0 0-.179-.538h-.717q-1.136 0-2.091-.358-.957-.358-.956-1.016 0-.059.03-.179t.029-.239q.538 0 1.494.12t1.494.12h.239a19 19 0 0 0-.239-1.344l-.299-1.434q-.12-.567-.12-.866 0-.119.239-.358.717.12 1.045.687t.568 1.583.598 1.673q.836 0 2.27-.478 0-.178.03-.836.028-.658.029-.897m7.468-8.185q-1.792 0-5.317 1.045t-4.66 1.045q-3.584 0-4.661-1.314 1.075-.657 1.614-.657.596 0 1.822.299 1.224.299 2.062.298 1.194 0 1.613-.239.418-.238.418-1.076 0-.179-.329-.269-.33-.09-.448-.269 0-.238.089-.358.09-.118.299-.329.208-.209.329-.448.119-.18.448-.747.328-.567.538-.777a.7.7 0 0 1 .508-.209q.418 0 .418.597 0 .479-.089.986a8 8 0 0 1-.299 1.135 7 7 0 0 0-.269.986q.119.3.418.299.358 0 1.045-1.375t.687-1.971q0-.359-.388-.687-.39-.329-.508-.508.478-1.075 2.091-1.673 1.195.419 1.195 2.21 0 .597-.508 1.434-.508.838-.567 1.554.477-.06 1.314-.239.837-.18 1.673-.269t1.792-.09q1.911 0 2.21.418a2.68 2.68 0 0 1-1.314 1.254q-.777-.055-3.226-.056m-9.559 11.65q.239.597.418.956.836-.18 1.912-.657-.3-.358-.299-.956zm.896-7.887v1.076h.119l.12.06 1.075-.179q0-.477.12-1.195zm1.195 1.972q-.36.062-.776.12-.36 0-.389.06a.6.6 0 0 0-.03.239v.239q0 .12.03.418.03.3.03.418.298 0 1.135-.119zm1.493-2.509q0 .299-.09.658-.09.358-.089.597.596-.12 1.374-.269.776-.149 1.135-.209 0-.299.03-.717t.03-.657q-.538.12-1.254.329a9 9 0 0 1-1.136.268m-.179 2.27v1.314q.836-.06 2.39-.538 0-.896.06-1.375-1.315.421-2.45.599m.12 2.39v1.613a11.6 11.6 0 0 0 2.33-.657q0-1.016-.06-1.553-.3.12-1.045.299-.748.179-1.225.298m.059 2.688q0 .957.299.956.239 0 .508-.089.268-.09.717-.269t.866-.299q-.12-.656-.06-.956-.357.061-2.33.657m5.019-.716q0 .121.089.538.09.42.09.717 0 .3-.179.657-1.136.777-2.211.776-.06-.059-.179-.358a7 7 0 0 0-.179-.418q-.359.12-.806.418-.449.3-.747.418.238.358 1.195.747.956.39 1.493.389.359 0 .687-.149t.717-.448.627-.418q.298-.12 1.165-.18.866-.059 1.314-.328.447-.27.448-.926 0-.477-1.254-.926t-2.27-.509" style="fill:#870000" transform="translate(-992.063 -33.177)scale(4.03323)"/></svg>