<svg xmlns="http://www.w3.org/2000/svg" xml:space="preserve" viewBox="0 0 139.764 200"><path d="M256.219 183.49q-.986-.986-.986-2.3t.986-2.3 2.3-.986q1.313 0 2.3.986t.986 2.3q0 1.314-.986 2.3t-2.3.986-2.3-.986m0 9.559q-.986-.985-.986-2.3t.986-2.3 2.3-.986q1.313 0 2.3.986t.986 2.3q0 1.314-.986 2.3-.986.987-2.3.986-1.314 0-2.3-.986m.03-11.262q.596-.119.776-.598 0-.358.15-.657.148-.298.209-.658l-.359-.478h-.537a2.7 2.7 0 0 0-.658 1.792v.239zm0 9.559q.596-.119.776-.597 0-.358.15-.657.148-.299.209-.657l-.359-.478h-.537a2.7 2.7 0 0 0-.658 1.792v.239zm1.852-8.722a2 2 0 0 1-.836-.598l-.359-.179-.538.179-.179.538q.717 1.017 1.732 1.254l.478-.298v-.598zm0 9.559a2 2 0 0 1-.836-.598l-.359-.179-.538.179-.179.538q.717 1.017 1.732 1.255l.478-.299v-.598zm.896-12.427.418-.06.358-.479-.179-.478a2.4 2.4 0 0 0-1.075-.239q-.598 0-1.075.239l-.179.478.358.479.418.06q.12-.06.479-.06.358 0 .477.06m0 9.559.418-.06.358-.478-.179-.478a2.4 2.4 0 0 0-1.075-.239q-.598 0-1.075.239l-.179.478.358.478.418.06q.12-.06.479-.06.358 0 .477.06m-1.105-8.753a.86.86 0 0 0 0 1.254q.27.27.627.269a.86.86 0 0 0 .627-.269.86.86 0 0 0 .269-.627.86.86 0 0 0-.269-.627.863.863 0 0 0-1.254 0m0 9.56a.86.86 0 0 0 0 1.254.86.86 0 0 0 1.254 0 .86.86 0 0 0 0-1.254.86.86 0 0 0-1.254 0m.628-8.633q-.3 0-.299-.299 0-.298.299-.298.298 0 .298.298 0 .299-.298.299m0 9.559q-.3 0-.299-.299 0-.299.299-.299.298 0 .298.299 0 .3-.298.299m1.612-9.201q-.717.3-1.494 1.076v.598l.478.298q1.016-.238 1.733-1.254l-.179-.538zm0 9.559q-.717.3-1.494 1.075v.598l.478.299q1.016-.238 1.733-1.255l-.179-.538zm-.477-11.531q.059.358.209.658.149.3.149.657l.24.418.537.179.418-.358v-.239q0-1.015-.657-1.792h-.538zm0 9.56q.059.358.209.657.149.3.149.657l.24.418.537.179.418-.358v-.239q0-1.015-.657-1.792h-.538zm6.123-5.945q-.985-.986-.985-2.3t.985-2.3 2.3-.986q1.313 0 2.3.986t.986 2.3q0 1.314-.986 2.3t-2.3.986q-1.313 0-2.3-.986m0 9.559q-.985-.985-.985-2.3t.985-2.3 2.3-.986q1.313 0 2.3.986t.986 2.3q0 1.314-.986 2.3-.986.987-2.3.986-1.313 0-2.3-.986m.031-11.262q.596-.119.777-.598 0-.358.149-.657.149-.298.209-.658l-.358-.478h-.538a2.7 2.7 0 0 0-.657 1.792v.239zm0 9.559q.596-.119.777-.597 0-.358.149-.657a2.3 2.3 0 0 0 .209-.657l-.358-.478h-.538a2.7 2.7 0 0 0-.657 1.792v.239zm1.852-8.722a2 2 0 0 1-.836-.598l-.358-.179-.538.179-.179.538q.717 1.017 1.733 1.254l.478-.298v-.598zm0 9.559a2 2 0 0 1-.836-.598l-.358-.179-.538.179-.179.538q.717 1.017 1.733 1.255l.478-.299v-.598zm.896-12.427.418-.06.358-.479-.179-.478a2.4 2.4 0 0 0-1.076-.239q-.597 0-1.075.239l-.179.478.358.479.418.06q.119-.06.478-.06t.479.06m0 9.559.418-.06.358-.478-.179-.478a2.4 2.4 0 0 0-1.076-.239q-.597 0-1.075.239l-.179.478.358.478.418.06q.119-.06.478-.06t.479.06m-1.106-8.753a.86.86 0 0 0 0 1.254q.27.27.627.269a.86.86 0 0 0 .627-.269.86.86 0 0 0 .269-.627.86.86 0 0 0-.269-.627.86.86 0 0 0-1.254 0m0 9.56a.86.86 0 0 0 0 1.254.86.86 0 0 0 1.254 0 .86.86 0 0 0 0-1.254.86.86 0 0 0-1.254 0m.628-8.633q-.299 0-.298-.299 0-.298.298-.298.299 0 .299.298-.001.299-.299.299m0 9.559q-.299 0-.298-.299 0-.299.298-.299.299 0 .299.299-.001.3-.299.299m1.613-9.201q-.718.3-1.494 1.076v.598l.478.298q1.015-.238 1.732-1.254l-.179-.538zm0 9.559q-.718.3-1.494 1.075v.598l.478.299q1.015-.238 1.732-1.255l-.179-.538zm-.478-11.531q.06.358.209.658.15.3.15.657l.239.418.538.179.418-.358v-.239q0-1.015-.658-1.792h-.537zm0 9.56q.06.358.209.657.15.3.15.657l.239.418.538.179.418-.358v-.239q0-1.015-.658-1.792h-.537z" style="fill:#870000" transform="translate(-992.063 -611.503)scale(4.03323)"/><path d="M253.441 181.189q0-2.09 1.494-3.584 1.493-1.493 3.585-1.494 1.612 0 2.928.927a4.96 4.96 0 0 1 1.852 2.419 4.95 4.95 0 0 1 1.852-2.419 4.97 4.97 0 0 1 2.928-.927q-1.792-1.612-1.792-3.883 0-.718.18-1.434-1.316 1.135-3.167 1.135-2.092 0-3.584-1.493-1.494-1.493-1.494-3.585 0-.717.179-1.434-1.315 1.135-3.167 1.135-2.092 0-3.585-1.493t-1.493-3.585q0-2.091 1.493-3.585t3.585-1.494q2.091 0 3.584 1.494t1.494 3.585q0 .717-.18 1.434 1.314-1.135 3.167-1.135 2.091 0 3.585 1.494t1.494 3.584q0 .717-.179 1.434 1.314-1.135 3.167-1.135 2.09 0 3.585 1.494 1.493 1.494 1.493 3.585t-1.493 3.584q-1.495 1.494-3.585 1.494 1.792 1.614 1.792 3.883a4.97 4.97 0 0 1-.926 2.928 4.96 4.96 0 0 1-2.42 1.852 4.96 4.96 0 0 1 2.42 1.853q.926 1.314.926 2.927 0 2.093-1.494 3.584-1.494 1.493-3.585 1.494a4.97 4.97 0 0 1-2.928-.926 4.95 4.95 0 0 1-1.852-2.42 4.94 4.94 0 0 1-1.852 2.42 4.97 4.97 0 0 1-2.928.926q-2.092 0-3.585-1.494-1.494-1.492-1.494-3.584 0-1.613.926-2.927a4.95 4.95 0 0 1 2.419-1.853 4.94 4.94 0 0 1-2.419-1.852 4.96 4.96 0 0 1-.926-2.929m-1.165-22.673q-1.225 1.225-1.225 2.958t1.225 2.958q1.224 1.225 2.958 1.225 1.732 0 2.958-1.225 1.224-1.224 1.225-2.958 0-1.732-1.225-2.958-1.226-1.225-2.958-1.225-1.734 0-2.958 1.225m.627 5.258q-.956-.986-.956-2.3t.956-2.3a3.12 3.12 0 0 1 2.33-.986q1.373 0 2.33.986.956.986.956 2.3t-.956 2.3a3.13 3.13 0 0 1-2.33.985 3.12 3.12 0 0 1-2.33-.985m.06-1.703q.597-.12.777-.598 0-.359.149-.657a2.3 2.3 0 0 0 .209-.657l-.359-.478h-.538a2.7 2.7 0 0 0-.657 1.792v.239zm1.852.837a2 2 0 0 1-.836-.598l-.358-.179-.538.179-.179.538q.717 1.017 1.732 1.255l.479-.299v-.598zm.896-2.868.418-.06.358-.478-.179-.478a2.4 2.4 0 0 0-1.076-.239q-.597 0-1.075.239l-.18.478.359.478.418.06q.12-.06.478-.06.359 0 .479.06m-1.105.806a.86.86 0 0 0-.269.627q0 .358.269.627.268.27.627.269a.86.86 0 0 0 .627-.269.86.86 0 0 0 .269-.627.86.86 0 0 0-.269-.627.86.86 0 0 0-1.254 0m.956 17.386q-1.224 1.225-1.224 2.957 0 1.734 1.224 2.958t2.958 1.224q1.733 0 2.957-1.224 1.225-1.224 1.225-2.958 0-1.732-1.225-2.957-1.224-1.225-2.957-1.225-1.734.001-2.958 1.225m0 9.56q-1.224 1.225-1.224 2.958t1.224 2.958 2.958 1.225 2.957-1.225q1.225-1.224 1.225-2.958 0-1.733-1.225-2.958-1.224-1.225-2.957-1.225-1.734 0-2.958 1.225m-.329-26.02q-.3 0-.299-.299 0-.299.299-.299t.299.299q0 .3-.299.299m1.614.359q-.718.3-1.494 1.075v.598l.478.299q1.016-.238 1.733-1.255l-.179-.538zm-.478-1.972q.059.358.209.657.149.3.149.657l.239.418.538.179.418-.359v-.239q0-1.015-.657-1.792h-.538zm3.973 3.734q-1.225 1.225-1.225 2.958t1.225 2.958q1.224 1.225 2.957 1.225t2.958-1.225q1.224-1.224 1.225-2.958 0-1.732-1.225-2.958-1.226-1.225-2.958-1.225t-2.957 1.225m.657 5.258q-.986-.985-.986-2.3 0-1.313.986-2.3.985-.986 2.3-.986t2.3.986.986 2.3-.986 2.3-2.3.986q-1.315 0-2.3-.986m-.747 16.818q2.21.837 3.046 3.047.836-2.21 3.047-3.047-2.21-.836-3.047-3.047-.836 2.211-3.046 3.047m.777-18.521q.596-.119.777-.598 0-.358.149-.657t.208-.657l-.358-.478h-.538a2.7 2.7 0 0 0-.658 1.792v.239zm1.852.837a2 2 0 0 1-.836-.598l-.358-.179-.538.179-.179.538q.717 1.015 1.733 1.254l.478-.299v-.598zm.896-2.868.418-.06.358-.478-.179-.479a2.4 2.4 0 0 0-1.076-.239q-.598.001-1.075.239l-.179.479.359.478.418.06q.119-.06.478-.06.358 0 .478.06m-1.106.806a.86.86 0 0 0-.268.627q0 .359.268.627a.863.863 0 0 0 1.255 0 .86.86 0 0 0 0-1.254.864.864 0 0 0-1.255 0m.628.926q-.298 0-.298-.299t.298-.299.299.299q0 .3-.299.299m1.613.359q-.718.3-1.493 1.075v.598l.478.299q1.015-.238 1.733-1.254l-.179-.538zm.21 10.724q-1.225 1.225-1.225 2.957 0 1.734 1.225 2.958 1.224 1.224 2.957 1.224t2.958-1.224 1.225-2.958q0-1.732-1.225-2.957t-2.958-1.225q-1.733.001-2.957 1.225m0 9.56q-1.225 1.226-1.225 2.958t1.225 2.958q1.224 1.225 2.957 1.225t2.958-1.225q1.225-1.224 1.225-2.958 0-1.732-1.225-2.958-1.226-1.224-2.958-1.225-1.733 0-2.957 1.225m-.687-22.256q.059.359.208.657.15.3.15.657l.239.418.538.179.418-.358v-.239a2.7 2.7 0 0 0-.658-1.792h-.537zm3.972 3.734q-1.224 1.225-1.225 2.958 0 1.733 1.225 2.957 1.224 1.225 2.958 1.225 1.732 0 2.958-1.225 1.224-1.224 1.225-2.957 0-1.733-1.225-2.958-1.225-1.223-2.958-1.224t-2.958 1.224m.628 5.258q-.957-.985-.956-2.3 0-1.314.956-2.3a3.12 3.12 0 0 1 2.33-.986q1.374 0 2.331.986.954.986.955 2.3 0 1.314-.955 2.3a3.13 3.13 0 0 1-2.331.986 3.12 3.12 0 0 1-2.33-.986m.059-1.703q.598-.12.777-.597 0-.358.149-.657.149-.298.209-.658l-.358-.478h-.538a2.7 2.7 0 0 0-.657 1.792v.239zm1.853.837a2 2 0 0 1-.837-.598l-.358-.179-.538.179-.179.538q.717 1.016 1.733 1.254l.478-.298v-.598zm.896-2.868.418-.06.358-.478-.179-.479a2.4 2.4 0 0 0-1.075-.239q-.597.001-1.076.239l-.179.479.358.478.418.06q.12-.06.478-.06.359 0 .479.06m-1.106.807a.86.86 0 0 0-.269.627q0 .358.269.627a.86.86 0 0 0 1.254 0 .86.86 0 0 0 .269-.627.86.86 0 0 0-.269-.627.86.86 0 0 0-.627-.269.86.86 0 0 0-.627.269m.628.925q-.3 0-.299-.298 0-.299.299-.299t.299.299q-.001.298-.299.298m1.613.359q-.718.3-1.494 1.076v.598l.479.298q1.015-.238 1.733-1.254l-.18-.538zm-.478-1.972q.059.358.209.658.149.3.149.657l.239.418.537.179.418-.358v-.239q0-1.015-.657-1.792h-.538z" style="fill:#00082d" transform="translate(-992.063 -611.503)scale(4.03323)"/></svg>