<svg xmlns="http://www.w3.org/2000/svg" xml:space="preserve" viewBox="0 0 139.764 200"><path d="M259.834 85.059q0-1.254 3.465-1.254 3.466 0 3.466 1.254 0 1.017-1.494 1.792v1.972q1.494.478 1.494 1.434t-1.494 1.434v1.972q1.494.778 1.494 1.792 0 1.254-3.466 1.255-3.465 0-3.465-1.255 0-1.015 1.494-1.792V91.69q-1.495-.477-1.494-1.434 0-.956 1.494-1.434V86.85q-1.495-.774-1.494-1.791m2.569 0v3.465q.297-.06.896-.06.597 0 .896.06v-3.465q-.3-.06-.896-.06-.598 0-.896.06m0 6.333q.178 0 .478.03.298.03.418.03t.418-.03.478-.03v-2.271q-.18 0-.478-.03-.3-.03-.418-.03-.12 0-.418.03-.299.03-.478.03zm1.792 4.063V91.99q-.3.06-.896.06t-.896-.06v3.465q.297.06.896.06.596 0 .896-.06" style="fill:#870000" transform="translate(-992.043 -322.33)scale(4.03315)"/><path d="M250.454 99.517q0-1.254 3.465-1.254t3.465 1.254q0 1.017-1.494 1.792v1.972q1.493.478 1.494 1.434t-1.494 1.434v1.972q1.493.778 1.494 1.792 0 1.254-3.465 1.255-3.466 0-3.465-1.255 0-1.015 1.494-1.792v-1.972q-1.495-.477-1.494-1.434 0-.956 1.494-1.434v-1.972q-1.495-.775-1.494-1.792m0 14.459q0-1.254 3.465-1.254t3.465 1.254q0 1.017-1.494 1.792v1.972q1.493.479 1.494 1.434 0 .956-1.494 1.434v1.972q1.493.777 1.494 1.792 0 1.255-3.465 1.255-3.466 0-3.465-1.255 0-1.017 1.494-1.792v-1.972q-1.495-.477-1.494-1.434 0-.955 1.494-1.434v-1.972q-1.495-.776-1.494-1.792m2.569-14.459v3.465q.299-.06.896-.06.596 0 .896.06v-3.465q-.3-.06-.896-.06-.597.002-.896.06m0 6.334q.118 0 .418.03.298.03.478.03.179 0 .478-.03.298-.03.418-.03v-2.271q-.12 0-.418-.03-.299-.03-.478-.03-.18 0-.478.03-.3.03-.418.03zm1.792 4.062v-3.465q-.3.06-.896.06t-.896-.06v3.465q.299.06.896.06.596 0 .896-.06m-1.792 4.063v3.465q.299-.06.896-.06.596 0 .896.06v-3.465q-.3-.06-.896-.06t-.896.06m0 6.333q.118 0 .418.03.298.03.478.03.179 0 .478-.03.298-.03.418-.03v-2.27q-.12 0-.418-.03-.299-.03-.478-.03-.18 0-.478.03-.3.03-.418.03zm1.792 4.063v-3.465q-.3.06-.896.06t-.896-.06v3.465q.299.06.896.06.596-.002.896-.06m5.019-24.855q0-1.254 3.465-1.254 3.466 0 3.466 1.254 0 1.017-1.494 1.792v1.972q1.494.478 1.494 1.434t-1.494 1.434v1.972q1.494.778 1.494 1.792 0 1.254-3.466 1.255-3.465 0-3.465-1.255 0-1.015 1.494-1.792v-1.972q-1.495-.477-1.494-1.434 0-.956 1.494-1.434v-1.972q-1.495-.775-1.494-1.792m0 14.459q0-1.254 3.465-1.254 3.466 0 3.466 1.254 0 1.017-1.494 1.792v1.972q1.494.479 1.494 1.434 0 .956-1.494 1.434v1.972q1.494.777 1.494 1.792 0 1.255-3.466 1.255-3.465 0-3.465-1.255 0-1.017 1.494-1.792v-1.972q-1.495-.477-1.494-1.434 0-.955 1.494-1.434v-1.972q-1.495-.776-1.494-1.792m2.569-14.459v3.465q.297-.06.896-.06.597 0 .896.06v-3.465q-.3-.06-.896-.06-.598.002-.896.06m0 6.334q.178 0 .478.03.298.03.418.03t.418-.03.478-.03v-2.271q-.18 0-.478-.03-.3-.03-.418-.03-.12 0-.418.03-.299.03-.478.03zm1.792 4.062v-3.465q-.3.06-.896.06t-.896-.06v3.465q.297.06.896.06.596 0 .896-.06m-1.792 4.063v3.465q.297-.06.896-.06.597 0 .896.06v-3.465q-.3-.06-.896-.06-.598 0-.896.06m0 6.333q.178 0 .478.03.298.03.418.03t.418-.03.478-.03v-2.27q-.18 0-.478-.03-.3-.03-.418-.03-.12 0-.418.03-.299.03-.478.03zm1.792 4.063v-3.465q-.3.06-.896.06t-.896-.06v3.465q.297.06.896.06.596-.002.896-.06m5.019-24.855q0-1.254 3.465-1.254t3.465 1.254q0 1.017-1.494 1.792v1.972q1.494.478 1.494 1.434t-1.494 1.434v1.972q1.494.778 1.494 1.792 0 1.254-3.465 1.255-3.466 0-3.465-1.255 0-1.015 1.494-1.792v-1.972q-1.494-.477-1.494-1.434 0-.956 1.494-1.434v-1.972q-1.495-.775-1.494-1.792m0 14.459q0-1.254 3.465-1.254t3.465 1.254q0 1.017-1.494 1.792v1.972q1.494.479 1.494 1.434 0 .956-1.494 1.434v1.972q1.494.777 1.494 1.792 0 1.255-3.465 1.255-3.466 0-3.465-1.255 0-1.017 1.494-1.792v-1.972q-1.494-.477-1.494-1.434 0-.955 1.494-1.434v-1.972q-1.495-.776-1.494-1.792m2.569-14.459v3.465q.299-.06.896-.06.596 0 .896.06v-3.465a5 5 0 0 0-.896-.06q-.597.002-.896.06m0 6.334q.118 0 .418.03.298.03.478.03.179 0 .478-.03.298-.03.418-.03v-2.271q-.12 0-.418-.03-.299-.03-.478-.03-.18 0-.478.03-.3.03-.418.03zm1.792 4.062v-3.465q-.3.06-.896.06t-.896-.06v3.465q.299.06.896.06t.896-.06m-1.792 4.063v3.465q.299-.06.896-.06.596 0 .896.06v-3.465a5 5 0 0 0-.896-.06q-.597 0-.896.06m0 6.333q.118 0 .418.03.298.03.478.03.179 0 .478-.03.298-.03.418-.03v-2.27q-.12 0-.418-.03-.299-.03-.478-.03-.18 0-.478.03-.3.03-.418.03zm1.792 4.063v-3.465q-.3.06-.896.06t-.896-.06v3.465q.299.06.896.06.597-.002.896-.06" style="fill:#133f00" transform="translate(-992.043 -322.33)scale(4.03315)"/></svg>