<svg xmlns="http://www.w3.org/2000/svg" xml:space="preserve" viewBox="0 0 139.764 200"><path d="M21.933 85.06c1.282-1.12 4.013-2.609 8.191-4.456a43.7 43.7 0 0 0 11.326-7.227c3.371-2.973 5.783-7.026 7.227-12.169q1.445-.483 2.17-.484c2.73 0 5.183.964 7.349 2.892q3.255 2.893 3.254 6.264 0 1.208-.843 2.17-.846.966-1.685 1.444-.848.483-2.771 1.201-1.93.727-2.408.964-6.994 3.62-16.867 6.627c-6.59 2.013-11.172 3.013-13.737 3.013q-.724.002-1.206-.238M53.5 40.724q3.369-5.784 8.914-5.784c2.086 0 4.255 1.17 6.506 3.497q3.368 3.494 7.47 8.913c2.73 3.614 5.218 6.227 7.473 7.833q4.092 2.892 12.773 6.505a1373 1373 0 0 1 14.818 6.268c4.098 1.767 6.224 3.13 6.385 4.098q-3.859.966-4.578.964c-6.586 0-13.898-1.04-21.928-3.134-8.035-2.085-13.177-4.098-15.423-6.026-3.376-3.049-6.667-6.626-9.882-10.724q-4.822-6.146-6.505-7.829-.964-.96-3.251-2.29-2.293-1.328-2.771-2.291"/><path d="M299.266 44.133q-.24 0-.956.299l-.239.478q-.3.478-.538.717-.896-.537-.896-3.465 0-2.27.239-3.286 2.21-.359 4.869-1.076 2.657-.717 3.316-.717 1.254 0 1.254.836l-.418 1.553a12.4 12.4 0 0 0-.418 3.227q0 .956.12 2.031 1.134.06 2.45.358 1.313.3 2.718 1.195 1.404.897 1.404 2.091 0 1.017-.777 1.553-.777.537-1.972.538-.3 0-1.344.389-1.046.388-1.583.388-.777 0-2.838-.807t-2.897-1.344q-.3.12-.627.388-.328.27-.508.269-.299 0-1.912-.478 0 .061-.03.358-.03.3-.06.448-.03.15-.06.358a.57.57 0 0 1-.15.329.4.4 0 0 1-.298.12q-.18 0-.389-.239a2 2 0 0 1-.358-.627q-.15-.388-.298-.747a7 7 0 0 1-.269-.777 5 5 0 0 0-.179-.538h-.717q-1.136 0-2.091-.358-.957-.358-.956-1.016 0-.059.03-.179t.029-.239q.538 0 1.494.12t1.494.12h.239a19 19 0 0 0-.239-1.344l-.299-1.434q-.12-.567-.12-.866 0-.119.239-.358.717.12 1.045.687t.568 1.583.598 1.673q.836 0 2.27-.478 0-.178.03-.836t.03-.897m7.468-8.185q-1.792 0-5.317 1.045t-4.66 1.045q-3.584 0-4.661-1.314 1.076-.657 1.614-.657.596 0 1.822.299 1.224.299 2.062.298 1.194 0 1.613-.239.418-.238.418-1.076 0-.179-.329-.269-.33-.09-.448-.269 0-.238.089-.358.09-.118.299-.329.208-.209.329-.448.119-.18.448-.747.328-.567.538-.777a.7.7 0 0 1 .508-.209q.418 0 .418.597 0 .479-.089.986a8 8 0 0 1-.299 1.135 7 7 0 0 0-.269.986q.119.3.418.299.358 0 1.045-1.375t.687-1.971q0-.359-.388-.687-.39-.329-.508-.508.478-1.075 2.091-1.673 1.194.419 1.195 2.21 0 .597-.508 1.434-.508.838-.567 1.554.477-.06 1.314-.239.836-.18 1.673-.269.836-.09 1.792-.09 1.911 0 2.21.418a2.68 2.68 0 0 1-1.314 1.254q-.777-.055-3.226-.056m-9.559 11.65q.239.597.418.956.836-.18 1.912-.657-.3-.358-.299-.956zm.896-7.887v1.076h.119l.12.06 1.075-.179q0-.477.12-1.195zm1.195 1.972q-.36.062-.776.12-.36 0-.389.06a.6.6 0 0 0-.03.239v.239q0 .12.03.418.03.3.03.418.298 0 1.135-.119zm1.494-2.509q0 .299-.09.658-.09.358-.089.597.596-.12 1.374-.269.776-.149 1.135-.209 0-.299.03-.717t.03-.657q-.538.12-1.254.329a9 9 0 0 1-1.136.268m-.179 2.27v1.314q.836-.06 2.39-.538 0-.896.06-1.375-1.317.421-2.45.599m.119 2.39v1.613a11.6 11.6 0 0 0 2.33-.657q0-1.016-.06-1.553-.3.12-1.045.299-.748.179-1.225.298m.06 2.688q0 .957.299.956.239 0 .508-.089.268-.09.717-.269t.866-.299q-.12-.656-.06-.956-.359.061-2.33.657m5.018-.716q0 .121.089.538.09.42.09.717 0 .3-.179.657-1.136.777-2.211.776-.06-.059-.179-.358a7 7 0 0 0-.179-.418q-.359.12-.806.418-.448.3-.747.418.238.358 1.195.747.956.39 1.493.389.358 0 .687-.149t.717-.448.627-.418q.298-.12 1.165-.18.866-.059 1.314-.328.447-.27.448-.926 0-.477-1.254-.926t-2.27-.509" style="fill:#870000" transform="translate(-1146.281 -33.177)scale(4.03323)"/></svg>