<svg xmlns="http://www.w3.org/2000/svg" xml:space="preserve" viewBox="0 0 139.764 200"><path d="M291.678 162.071q0-2.091 1.494-3.585t3.585-1.494q1.613 0 2.928.926a4.97 4.97 0 0 1 1.852 2.42 4.96 4.96 0 0 1 1.852-2.42 4.97 4.97 0 0 1 2.928-.926q2.091 0 3.585 1.494t1.494 3.585a4.97 4.97 0 0 1-.926 2.927 4.96 4.96 0 0 1-2.42 1.852 4.96 4.96 0 0 1 2.42 1.852q.926 1.314.926 2.928a4.97 4.97 0 0 1-.926 2.928 4.96 4.96 0 0 1-2.42 1.852 4.96 4.96 0 0 1 2.42 1.852q.926 1.316.926 2.928a4.97 4.97 0 0 1-.926 2.928 4.96 4.96 0 0 1-2.42 1.852 4.96 4.96 0 0 1 2.42 1.853q.926 1.314.926 2.927 0 2.093-1.494 3.584-1.494 1.493-3.585 1.494a4.97 4.97 0 0 1-2.928-.926 4.95 4.95 0 0 1-1.852-2.42 4.94 4.94 0 0 1-1.852 2.42 4.97 4.97 0 0 1-2.928.926q-2.092 0-3.585-1.494-1.494-1.492-1.494-3.584 0-1.613.926-2.927a4.95 4.95 0 0 1 2.419-1.853 4.94 4.94 0 0 1-2.419-1.852 4.96 4.96 0 0 1-.926-2.928q0-1.612.926-2.928a4.96 4.96 0 0 1 2.419-1.852 4.95 4.95 0 0 1-2.419-1.852 4.96 4.96 0 0 1-.926-2.928q0-1.613.926-2.928a4.95 4.95 0 0 1 2.419-1.852 4.94 4.94 0 0 1-2.419-1.852 4.96 4.96 0 0 1-.926-2.927m2.121-2.958q-1.224 1.226-1.224 2.958t1.224 2.957 2.958 1.225q1.733 0 2.957-1.225 1.224-1.224 1.225-2.957 0-1.732-1.225-2.958-1.224-1.225-2.957-1.225-1.734.001-2.958 1.225m0 9.56q-1.224 1.226-1.224 2.958 0 1.734 1.224 2.957 1.224 1.225 2.958 1.225 1.733 0 2.957-1.225 1.224-1.223 1.225-2.957 0-1.732-1.225-2.958-1.224-1.224-2.957-1.225-1.734 0-2.958 1.225m0 9.559q-1.224 1.225-1.224 2.957 0 1.734 1.224 2.958t2.958 1.224q1.733 0 2.957-1.224t1.225-2.958q0-1.732-1.225-2.957-1.224-1.225-2.957-1.225-1.734.001-2.958 1.225m0 9.56q-1.224 1.225-1.224 2.958t1.224 2.958 2.958 1.225q1.733 0 2.957-1.225 1.224-1.224 1.225-2.958 0-1.733-1.225-2.958-1.224-1.225-2.957-1.225-1.734 0-2.958 1.225m.658-23.42q-.986-.986-.986-2.3t.986-2.301q.986-.985 2.3-.985t2.3.985q.986.987.986 2.301t-.986 2.3q-.987.985-2.3.985-1.315 0-2.3-.985m0 9.559q-.986-.986-.986-2.3t.986-2.3 2.3-.986q1.313 0 2.3.986.986.987.986 2.3 0 1.314-.986 2.3-.987.985-2.3.985-1.315 0-2.3-.985m0 9.559q-.986-.986-.986-2.3t.986-2.3 2.3-.986q1.313 0 2.3.986t.986 2.3q0 1.314-.986 2.3-.987.986-2.3.986-1.315 0-2.3-.986m0 9.559q-.986-.985-.986-2.3t.986-2.3 2.3-.986q1.313 0 2.3.986t.986 2.3q0 1.314-.986 2.3-.987.987-2.3.986-1.315 0-2.3-.986m.029-30.381q.596-.118.776-.597 0-.358.15-.658.148-.298.209-.657l-.359-.478h-.537a2.7 2.7 0 0 0-.658 1.792v.239zm0 9.56q.596-.119.776-.598 0-.358.15-.657.148-.299.209-.657l-.359-.478h-.537a2.7 2.7 0 0 0-.658 1.792v.239zm0 9.559q.596-.119.776-.598 0-.358.15-.657.148-.298.209-.658l-.359-.478h-.537a2.7 2.7 0 0 0-.658 1.792v.239zm0 9.559q.596-.119.776-.597 0-.358.15-.657.148-.299.209-.657l-.359-.478h-.537a2.7 2.7 0 0 0-.658 1.792v.239zm1.852-27.841a2.03 2.03 0 0 1-.836-.597l-.359-.18-.538.18-.179.538q.717 1.016 1.732 1.254l.478-.299v-.597zm0 9.559a2.03 2.03 0 0 1-.836-.597l-.359-.179-.538.179-.179.538q.717 1.017 1.732 1.255l.478-.299v-.597zm0 9.56a2 2 0 0 1-.836-.598l-.359-.179-.538.179-.179.538q.717 1.017 1.732 1.254l.478-.298v-.598zm0 9.559a2 2 0 0 1-.836-.598l-.359-.179-.538.179-.179.538q.717 1.017 1.732 1.255l.478-.299v-.598zm.896-31.546.418-.06.358-.478-.179-.479a2.4 2.4 0 0 0-1.075-.239q-.598.001-1.075.239l-.179.479.358.478.418.06q.119-.06.478-.06t.478.06m0 9.56.418-.06.358-.478-.179-.478a2.4 2.4 0 0 0-1.075-.239q-.598.001-1.075.239l-.179.478.358.478.418.06q.119-.06.478-.06t.478.06m0 9.559.418-.06.358-.479-.179-.478a2.4 2.4 0 0 0-1.075-.239q-.598 0-1.075.239l-.179.478.358.479.418.06q.119-.06.478-.06t.478.06m0 9.559.418-.06.358-.478-.179-.478a2.4 2.4 0 0 0-1.075-.239q-.598 0-1.075.239l-.179.478.358.478.418.06q.119-.06.478-.06t.478.06m-1.105-27.871a.86.86 0 0 0-.269.627q0 .359.269.627a.86.86 0 0 0 1.254 0 .86.86 0 0 0 .269-.627.86.86 0 0 0-.269-.627.863.863 0 0 0-1.254 0m0 9.559a.86.86 0 0 0 0 1.254.86.86 0 0 0 1.254 0 .86.86 0 0 0 0-1.254.863.863 0 0 0-1.254 0m0 9.559a.86.86 0 0 0 0 1.254q.27.27.627.269a.86.86 0 0 0 .627-.269.86.86 0 0 0 .269-.627.86.86 0 0 0-.269-.627.863.863 0 0 0-1.254 0m0 9.56a.86.86 0 0 0 0 1.254.86.86 0 0 0 1.254 0 .86.86 0 0 0 0-1.254.86.86 0 0 0-1.254 0m.628-27.752q-.3 0-.299-.298 0-.299.299-.299.298 0 .298.299 0 .298-.298.298m0 9.559q-.3 0-.299-.298 0-.299.299-.299.298 0 .298.299 0 .298-.298.298m0 9.56q-.3 0-.299-.299 0-.298.299-.298.298 0 .298.298 0 .299-.298.299m0 9.559q-.3 0-.299-.299 0-.299.299-.299.298 0 .298.299 0 .3-.298.299m1.613-28.32q-.717.3-1.493 1.076v.597l.478.299q1.016-.238 1.733-1.254l-.179-.538zm0 9.56q-.717.3-1.493 1.076v.597l.478.299q1.016-.238 1.733-1.255l-.179-.538zm0 9.559q-.717.3-1.493 1.076v.598l.478.298q1.016-.238 1.733-1.254l-.179-.538zm0 9.559q-.717.3-1.493 1.075v.598l.478.299q1.016-.238 1.733-1.255l-.179-.538zm-.478-30.649q.059.359.209.657.149.299.149.658l.24.418.537.179.418-.358v-.239q0-1.015-.657-1.792h-.538zm0 9.559q.059.358.209.657.149.3.149.657l.24.418.537.18.418-.359v-.239q0-1.015-.657-1.792h-.538zm0 9.559q.059.358.209.658.149.3.149.657l.24.418.537.179.418-.358v-.239q0-1.015-.657-1.792h-.538zm0 9.56q.059.358.209.657.149.3.149.657l.24.418.537.179.418-.358v-.239q0-1.015-.657-1.792h-.538zm.598-22.584q2.21.838 3.046 3.047.837-2.209 3.047-3.047-2.21-.836-3.047-3.047-.838 2.21-3.046 3.047m6.093 9.559q-2.21-.837-3.047-3.047-.838 2.21-3.046 3.047 2.21.837 3.046 3.047.837-2.21 3.047-3.047m-6.093 9.559q2.21.837 3.046 3.047.837-2.21 3.047-3.047-2.21-.836-3.047-3.047-.838 2.211-3.046 3.047m4.869-26.856q-1.225 1.226-1.225 2.958t1.225 2.957q1.223 1.225 2.957 1.225t2.958-1.225q1.224-1.224 1.225-2.957 0-1.732-1.225-2.958-1.225-1.225-2.958-1.225-1.734.001-2.957 1.225m0 9.56q-1.225 1.225-1.225 2.958t1.225 2.957q1.223 1.225 2.957 1.225t2.958-1.225q1.224-1.224 1.225-2.957 0-1.733-1.225-2.958-1.225-1.224-2.958-1.225-1.734 0-2.957 1.225m0 9.559q-1.225 1.225-1.225 2.957 0 1.734 1.225 2.958 1.223 1.224 2.957 1.224t2.958-1.224 1.225-2.958q0-1.732-1.225-2.957t-2.958-1.225q-1.734.001-2.957 1.225m0 9.56q-1.225 1.226-1.225 2.958t1.225 2.958q1.223 1.224 2.957 1.225 1.733 0 2.958-1.225 1.224-1.224 1.225-2.958 0-1.732-1.225-2.958-1.225-1.225-2.958-1.225t-2.957 1.225m.657-23.42q-.985-.986-.985-2.3t.985-2.301q.986-.985 2.3-.985t2.3.985q.986.987.986 2.301t-.986 2.3q-.986.985-2.3.985-1.315 0-2.3-.985m0 9.559q-.985-.986-.985-2.3t.985-2.3 2.3-.986q1.313 0 2.3.986.986.987.986 2.3 0 1.314-.986 2.3t-2.3.985q-1.315 0-2.3-.985m0 9.559q-.985-.986-.985-2.3t.985-2.3 2.3-.986q1.313 0 2.3.986t.986 2.3q0 1.314-.986 2.3-.986.987-2.3.986-1.315 0-2.3-.986m0 9.559q-.985-.985-.985-2.3t.985-2.3 2.3-.986q1.313 0 2.3.986t.986 2.3q0 1.314-.986 2.3t-2.3.986-2.3-.986m.03-30.381q.596-.118.777-.597 0-.358.149-.658a2.3 2.3 0 0 0 .209-.657l-.358-.478h-.538a2.7 2.7 0 0 0-.657 1.792v.239zm0 9.56q.596-.119.777-.598 0-.358.149-.657a2.3 2.3 0 0 0 .209-.657l-.358-.478h-.538a2.7 2.7 0 0 0-.657 1.792v.239zm0 9.559q.596-.119.777-.598 0-.358.149-.657.149-.298.209-.658l-.358-.478h-.538a2.7 2.7 0 0 0-.657 1.792v.239zm0 9.559q.596-.118.777-.597 0-.359.149-.657a2.3 2.3 0 0 0 .209-.657l-.358-.478h-.538a2.7 2.7 0 0 0-.657 1.792v.239zm1.852-27.841a2 2 0 0 1-.836-.597l-.358-.18-.538.18-.179.538q.716 1.016 1.733 1.254l.478-.299v-.597zm0 9.559a2 2 0 0 1-.836-.597l-.358-.179-.538.179-.179.538q.716 1.017 1.733 1.255l.478-.299v-.597zm0 9.56a2 2 0 0 1-.836-.598l-.358-.179-.538.179-.179.538q.716 1.017 1.733 1.254l.478-.298v-.598zm0 9.559a2 2 0 0 1-.836-.598l-.358-.179-.538.179-.179.538q.716 1.017 1.733 1.255l.478-.299v-.598zm.896-31.546.418-.06.358-.478-.179-.479a2.4 2.4 0 0 0-1.076-.239q-.598.001-1.075.239l-.179.479.358.478.418.06q.119-.06.478-.06t.479.06m0 9.56.418-.06.358-.478-.179-.478a2.4 2.4 0 0 0-1.076-.239q-.598.001-1.075.239l-.179.478.358.478.418.06q.119-.06.478-.06t.479.06m0 9.559.418-.06.358-.479-.179-.478a2.4 2.4 0 0 0-1.076-.239q-.598 0-1.075.239l-.179.478.358.479.418.06q.119-.06.478-.06t.479.06m0 9.559.418-.06.358-.478-.179-.478a2.4 2.4 0 0 0-1.076-.239q-.598 0-1.075.239l-.179.478.358.478.418.06q.119-.06.478-.06t.479.06m-1.106-27.871a.86.86 0 0 0-.269.627q0 .359.269.627a.86.86 0 0 0 1.254 0 .86.86 0 0 0 .269-.627.86.86 0 0 0-.269-.627.86.86 0 0 0-1.254 0m0 9.559a.86.86 0 0 0 0 1.254.86.86 0 0 0 1.254 0 .86.86 0 0 0 0-1.254.86.86 0 0 0-1.254 0m0 9.559a.86.86 0 0 0 0 1.254q.27.27.627.269a.86.86 0 0 0 .627-.269.86.86 0 0 0 .269-.627.86.86 0 0 0-.269-.627.86.86 0 0 0-1.254 0m0 9.56a.86.86 0 0 0 0 1.254.86.86 0 0 0 1.254 0 .86.86 0 0 0 0-1.254.86.86 0 0 0-1.254 0m.628-27.752q-.299 0-.298-.298 0-.299.298-.299.299 0 .299.299 0 .298-.299.298m0 9.559q-.299 0-.298-.298 0-.299.298-.299.299 0 .299.299 0 .298-.299.298m0 9.56q-.299 0-.298-.299 0-.298.298-.298.299 0 .299.298 0 .299-.299.299m0 9.559q-.299 0-.298-.299 0-.299.298-.299.299 0 .299.299 0 .3-.299.299m1.613-28.32q-.718.3-1.494 1.076v.597l.478.299q1.016-.238 1.732-1.254l-.179-.538zm0 9.56q-.718.3-1.494 1.076v.597l.478.299q1.016-.238 1.732-1.255l-.179-.538zm0 9.559q-.718.3-1.494 1.076v.598l.478.298q1.016-.239 1.732-1.254l-.179-.538zm0 9.559q-.718.3-1.494 1.075v.598l.478.299q1.016-.238 1.732-1.255l-.179-.538zm-.478-30.649q.06.359.209.657.15.299.15.658l.239.418.538.179.418-.358v-.239q0-1.015-.658-1.792h-.537zm0 9.559q.06.358.209.657.15.3.15.657l.239.418.538.18.418-.359v-.239q0-1.015-.658-1.792h-.537zm0 9.559q.06.358.209.658.15.3.15.657l.239.418.538.179.418-.358v-.239q0-1.015-.658-1.792h-.537zm0 9.56q.06.358.209.657.15.3.15.657l.239.418.538.179.418-.358v-.239q0-1.015-.658-1.792h-.537z" style="fill:#00082d" transform="translate(-1146.281 -611.503)scale(4.03323)"/></svg>