<svg xmlns="http://www.w3.org/2000/svg" xml:space="preserve" viewBox="0 0 139.764 200"><path d="M304.882 92.945q.955-.418 1.494.12.596.597.119 1.494l2.21 2.21v-1.076q-1.493-.477-1.493-1.434 0-.956 1.493-1.434v-3.764q-1.493-.777-1.493-1.792 0-1.254 3.584-1.255t3.585 1.255q0 1.017-1.494 1.792v3.764q1.494.478 1.494 1.434 0 .957-1.494 1.434v3.764q1.494.778 1.494 1.792 0 1.254-3.585 1.254t-3.584-1.254q0-.537.598-1.135l-3.406-3.405q-.956.418-1.494-.12-.599-.597-.12-1.494l-1.255-1.255-1.254 1.255q.418.895-.12 1.434-.597.597-1.493.179l-3.406 3.405q.598.597.598 1.135 0 1.254-3.584 1.254t-3.585-1.254q0-1.015 1.494-1.792v-3.764q-1.495-.477-1.494-1.434 0-.956 1.494-1.434V89.06q-1.495-.777-1.494-1.792 0-1.255 3.585-1.255t3.584 1.255q0 1.017-1.493 1.792v3.764q1.493.478 1.493 1.434 0 .957-1.493 1.434v1.076l2.21-2.21q-.479-.896.12-1.494.537-.538 1.493-.12l1.375-1.314q-.478-.656-.478-1.314 0-1.135 1.016-1.135.835 0 1.434.538a2.07 2.07 0 0 1 1.434-.538q1.016 0 1.016 1.135 0 .658-.478 1.314zm-6.692 23.54q-.956.418-1.493-.119-.599-.597-.12-1.494l-2.21-2.21v1.075q1.493.478 1.493 1.434t-1.493 1.434v3.764q1.493.777 1.493 1.792 0 1.254-3.584 1.254t-3.585-1.254q0-1.015 1.494-1.792v-3.764q-1.495-.477-1.494-1.434 0-.956 1.494-1.434v-3.764q-1.495-.777-1.494-1.792 0-1.255 3.585-1.255t3.584 1.255q0 .538-.598 1.135l3.406 3.406q.956-.418 1.493.12.597.597.12 1.494l1.254 1.254 1.255-1.254q-.418-.897.12-1.434.597-.596 1.494-.179l3.406-3.406q-.598-.596-.598-1.135 0-1.255 3.584-1.255t3.585 1.255q0 1.017-1.494 1.792v3.764q1.494.478 1.494 1.434t-1.494 1.434v3.764q1.494.777 1.494 1.792 0 1.254-3.585 1.254t-3.584-1.254q0-1.015 1.493-1.792v-3.764q-1.493-.477-1.493-1.434 0-.956 1.493-1.434v-1.075l-2.21 2.21q.477.896-.119 1.494-.538.537-1.494.119l-1.375 1.315q.477.657.478 1.314 0 1.135-1.016 1.135a2.07 2.07 0 0 1-1.434-.538 2.07 2.07 0 0 1-1.434.538q-1.017 0-1.016-1.135 0-.656.478-1.314zm-6.81-29.215v5.258q.299-.06.896-.06.596 0 .896.06V87.27a5 5 0 0 0-.896-.06q-.598 0-.896.06m0 8.125q.118 0 .418.03.298.03.478.03.179 0 .478-.03.298-.03.418-.03v-2.27q-.12 0-.418-.03-.299-.03-.478-.03-.18 0-.478.03-.3.03-.418.03zm1.792 5.855v-5.258q-.3.06-.896.06t-.896-.06v5.258q.299.06.896.06.596 0 .896-.06m-1.792 6.931v5.257q.299-.06.896-.06.596 0 .896.06v-5.257q-.3-.06-.896-.06-.598 0-.896.06m1.792 5.855q-.12 0-.418-.03-.299-.03-.478-.03-.18 0-.478.03-.3.03-.418.03v2.271q.118 0 .418.03.298.03.478.03.179 0 .478-.03.298-.03.418-.03zm0 8.125v-5.258q-.3.06-.896.06t-.896-.06v5.258q.299.06.896.06.596 0 .896-.06m4.78-25.99a2.8 2.8 0 0 1-.836-.836l-2.748 2.688v1.434l.179.12zm-.837 17.924q.358-.537.836-.836l-3.405-3.406-.179.12v1.434zm.419-19.178q.059.06.149.179.09.12.209.239.118.12.239.209.12.09.239.209l1.016-1.016a2 2 0 0 1-.208-.239 3 3 0 0 0-.209-.239l-.179-.179a1 1 0 0 0-.239-.18zm.836 18.76q-.12.12-.239.209-.121.09-.239.209-.12.06-.15.12t-.089.149q-.06.09-.119.149l1.016 1.016a1 1 0 0 0 .239-.179l.179-.179q.12-.12.209-.239.09-.119.208-.239zm4.899-19.358q.478-.597.836-.836l-1.972-2.031v-1.314a2 2 0 0 0-.598-.12q-.24 0-.597.12v1.314l-1.972 2.031q.358.24.836.836l1.732-1.732zm-3.465 20.792q-.479.599-.836.836l1.972 2.031v1.315q.358.12.597.119.239 0 .598-.119v-1.315l1.972-2.031q-.359-.239-.836-.836l-1.733 1.733zm4.899-19.358q.119-.119.239-.209t.239-.209q.12-.059.15-.119t.089-.149a1 1 0 0 1 .119-.149l-1.016-1.016a1 1 0 0 0-.239.18l-.179.179q-.12.12-.209.239-.09.121-.209.239zm.836 18.761a2 2 0 0 1-.149-.179 2.4 2.4 0 0 0-.448-.448 2 2 0 0 1-.239-.209l-1.016 1.016q.119.12.209.239.089.121.209.239l.179.179q.12.12.239.179zm.419-19.179a2.8 2.8 0 0 1-.836.836l3.405 3.406.179-.12v-1.434zm-.837 17.924q.478.3.836.836l2.748-2.688v-1.434l-.179-.12zm4.78-25.989v5.258q.299-.06.896-.06t.896.06V87.27q-.3-.06-.896-.06-.598 0-.896.06m0 8.125q.118 0 .418.03.298.03.478.03.179 0 .478-.03.298-.03.418-.03v-2.27q-.12 0-.418-.03-.299-.03-.478-.03-.18 0-.478.03-.3.03-.418.03zm1.792 5.855v-5.258q-.3.06-.896.06t-.896-.06v5.258q.299.06.896.06.596 0 .896-.06m-1.792 6.931v5.257q.299-.06.896-.06t.896.06v-5.257q-.3-.06-.896-.06-.598 0-.896.06m1.792 5.855q-.12 0-.418-.03-.299-.03-.478-.03-.18 0-.478.03-.3.03-.418.03v2.271q.118 0 .418.03.298.03.478.03.179 0 .478-.03.298-.03.418-.03zm0 8.125v-5.258q-.3.06-.896.06t-.896-.06v5.258q.299.06.896.06.596 0 .896-.06" style="fill:#133f00" transform="translate(-1146.258 -322.33)scale(4.03315)"/></svg>