<svg xmlns="http://www.w3.org/2000/svg" xml:space="preserve" viewBox="0 0 139.764 200"><path d="M72.292 60.24q0 5.55.964 6.506c1.12 1.605 3.174 3.174 6.146 4.699 2.973 1.528 5.502 2.287 7.59 2.287 2.413 0 4.417-.561 6.027-1.686.157-.964.242-2.489.242-4.578q-.002-2.406-.48-6.869c-.327-2.972-.484-5.259-.484-6.868 1.282 0 2.851 2.371 4.698 7.11s2.928 7.192 3.255 7.349c2.247.645 4.416 1.686 6.506 3.134q3.134 2.168 3.134 4.82-.002 3.86-6.264 6.626-6.269 2.77-12.29 2.77-11.089.001-17.592-5.06-6.987-5.543-6.986-12.048c0-6.748.44-11.926 1.327-15.544.88-3.614 1.327-5.582 1.327-5.905q0-.477-.484-2.408-1.686.001-2.17.843c-.327.565-.645 2.287-.964 5.183-.484 5.142-5.344 10.841-14.58 17.109-9.24 6.268-15.705 9.397-19.4 9.397-.806 0-1.528-.318-2.166-.964.319-.484 2.009-1.448 5.058-2.891 3.05-1.448 6.707-3.735 10.962-6.869 4.255-3.13 7.833-6.945 10.725-11.446q-.484-.963-3.013-2.771-2.529-1.809-2.529-3.255 0-.962 2.408-2.287c1.605-.88 2.654-1.887 3.134-3.013 0-1.12-.202-2.61-.601-4.456-.404-1.848-.601-3.17-.601-3.977q-.002-3.129 1.686-4.34c5.46 0 9.16 1.928 11.087 5.784q.237 0 .964.12a7 7 0 0 0 1.206.122q1.68-3.371 2.17-3.372c.484 0 1.004.085 1.569.242.56.161 1.085.242 1.565.242q2.65 0 7.828-3.134 5.18-3.129 6.869-3.13 3.134 0 3.134 5.784c0 1.287-1.529 3.134-4.578 5.542-.161.326-.722.363-1.686.12q-1.445-.362-1.928-.362-5.545.002-9.64 1.686c-2.1 7.872-3.145 14.459-3.145 19.758"/><path d="M337.503 44.133q-.24 0-.956.299l-.239.478q-.3.478-.538.717-.897-.537-.896-3.465 0-2.27.239-3.286 2.21-.359 4.869-1.076 2.657-.717 3.316-.717 1.254 0 1.254.836l-.418 1.553a12.4 12.4 0 0 0-.418 3.227q0 .956.12 2.031 1.134.06 2.45.358 1.313.3 2.718 1.195 1.404.897 1.404 2.091 0 1.017-.777 1.553-.777.537-1.972.538-.3 0-1.344.389-1.046.388-1.583.388-.777 0-2.838-.807t-2.897-1.344q-.3.12-.627.388-.33.27-.508.269-.299 0-1.912-.478 0 .061-.03.358-.03.3-.06.448-.03.15-.06.358a.57.57 0 0 1-.15.329.4.4 0 0 1-.298.12q-.18 0-.389-.239a2 2 0 0 1-.358-.627q-.15-.388-.298-.747a7 7 0 0 1-.269-.777 5 5 0 0 0-.179-.538h-.717q-1.136 0-2.091-.358-.957-.358-.956-1.016 0-.059.03-.179t.029-.239q.538 0 1.494.12.955.12 1.494.12h.239a19 19 0 0 0-.239-1.344l-.299-1.434q-.12-.567-.12-.866 0-.119.239-.358.717.12 1.045.687t.568 1.583.598 1.673q.836 0 2.27-.478 0-.178.03-.836t.03-.897m7.468-8.185q-1.792 0-5.317 1.045t-4.66 1.045q-3.584 0-4.661-1.314 1.076-.657 1.614-.657.596 0 1.822.299 1.224.299 2.062.298 1.194 0 1.613-.239.418-.238.418-1.076 0-.179-.329-.269-.33-.09-.448-.269 0-.238.09-.358a4 4 0 0 1 .299-.329q.208-.209.329-.448.119-.18.448-.747.328-.567.538-.777a.7.7 0 0 1 .508-.209q.418 0 .418.597 0 .479-.089.986a8 8 0 0 1-.299 1.135 7 7 0 0 0-.269.986q.119.3.418.299.358 0 1.045-1.375t.687-1.971q0-.359-.388-.687-.389-.329-.508-.508.478-1.075 2.091-1.673 1.195.419 1.195 2.21 0 .597-.508 1.434-.508.838-.567 1.554.477-.06 1.314-.239.837-.18 1.673-.269t1.792-.09q1.911 0 2.21.418a2.68 2.68 0 0 1-1.314 1.254q-.777-.055-3.227-.056m-9.559 11.65q.239.597.418.956.836-.18 1.912-.657-.3-.358-.299-.956zm.897-7.887v1.076h.119l.12.06 1.075-.179q0-.477.12-1.195zm1.194 1.972q-.36.062-.776.12-.36 0-.389.06a.6.6 0 0 0-.03.239v.239q0 .12.03.418.03.3.03.418.298 0 1.135-.119zm1.494-2.509q0 .299-.09.658-.09.358-.089.597.596-.12 1.374-.269.776-.149 1.135-.209 0-.299.03-.717t.03-.657q-.538.12-1.254.329a9 9 0 0 1-1.136.268m-.179 2.27v1.314q.836-.06 2.39-.538 0-.896.06-1.375-1.316.421-2.45.599m.12 2.39v1.613a11.6 11.6 0 0 0 2.33-.657q0-1.016-.06-1.553-.3.12-1.045.299-.748.179-1.225.298m.059 2.688q0 .957.299.956.239 0 .508-.089.269-.09.717-.269t.866-.299q-.12-.656-.06-.956-.358.061-2.33.657m5.019-.716q0 .121.089.538.09.42.09.717 0 .3-.179.657-1.135.777-2.211.776-.06-.059-.179-.358a7 7 0 0 0-.179-.418q-.359.12-.806.418-.448.3-.747.418.238.358 1.195.747.956.39 1.493.389.358 0 .687-.149t.717-.448.627-.418q.298-.12 1.165-.18.866-.059 1.314-.328.447-.27.448-.926 0-.477-1.254-.926t-2.27-.509" style="fill:#870000" transform="translate(-1300.504 -33.177)scale(4.03323)"/></svg>