<svg xmlns="http://www.w3.org/2000/svg" xml:space="preserve" viewBox="0 0 139.764 200"><path d="M327.2 179.883q-1.441-1.441-1.441-3.473t1.441-3.473q1.442-1.441 3.473-1.442 1.572 0 2.818.885a4.84 4.84 0 0 1 1.769 2.26 4.84 4.84 0 0 1 1.77-2.26q1.246-.885 2.817-.885 1.573 0 2.818.885a4.85 4.85 0 0 1 1.77 2.26q.522-1.376 1.769-2.26 1.245-.885 2.818-.885 2.03 0 3.473 1.442 1.44 1.442 1.441 3.473 0 2.032-1.441 3.473-1.443 1.441-3.473 1.441-1.573 0-2.818-.884t-1.769-2.261a4.86 4.86 0 0 1-1.77 2.261q-1.245.884-2.818.884t-2.817-.884a4.84 4.84 0 0 1-1.77-2.261 4.85 4.85 0 0 1-1.769 2.261q-1.246.884-2.818.884-2.032 0-3.473-1.441m.688-6.258q-1.147 1.147-1.147 2.785t1.147 2.785 2.785 1.146q1.638 0 2.785-1.146 1.147-1.147 1.147-2.785t-1.147-2.785-2.785-1.147-2.785 1.147m9.174 0q-1.147 1.147-1.147 2.785t1.147 2.785 2.785 1.146q1.638 0 2.785-1.146 1.147-1.147 1.147-2.785t-1.147-2.785-2.785-1.147q-1.64 0-2.785 1.147m9.174 0q-1.147 1.147-1.147 2.785t1.147 2.785 2.785 1.146q1.637 0 2.785-1.146 1.147-1.147 1.147-2.785t-1.147-2.785-2.785-1.147q-1.64 0-2.785 1.147" style="fill:#00082d" transform="translate(-1300.504 -611.503)scale(4.03323)"/><path d="M328.347 178.736q-.951-.95-.951-2.326t.951-2.327q.95-.949 2.326-.95 1.376 0 2.327.95.95.95.95 2.327 0 1.376-.95 2.326t-2.327.95q-1.376.001-2.326-.95m.688-2.391q0-.59.393-.983 0-.524-.393-.917l-.59.065q-.72.854-.72 1.901v.196l.458.458q.524-.065.852-.72m1.245 1.637a1.38 1.38 0 0 1-.983-.721l-.524-.131-.459.197-.131.655q.72 1.049 1.769 1.245l.59-.262v-.525zm-.983-3.734q.197.59.787.655.393-.13.589-.13.197 0 .59.13.59-.064.787-.655l-.263-.59q-.46-.196-1.114-.196-.656 0-1.114.196zm.459 1.245a1.25 1.25 0 0 0-.394.917q0 .524.394.917.393.394.917.394t.917-.394q.394-.393.394-.917t-.394-.917a1.26 1.26 0 0 0-.917-.393q-.525 0-.917.393m.917 1.572q-.655 0-.655-.655t.655-.655.655.655-.655.655m.721 2.163q1.047-.196 1.77-1.245l-.132-.655-.458-.197-.523.131a1.39 1.39 0 0 1-.983.721l-.262.458v.525zm.918-2.883q.326.656.852.72l.458-.458v-.196q0-1.047-.721-1.901l-.589-.065a1.26 1.26 0 0 0-.394.917q.394.392.394.983m5.209 2.391q-.95-.95-.95-2.326t.95-2.327q.95-.949 2.326-.95 1.375 0 2.326.95.95.95.951 2.327 0 1.376-.951 2.326-.95.95-2.326.95-1.377.001-2.326-.95m.687-2.391q0-.59.393-.983 0-.524-.393-.917l-.589.065q-.722.854-.721 1.901v.196l.458.458q.524-.065.852-.72m1.246 1.637a1.38 1.38 0 0 1-.983-.721l-.524-.131-.459.197-.131.655q.72 1.049 1.77 1.245l.589-.262v-.525zm-.983-3.734q.197.59.787.655.393-.13.589-.13.197 0 .59.13.59-.064.787-.655l-.262-.59q-.46-.196-1.114-.196t-1.114.196zm.459 1.245a1.25 1.25 0 0 0-.394.917q0 .524.394.917.393.394.917.394t.917-.394q.394-.393.394-.917t-.394-.917a1.26 1.26 0 0 0-.917-.393q-.525 0-.917.393m.917 1.572q-.655 0-.655-.655t.655-.655q.656 0 .656.655-.002.655-.656.655m.721 2.163q1.047-.196 1.769-1.245l-.13-.655-.459-.197-.524.131a1.39 1.39 0 0 1-.983.721l-.262.458v.525zm.917-2.883q.326.656.852.72l.458-.458v-.196q0-1.047-.721-1.901l-.589-.065a1.26 1.26 0 0 0-.394.917q.394.392.394.983m5.21 2.391q-.95-.95-.95-2.326t.95-2.327q.95-.949 2.326-.95 1.375 0 2.326.95.95.95.95 2.327 0 1.376-.95 2.326t-2.326.95q-1.377.001-2.326-.95m.688-2.391q0-.59.393-.983 0-.524-.393-.917l-.59.065q-.721.854-.721 1.901v.196l.458.458q.524-.065.853-.72m1.245 1.637a1.38 1.38 0 0 1-.983-.721l-.524-.131-.459.197-.131.655q.72 1.049 1.77 1.245l.589-.262v-.525zm-.983-3.734q.197.59.787.655.392-.13.59-.13t.589.13q.59-.064.787-.655l-.263-.59q-.46-.196-1.114-.196-.657 0-1.114.196zm.459 1.245a1.26 1.26 0 0 0-.394.917q0 .524.394.917.392.394.917.394.524 0 .917-.394.394-.393.394-.917t-.394-.917a1.26 1.26 0 0 0-.917-.393q-.525 0-.917.393m.917 1.572q-.656 0-.656-.655t.656-.655q.654 0 .655.655 0 .655-.655.655m.721 2.163q1.047-.196 1.77-1.245l-.131-.655-.459-.197-.523.131a1.39 1.39 0 0 1-.983.721l-.262.458v.525zm.917-2.883q.327.656.852.72l.458-.458v-.196q0-1.047-.721-1.901l-.59-.065a1.26 1.26 0 0 0-.393.917q.394.392.394.983" style="fill:#870000" transform="translate(-1300.504 -611.503)scale(4.03323)"/><path d="M327.2 165.139q-1.441-1.441-1.441-3.473 0-2.03 1.441-3.473 1.442-1.442 3.473-1.442 1.572 0 2.818.885a4.84 4.84 0 0 1 1.769 2.261 4.84 4.84 0 0 1 1.77-2.261q1.246-.885 2.817-.885 1.573 0 2.818.885a4.85 4.85 0 0 1 1.77 2.261q.522-1.376 1.769-2.261 1.245-.885 2.818-.885 2.03 0 3.473 1.442 1.44 1.442 1.441 3.473 0 2.032-1.441 3.473-1.443 1.442-3.473 1.442-1.573 0-2.818-.885t-1.769-2.261a4.86 4.86 0 0 1-1.77 2.261 4.75 4.75 0 0 1-2.818.885q-1.573 0-2.817-.885a4.84 4.84 0 0 1-1.77-2.261 4.85 4.85 0 0 1-1.769 2.261 4.76 4.76 0 0 1-2.818.885q-2.032 0-3.473-1.442m0 29.487q-1.441-1.44-1.441-3.473 0-2.031 1.441-3.473t3.473-1.442q1.572 0 2.818.885a4.84 4.84 0 0 1 1.769 2.261 4.84 4.84 0 0 1 1.77-2.261q1.246-.885 2.817-.885 1.573 0 2.818.885a4.85 4.85 0 0 1 1.77 2.261q.522-1.376 1.769-2.261 1.245-.885 2.818-.885 2.03 0 3.473 1.442 1.44 1.442 1.441 3.473 0 2.032-1.441 3.473-1.443 1.443-3.473 1.442-1.573 0-2.818-.884-1.245-.885-1.769-2.261a4.86 4.86 0 0 1-1.77 2.261 4.75 4.75 0 0 1-2.818.884 4.75 4.75 0 0 1-2.817-.884 4.84 4.84 0 0 1-1.77-2.261 4.85 4.85 0 0 1-1.769 2.261 4.76 4.76 0 0 1-2.818.884q-2.032 0-3.473-1.442m.688-35.745q-1.147 1.147-1.147 2.785 0 1.64 1.147 2.785 1.146 1.147 2.785 1.146 1.638 0 2.785-1.146t1.147-2.785q0-1.638-1.147-2.785t-2.785-1.147-2.785 1.147m0 29.488q-1.147 1.147-1.147 2.785 0 1.64 1.147 2.785 1.146 1.147 2.785 1.147 1.638 0 2.785-1.147 1.147-1.145 1.147-2.785 0-1.638-1.147-2.785t-2.785-1.147-2.785 1.147m.459-24.377q-.951-.95-.951-2.326 0-1.375.951-2.326.95-.95 2.326-.95t2.327.95.95 2.326-.95 2.326q-.95.951-2.327.951-1.376 0-2.326-.951m0 29.488q-.951-.95-.951-2.326 0-1.375.951-2.327.95-.95 2.326-.95t2.327.95q.95.951.95 2.327t-.95 2.326q-.95.951-2.327.951-1.376 0-2.326-.951m.688-31.879q0-.59.393-.983 0-.525-.393-.918l-.59.066q-.72.852-.72 1.9v.197l.458.458q.524-.065.852-.72m0 29.488q0-.591.393-.983 0-.525-.393-.917l-.59.065q-.72.852-.72 1.9v.197l.458.458q.524-.065.852-.72m1.245-27.85a1.39 1.39 0 0 1-.983-.721l-.524-.13-.459.196-.131.655q.72 1.05 1.769 1.245l.59-.262v-.524zm0 29.488a1.39 1.39 0 0 1-.983-.721l-.524-.131-.459.196-.131.656q.72 1.049 1.769 1.245l.59-.262v-.524zm-.983-33.223q.197.59.787.655.393-.13.589-.131.197 0 .59.131.59-.065.787-.655l-.263-.59q-.46-.197-1.114-.197-.656 0-1.114.197zm0 29.488q.197.59.787.655.393-.13.589-.131.197.001.59.131.59-.065.787-.655l-.263-.59q-.46-.197-1.114-.197-.656 0-1.114.197zm.459-28.243a1.25 1.25 0 0 0-.394.917q0 .525.394.917.393.394.917.393.524 0 .917-.393.394-.392.394-.917 0-.524-.394-.917a1.26 1.26 0 0 0-.917-.394q-.525 0-.917.394m0 29.488a1.25 1.25 0 0 0-.394.917q0 .525.394.917.393.394.917.394t.917-.394q.394-.392.394-.917 0-.524-.394-.917a1.25 1.25 0 0 0-.917-.393q-.525 0-.917.393m.917-27.916q-.655 0-.655-.655t.655-.655.655.655-.655.655m0 29.488q-.655 0-.655-.655t.655-.655.655.655-.655.655m.721-27.325q1.047-.196 1.77-1.245l-.132-.655-.458-.196-.523.13a1.39 1.39 0 0 1-.983.721l-.262.458v.524zm0 29.487q1.047-.196 1.77-1.245l-.132-.656-.458-.196-.523.131q-.33.59-.983.721l-.262.458v.524zm.918-32.37q.326.656.852.72l.458-.458v-.197q0-1.047-.721-1.9l-.589-.066a1.26 1.26 0 0 0-.394.918q.394.393.394.983m0 29.488q.326.655.852.72l.458-.458v-.197q0-1.047-.721-1.9l-.589-.065a1.26 1.26 0 0 0-.394.917q.394.392.394.983m4.75-32.208q-1.147 1.147-1.147 2.785 0 1.64 1.147 2.785 1.146 1.147 2.785 1.146 1.638 0 2.785-1.146t1.147-2.785q0-1.638-1.147-2.785t-2.785-1.147q-1.64 0-2.785 1.147m0 29.488q-1.147 1.147-1.147 2.785 0 1.64 1.147 2.785 1.146 1.147 2.785 1.147 1.638 0 2.785-1.147 1.147-1.145 1.147-2.785 0-1.638-1.147-2.785t-2.785-1.147q-1.64 0-2.785 1.147m.459-24.377q-.95-.95-.95-2.326 0-1.375.95-2.326.95-.95 2.326-.95 1.375 0 2.326.95.95.95.951 2.326 0 1.376-.951 2.326-.95.951-2.326.951t-2.326-.951m0 29.488q-.95-.95-.95-2.326 0-1.375.95-2.327.95-.95 2.326-.95 1.375 0 2.326.95.95.951.951 2.327 0 1.376-.951 2.326-.95.951-2.326.951t-2.326-.951m.687-31.879q0-.59.393-.983 0-.525-.393-.918l-.589.066q-.722.853-.721 1.9v.197l.458.458q.524-.064.852-.72m0 29.488q0-.591.393-.983 0-.525-.393-.917l-.589.065q-.722.853-.721 1.9v.197l.458.458q.524-.065.852-.72m1.246-27.85a1.39 1.39 0 0 1-.983-.721l-.524-.13-.459.196-.131.655q.72 1.05 1.77 1.245l.589-.262v-.524zm0 29.488a1.39 1.39 0 0 1-.983-.721l-.524-.131-.459.196-.131.656q.72 1.049 1.77 1.245l.589-.262v-.524zm-.983-33.223q.197.59.787.655.393-.13.589-.131.197 0 .59.131.59-.065.787-.655l-.262-.59q-.46-.197-1.114-.197t-1.114.197zm0 29.488q.197.59.787.655.393-.13.589-.131.197.001.59.131.59-.065.787-.655l-.262-.59q-.46-.197-1.114-.197t-1.114.197zm.459-28.243a1.25 1.25 0 0 0-.394.917q0 .525.394.917.393.394.917.393.524 0 .917-.393.394-.392.394-.917 0-.524-.394-.917a1.26 1.26 0 0 0-.917-.394q-.525 0-.917.394m0 29.488a1.25 1.25 0 0 0-.394.917q0 .525.394.917.393.394.917.394t.917-.394q.394-.392.394-.917 0-.524-.394-.917a1.25 1.25 0 0 0-.917-.393q-.525 0-.917.393m.917-27.916q-.655 0-.655-.655t.655-.655q.656 0 .656.655-.002.655-.656.655m0 29.488q-.655 0-.655-.655t.655-.655q.656 0 .656.655-.002.655-.656.655m.721-27.325q1.047-.196 1.769-1.245l-.13-.655-.459-.196-.524.13a1.39 1.39 0 0 1-.983.721l-.262.458v.524zm0 29.487q1.047-.196 1.769-1.245l-.13-.656-.459-.196-.524.131a1.39 1.39 0 0 1-.983.721l-.262.458v.524zm.917-32.37q.326.656.852.72l.458-.458v-.197q0-1.047-.721-1.9l-.589-.066a1.26 1.26 0 0 0-.394.918q.394.393.394.983m0 29.488q.326.655.852.72l.458-.458v-.197q0-1.047-.721-1.9l-.589-.065a1.26 1.26 0 0 0-.394.917q.394.392.394.983m4.751-32.208q-1.147 1.147-1.147 2.785 0 1.64 1.147 2.785 1.146 1.147 2.785 1.146 1.637 0 2.785-1.146 1.146-1.146 1.147-2.785 0-1.638-1.147-2.785t-2.785-1.147q-1.64 0-2.785 1.147m0 29.488q-1.147 1.147-1.147 2.785 0 1.64 1.147 2.785 1.146 1.147 2.785 1.147 1.637 0 2.785-1.147 1.146-1.145 1.147-2.785 0-1.638-1.147-2.785t-2.785-1.147q-1.64 0-2.785 1.147m.459-24.377q-.95-.95-.95-2.326 0-1.375.95-2.326.95-.95 2.326-.95 1.375 0 2.326.95.95.95.95 2.326t-.95 2.326q-.95.951-2.326.951t-2.326-.951m0 29.488q-.95-.95-.95-2.326 0-1.375.95-2.327.95-.95 2.326-.95 1.375 0 2.326.95.95.951.95 2.327t-.95 2.326q-.95.951-2.326.951t-2.326-.951m.688-31.879q0-.59.393-.983 0-.525-.393-.918l-.59.066q-.721.853-.721 1.9v.197l.458.458q.524-.064.853-.72m0 29.488q0-.591.393-.983 0-.525-.393-.917l-.59.065q-.721.853-.721 1.9v.197l.458.458q.524-.065.853-.72m1.245-27.85a1.39 1.39 0 0 1-.983-.721l-.524-.13-.459.196-.131.655q.72 1.05 1.77 1.245l.589-.262v-.524zm0 29.488a1.39 1.39 0 0 1-.983-.721l-.524-.131-.459.196-.131.656q.72 1.049 1.77 1.245l.589-.262v-.524zm-.983-33.223q.197.59.787.655.392-.13.59-.131.198 0 .589.131.59-.065.787-.655l-.263-.59q-.46-.197-1.114-.197-.657 0-1.114.197zm0 29.488q.197.59.787.655.392-.13.59-.131.198.001.589.131.59-.065.787-.655l-.263-.59q-.46-.197-1.114-.197-.657 0-1.114.197zm.459-28.243a1.26 1.26 0 0 0-.394.917q0 .525.394.917.392.394.917.393.524 0 .917-.393.394-.392.394-.917 0-.524-.394-.917a1.26 1.26 0 0 0-.917-.394q-.525 0-.917.394m0 29.488a1.26 1.26 0 0 0-.394.917q0 .525.394.917.392.394.917.394.524 0 .917-.394.394-.392.394-.917 0-.524-.394-.917a1.25 1.25 0 0 0-.917-.393q-.525 0-.917.393m.917-27.916q-.656 0-.656-.655t.656-.655q.654 0 .655.655 0 .655-.655.655m0 29.488q-.656 0-.656-.655t.656-.655q.654 0 .655.655 0 .655-.655.655m.721-27.325q1.047-.196 1.77-1.245l-.131-.655-.459-.196-.523.13a1.39 1.39 0 0 1-.983.721l-.262.458v.524zm0 29.487q1.047-.196 1.77-1.245l-.131-.656-.459-.196-.523.131q-.33.59-.983.721l-.262.458v.524zm.917-32.37q.327.656.852.72l.458-.458v-.197q0-1.047-.721-1.9l-.59-.066a1.26 1.26 0 0 0-.393.918q.394.393.394.983m0 29.488q.327.655.852.72l.458-.458v-.197q0-1.047-.721-1.9l-.59-.065a1.26 1.26 0 0 0-.393.917q.394.392.394.983" style="fill:#00082d" transform="translate(-1300.504 -611.503)scale(4.03323)"/></svg>