<svg xmlns="http://www.w3.org/2000/svg" xml:space="preserve" viewBox="0 0 139.764 200"><path fill="#870000" d="M66.026 42.17q4.816 1.932 9.397 7.953Q80 56.15 80.001 59.521q0 1.446-.843 2.528a15.3 15.3 0 0 1-1.928 2.05q-1.085.966-2.29 4.335-1.21 3.375-1.687 8.675c2.09-.637 4.82-1.645 8.196-3.013 3.372-1.363 6.183-2.444 8.433-3.254 2.247-.803 3.937-1.206 5.058-1.206 1.282 0 3.053 1.448 5.303 4.335q.724.969 3.13 3.376 2.407 2.409 3.255 3.493.839 1.083 1.807 2.892c.64 1.206.964 2.286.964 3.254q-.001 2.166-1.932 2.166c-3.053 0-5.3.565-6.744 1.686-1.125 1.77-2.613 3.856-4.456 6.268a1109 1109 0 0 1-4.457 5.783c-1.13 1.448-1.69 2.497-1.69 3.134q0 4.339-3.372 4.34-1.208-.001-4.94-.722c-2.493-.484-5.663-.803-9.518-.964 0 1.444-.085 4.86-.242 10.24q-.243 8.077-.242 9.034c0 1.125.157 4.178.484 9.16q.483 7.47.484 10.119c0 4.178-.565 8.352-1.686 12.53-1.13 4.179-2.331 6.91-3.614 8.192-1.928-1.605-2.892-7.792-2.892-18.553 0-1.12.08-3.533.242-7.227q.243-5.542.242-10.123 0-2.65-.242-10.962c-.161-5.542-.242-9.595-.242-12.168q-1.927.002-6.505 1.565c-3.053 1.048-5.546 1.568-7.47 1.568q-1.93 0-1.932-3.613-.001-2.168-9.155-10.12c-6.106-5.299-9.155-9.316-9.155-12.046 0-4.013.637-6.748 1.928-8.196 1.282.807 2.851 2.013 4.698 3.614 1.848 1.61 3.453 2.892 4.82 3.856s2.529 1.447 3.497 1.447 4.255-1.044 9.881-3.133c5.622-2.09 8.752-3.453 9.397-4.098V76.15q0-2.886-.117-4.218c-.084-.88-.205-2.17-.363-3.856q-.242-2.53-.722-3.856a281 281 0 0 0-1.085-2.891q-.604-1.567-1.806-2.412a4.54 4.54 0 0 0-2.65-.843c0-.319-.166-.924-.484-1.807-.319-.883-.48-1.569-.48-2.049q-.013-5.542 9.147-12.047M48.196 90.6c3.529 4.981 6.424 9.8 8.675 14.459a66 66 0 0 0 7.711-1.444V85.543c-1.444.48-3.25 1.246-5.42 2.286-2.17 1.049-4.017 1.848-5.542 2.412-1.528.565-2.69.843-3.493.843q-.971.006-1.931-.484m25.057-7.95q-.962 11.566-.963 20.24c.64 0 1.766.044 3.371.12 1.605.085 3.05.121 4.34.121.48-.641 1.444-1.964 2.892-3.977q2.167-3.01 3.371-4.82a151 151 0 0 0 2.771-4.335c1.04-1.686 1.807-3.214 2.291-4.577.484-1.364.722-2.53.722-3.497q-.001-2.89-3.856-2.888-5.3.001-14.939 3.614"/></svg>