<svg xmlns="http://www.w3.org/2000/svg" xml:space="preserve" viewBox="0 0 139.764 200"><path d="M33.737 82.171q.48-1.204 1.928-1.205.96.002 6.264 2.411c7.868-1.605 15.02-3.371 21.444-5.303-.165-.964-.242-2.727-.242-5.3q-.724.001-3.614.722c-2.89.721-3.533.726-4.82.726q-4.578 0-6.025-3.376.962-.24 5.905-.843c3.29-.399 5.98-1.004 8.07-1.806v-.722c0-5.623-1.444-10.519-4.336-14.701-2.891-4.175-4.335-8.51-4.335-13.015a79.5 79.5 0 0 0 13.733 4.94c4.658 1.206 7.63 2.134 8.913 2.771 1.282.646 1.928 1.932 1.928 3.856q-.001 1.445-1.327 2.17-1.324.722-2.892 1.323c-1.049.403-2.09 1.564-3.13 3.496q-1.571 2.891-2.049 7.954c2.408-.642 4.255-1.57 5.542-2.775 1.283-1.206 2.25-1.807 2.892-1.807 1.444 0 3.013.52 4.698 1.565q2.53 1.572 2.53 2.775c0 .806-.686 1.444-2.05 1.928q-2.049.722-6.505 1.564c-2.977.565-5.42 1.166-7.349 1.807 0 .642-.084 1.61-.242 2.892-.16 1.287-.242 2.166-.242 2.65l20.485-3.614c1.444 0 3.452 1.412 6.025 4.219q3.856 4.216 3.856 7.11c0 1.605-1.77 2.65-5.3 3.13q-1.687 4.58-5.3 9.16-3.614 4.577-3.613 6.747.001 3.854-2.17 3.855-1.447.001-3.613-1.685-3.137.242-4.82.964Q80.48 114.95 90 119.527c6.344 3.053 12.168 5.626 17.471 7.71q7.95 3.134 11.084 7.954-3.617-.482-7.349-2.17c-2.492-1.12-4.215-1.685-5.182-1.685q-.968 0-4.82 2.286-3.858 2.292-6.506 2.291c-2.254 0-4.5-1.161-6.747-3.492-2.255-2.328-5.263-6.425-9.038-12.29-3.78-5.864-6.712-10.159-8.797-12.894-.322.166-.964.242-1.927.242 0 1.771-.085 4.022-.242 6.748-.166 2.73-.242 4.82-.242 6.263q-.002 6.751 1.806 17.472c1.206 7.147 1.807 11.128 1.807 11.93 0 7.393-1.528 11.083-4.577 11.083q-2.655.001-5.062-6.743-2.408-6.747-2.408-12.047c0-1.605-3.94-7.792-11.809-18.557-8.675 7.074-15.503 10.603-20.484 10.603q-4.096-.001-5.784-.722 16.141-8.19 23.614-14.458l-.964-3.134 2.17 1.686q4.337-3.617 7.712-10.361-2.407-.237-4.578-2.892c-.165-.162-.121-.44.121-.843q.361-.6.359-.843c0-.319-1.17-1.843-3.493-4.578a392 392 0 0 1-7.47-9.034c-2.649-3.295-4.286-5.598-4.928-6.88m29.64-.968q-9.883 1.93-18.073 5.546 4.094 4.102 4.82 5.3c1.444-.803 3.735-1.408 6.868-1.807 3.134-.4 5.34-.758 6.627-1.085 0-.803-.04-2.085-.121-3.856a90 90 0 0 1-.121-4.098m.48 26.51c-.323 0-.924-.036-1.807-.12q-1.33-.122-2.049-.122c-1.928 3.372-5.384 8.115-10.361 14.217.803.807 1.964 2.17 3.493 4.098q2.288 2.894 4.097 4.457 1.803 1.57 3.013 1.568 2.167-.004 3.614-24.098m-.242-13.978c-5.461.326-9.075.963-10.841 1.927q1.682 3.862 4.097 6.264c.803.165 2.009.282 3.614.363 1.605.085 2.73.12 3.372.12 0-1.12-.04-2.649-.121-4.577s-.121-3.29-.121-4.097m23.134-13.011q0-1.926-5.783-1.928-5.785.002-12.531 1.686-.244 1.689-.36 4.46c-.084 1.847-.12 3.094-.12 3.735q3.37-.483 5.42-1.928 2.043-1.447 4.699-1.448a3.63 3.63 0 0 1 1.807.484c.56.327 1.206.807 1.927 1.448s1.327 1.125 1.807 1.444c2.085-3.694 3.134-6.344 3.134-7.953m-4.82 11.325q-1.929-.963-2.653-.964c-.807 0-2.57.322-5.3.964-2.734.64-4.662 1.044-5.783 1.202-.166.806-.242 2.17-.242 4.097s.076 3.457.242 4.578q3.612 0 8.913-1.202c.484-.641 1.282-2.049 2.412-4.219q1.686-3.248 2.411-4.456"/></svg>