<svg xmlns="http://www.w3.org/2000/svg" xml:space="preserve" viewBox="0 0 139.764 200"><path d="M635.497 222.786h3.604v3.552h-3.604zm3.605 4.23v3.03h-2.349v-1.828h1.148v.628h-.575v.574h1.201v-1.83h-2.403v2.979h2.978v4.283h-3.604v-3.029h2.404v1.827h-1.148v-.627h.573v-.625h-1.202v1.881h2.403v-3.03h-3.03v-4.232zm0 8.462v3.03h-2.349v-1.881h1.148v.628h-.575v.625h1.201v-1.828h-2.403v3.03h2.978v4.23h-3.604v-3.028h2.404v1.828h-1.148v-.627h.573v-.625h-1.202v1.828h2.403v-3.083h-3.03v-4.126zm0 8.41v3.029h-2.349v-1.828h1.148v.575h-.575v.627h1.201v-1.777h-2.403v3.03h2.978v4.18h-3.604v-2.979h2.404v1.777h-1.148v-.628h.573v-.574h-1.202v1.829h2.403v-3.03h-3.03v-4.231zm0 8.462v2.977h-2.349v-1.775h1.148v.575h-.575v.627h1.201v-1.83h-2.403v3.03h2.978v4.232h-3.604v-3.03h2.404v1.775h-1.148v-.575h.573v-.521h-1.202v1.724h2.403v-2.977h-3.03v-4.231h3.604zm-3.605 8.462h3.604v3.604h-3.604zm.627-37.452v2.403h2.403v-2.403zm0 38.026v2.402h2.403v-2.402zm.629-37.4h1.148v1.255h-1.148zm0 37.974h1.148v1.202h-1.148zm2.976-39.174h3.029v2.456h-1.776v-1.255h.574v.627h.575v-1.253h-1.777v2.403h2.979v-2.977h4.229v3.552h-3.03v-2.351h1.83v1.255h-.574v-.628h-.627v1.149h1.88v-2.403h-3.082v2.978h-4.23zm0 38.026h3.029v2.351h-1.776v-1.202h.574v.679h.575v-1.253h-1.777v2.402h2.979v-2.977h4.229v3.604h-3.03v-2.456h1.83v1.202h-.574v-.523h-.627v1.149h1.88v-2.402h-3.082v3.03h-4.23zm8.461-38.026h3.03v2.456h-1.829v-1.255h.627v.627h.575v-1.253h-1.828v2.403h3.082v-2.977h4.23v3.552h-3.082v-2.351h1.828v1.255h-.575v-.628h-.679v1.149h1.827v-2.403h-2.977v2.978h-4.23v-3.553zm0 38.026h3.03v2.351h-1.829v-1.202h.627v.679h.575v-1.253h-1.828v2.402h3.082v-2.977h4.23v3.604h-3.082v-2.456h1.828v1.202h-.575v-.523h-.679v1.149h1.827v-2.402h-2.977v3.03h-4.23v-3.604zm8.463-38.026h3.603v3.552h-3.603zm3.603 4.23v3.03h-2.454v-1.828h1.254v.628h-.628v.574h1.202v-1.83h-2.351v2.979h2.977v4.283h-3.603v-3.029h2.402v1.827h-1.254v-.627h.626v-.625h-1.148v1.881h2.351v-3.03h-2.977v-4.232zm0 8.462v3.03h-2.454v-1.881h1.254v.628h-.628v.625h1.202v-1.828h-2.351v3.03h2.977v4.23h-3.603v-3.028h2.402v1.828h-1.254v-.627h.626v-.625h-1.148v1.828h2.351v-3.083h-2.977v-4.126zm0 8.41v3.029h-2.454v-1.828h1.254v.575h-.628v.627h1.202v-1.777h-2.351v3.03h2.977v4.18h-3.603v-2.979h2.402v1.777h-1.254v-.628h.626v-.574h-1.148v1.829h2.351v-3.03h-2.977v-4.231zm0 8.462v2.977h-2.454v-1.775h1.254v.575h-.628v.627h1.202v-1.83h-2.351v3.03h2.977v4.232h-3.603v-3.03h2.402v1.775h-1.254v-.575h.626v-.521h-1.148v1.724h2.351v-2.977h-2.977v-4.231zm-3.603 8.462h3.603v3.604h-3.603zm.626-37.452v2.403h2.351v-2.403zm0 38.026v2.402h2.351v-2.402zm.523-37.4h1.254v1.255h-1.254zm0 37.974h1.254v1.202h-1.254z" style="fill:#00082d" transform="translate(-2543.104 -882.478)scale(4.03315)"/></svg>