<svg xmlns="http://www.w3.org/2000/svg" xml:space="preserve" viewBox="0 0 139.764 200"><path d="M232.59 252.585q-.239.598-2.33.598-.3 0-.926-.03t-.986-.03q-.12 0-.448.03t-.508.03q-.358 3.287-.538 3.585-.42.597-2.001 1.523-1.584.926-2.121.926-.299 0-.568-.239-.269-.238-.269-.538 0-.359.866-.956.866-.596 1.852-1.643a4.3 4.3 0 0 0 1.165-2.479q-.24.06-1.254.149-1.016.09-1.494.209a54 54 0 0 0-.807 1.703q-.448.987-.687 1.494-.24.508-.568 1.045-.329.538-.687.777a1.5 1.5 0 0 1-.836.239q-.419 0-.896-.299a3.7 3.7 0 0 1-.777-.627q-.3-.328-.836-.986a15 15 0 0 0-.776-.896q-.3.12-1.315.12-.956 0-1.553-2.091 1.554.657 2.091.657.477 0 3.405-1.314 2.926-1.313 3.227-1.613-.061-.477-1.016-1.135-.599.121-1.554.986-.956.866-1.494.866-.717 0-1.016-.478.417-.24 1.912-1.314 1.493-1.076 2.39-1.434.478-.595.478-1.434a1.34 1.34 0 0 0-.598-.12q-.538 0-1.494.598-1.912 2.27-3.346 3.256t-3.704 1.404q4.84-3.883 7.169-6.931-.18-.358-1.643-1.762-1.465-1.404-1.523-2.241.955.12 2.271 1.105 1.313.986 1.912 1.643 1.673-2.031 2.33-3.884-.657.06-1.852.658-1.196.597-1.852.597-.479 0-.717-.239.059-.059.806-.598.746-.537 1.673-1.195a18 18 0 0 0 1.464-1.135q.359-.359.807-.956t.807-.956q.359-.358.717-.358t.717.269q.358.269.358.627 0 .06-.418 1.195.18.3 1.135 1.374.537-.717 1.314-2.987.775-2.27 1.076-2.569.298.12.776.806.478.687.478 1.166 0 .179-.269.418-.269.24-.388.478-.717 1.853-2.151 3.883 1.015 1.555 1.255 1.792 1.254-1.254 1.613-2.509.536.06 1.016.538.478.479.479.896 0 .418-.299.418a1.3 1.3 0 0 0-.717.24 4.3 4.3 0 0 0-.747.657 5.5 5.5 0 0 1-.627.598q1.792 2.39 3.047 3.644 1.254 1.255 1.733 1.464.477.21 1.254 1.285.776 1.076 1.972 3.525-.599.001-1.523-.478a38 38 0 0 1-2.3-1.314q-1.375-.836-2.39-1.315-.359-.537-.896-2.061-.538-1.523-1.971-3.854-.479.24-1.016.239.596-1.016.597-1.076-1.613-3.105-2.928-4.48-.837 1.673-3.764 6.273.358.358.836.358.238 0 .657-.269.418-.269.657-.269.716 0 .956.479-.121.238-.359.418-.24.18-.538.329t-.478.269q-.359.599-.239 1.254a5.5 5.5 0 0 0 1.971-.777q.777-2.807.777-4.779 0-.477-.06-.896 1.493.956 1.494 2.151 0 .418-.089.657-.09.239-.239.478-.15.24-.478 1.105a36 36 0 0 0-.747 2.24q.298.359.478.359.417 0 1.344-.478.926-.478 1.583-.478.597 0 .836.896-.121.12-.866.298-.748.18-1.105.418-.18 1.075-.239 2.271.596 0 1.314-.06.716-.06.836-.06.239 0 .567-.208t.567-.15q1.259.3 1.796 1.015m-15.952 3.287q.955.957 2.51.956.596 0 1.493-1.254.896-1.255.896-1.733 0-.358-.359-.597-2.987 1.373-4.54 2.628m7.289-5.019q0-.18.09-.418.09-.24.239-.687t.209-.747q-1.555.24-2.569 1.255.119.537.538.806.417.269.478.389.477 1.015.538 1.195.299-.059 2.629-.418a11.4 11.4 0 0 0 .239-2.211q-.777 0-1.254-.179-.84.956-1.137 1.015m4.839 4.481q.359-.358 1.494-.358 1.374 0 2.629.717t1.255 1.613-.926 1.463a3.66 3.66 0 0 1-1.942.568q-.06 0-.149-.03a.5.5 0 0 0-.149-.03q-.298-.417-.717-1.434-.42-1.014-1.495-2.509" style="fill:#133f00" transform="translate(-837.831 -900.643)scale(4.03315)"/></svg>