<svg xmlns="http://www.w3.org/2000/svg" xml:space="preserve" viewBox="0 0 139.764 200"><path d="M22.404 139.76c0-1.282 1.004-3.093 3.013-5.424 2.008-2.323 4.578-6.263 7.711-11.805 3.134-5.545 5.744-12.33 7.833-20.363-5.627-3.695-8.676-7.55-9.16-11.567q4.816 2.172 10.842 2.892a11.7 11.7 0 0 1 1.447-4.578q.721 1.688.964 5.541 6.747 2.171 6.748 5.304-.002 3.373-7.712 3.372c-.963 5.142-1.927 9.756-2.891 13.858a781 781 0 0 1-2.05 8.554c-.403 1.605-.6 2.734-.6 3.372q0 1.93.484 2.65 2.407-.238 8.796-4.215c4.255-2.654 7.59-4.94 9.998-6.869.964-1.6 1.444-5.061 1.444-10.36 0-1.126-.04-3.05-.12-5.784a210 210 0 0 1-.122-6.026q0-6.745-1.206-10.962c-.806-2.811-1.726-4.699-2.77-5.663a20.2 20.2 0 0 1-2.771-3.13c-.807-1.12-1.206-2.411-1.206-3.855q-.001-2.648 1.928-4.578 3.853 1.446 8.07 2.53c2.807.721 4.658 1.286 5.542 1.685.879.403 1.806 1.17 2.77 2.29q1.445 1.689 2.412 5.058c-2.734 1.767-4.42 4.501-5.061 8.192-.646 3.698-1.126 12.047-1.444 25.062 1.6-.964 3.492-2.327 5.662-4.098q3.254-2.648 4.457-3.372c0-3.855.323-8.63.964-14.333q.963-8.555.964-11.688c0-1.283-.085-2.449-.242-3.493q-.244-1.57-.722-2.654a91 91 0 0 1-.843-1.928c-.242-.56-.645-1.085-1.206-1.565a24 24 0 0 1-1.206-1.085c-.242-.242-.722-.56-1.444-.964q-1.09-.597-1.327-.842.962-2.891 2.53-4.941c1.044-1.363 2.447-2.807 4.218-4.336q2.648-2.287 4.097-3.976 2.166 1.689 5.905 6.626 3.734 4.942 3.735 7.832-.001.967-1.327 2.05a89 89 0 0 1-2.771 2.17c-.964.725-1.892 2.33-2.77 4.819q-1.327 3.736-1.328 9.518v13.975q1.685-1.206 4.578-2.888a137 137 0 0 0 4.215-2.529c.879-.56 1.685-1.448 2.411-2.65q1.084-1.806 1.085-4.218 0-.479-.12-.964a3.8 3.8 0 0 1-.122-.964q1.446-1.445 5.058-1.444 3.373 0 6.99 2.287 3.615 2.292 3.613 5.42 0 1.445-3.013 2.17-3.017.727-10.119 3.013c-4.739 1.529-9.437 3.735-14.096 6.627v1.927c0 9.962.88 16.306 2.65 19.037q2.652 4.1 12.047 4.098 4.816.001 9.76-1.085 4.938-1.084 6.627-1.085c2.085 0 3.134.806 3.134 2.408 0 6.747-9.08 10.119-27.228 10.119-4.179 0-7.59-.88-10.24-2.65q-3.976-2.652-3.977-7.227c0-1.122.036-2.53.12-4.215q.122-2.53.122-3.977 0-2.647-.36-6.868-.362-4.216-.362-6.147c-3.053 2.255-6.425 4.981-10.12 8.196 0 .645.081 1.443.243 2.411.157.964.242 1.767.242 2.408 0 2.09-.686 3.896-2.05 5.42-1.366 1.53-2.528 2.372-3.496 2.53q-.721.001-1.686-.843-.966-.844-.964-1.807-.002-1.205-1.686-3.372c-3.053 2.09-6.469 4.904-10.24 8.433-3.779 3.533-7.07 6.187-9.88 7.954q-4.219 2.65-9.035 2.65c-2.888-.013-4.336-1.698-4.336-5.07"/></svg>