<svg xmlns="http://www.w3.org/2000/svg" xml:space="preserve" viewBox="0 0 139.764 200"><path d="M65.059 131.086a73 73 0 0 1-3.13.963 76 76 0 0 0-2.77.843q-1.09.363-1.808.363-1.688.001-2.891-2.411 1.203-.72 4.577-1.686a89 89 0 0 0 6.026-1.928q-.243-1.205-.484-3.372-.243-2.167-.48-3.372c-1.448.323-2.735.722-3.856 1.206q-1.687.726-2.529 1.202c-.564.327-1.004.484-1.326.484q-1.931.001-3.614-2.17c1.121-.964 4.013-2.246 8.675-3.855q-.489-4.823-5.061-9.882c-2.251.646-4.9 1.807-7.95 3.497q-4.58 2.53-4.582 3.977c0 2.412 1.686 6.985 5.062 13.737 3.372 6.743 5.062 11.406 5.062 13.975 0 1.125-.484 2.133-1.444 3.012q-1.446 1.326-2.892 1.327-1.446.002-2.892-1.327c-.964-.879-1.968-2.25-3.012-4.097a114 114 0 0 1-2.771-5.183c-.807-1.601-1.807-3.735-3.013-6.384a786 786 0 0 1-2.77-6.143q-4.821-9.155-7.712-18.072l1.444-.722q1.682 0 3.613.843c1.283.564 2.771 1.363 4.457 2.407q2.53 1.567 4.219 2.287 11.566-4.337 13.01-5.057-3.857-3.855-8.316-6.026-4.457-2.172-6.743-2.892-2.292-.724-2.291-1.686c0-.64.202-1.165.601-1.564.4-.4.758-.52 1.085-.363q17.587 7.47 19.516 10.845a31 31 0 0 1 4.098-1.686c1.121-5.784 1.928-11.33 2.408-16.629q-5.784 1.447-11.567 1.448-1.446-.001-2.65-1.448c.48-.484 2.565-1.242 6.263-2.29q5.543-1.562 9.156-3.735 1.205-12.528 1.206-16.387c0-4.977-.884-7.473-2.65-7.473h-.718q3.37-7.229 9.16-12.527 2.401.967 6.868 7.59c2.968 4.42 4.456 8.07 4.456 10.966q0 .24-.12.964c-.085.484-.122.807-.122.964q-.725.242-1.928.242-3.139.001-5.783-2.17c-.327 1.125-.843 3.372-1.569 6.744q-1.082 5.064-1.807 7.473 1.924-.963 5.542-4.219c2.412-2.17 4.013-3.254 4.82-3.254.963 0 2.048 1.048 3.254 3.133q1.808 3.14 2.049 5.062-6.268 3.374-18.073 6.747c-1.443 3.699-2.891 7.873-4.335 12.531 2.73-.484 6.985-2.891 12.773-7.227 5.783-4.34 9.716-7.066 11.805-8.195 3.21 2.891 4.82 4.904 4.82 6.025q-.001 1.448-.602 2.291c-.403.565-1.008 1.206-1.806 1.928-.807.722-1.444 1.407-1.928 2.049 2.892 0 4.94.117 6.142.363 1.206.242 2.529.964 3.977 2.165q2.165 1.809 4.82 6.147 1.203 1.929 3.012 4.215c1.202 1.528 2.05 2.77 2.53 3.734q.72 1.448.721 3.372 0 4.101-9.16 20.242a170 170 0 0 0-4.577 8.192q-2.408 4.58-3.614 6.868a47 47 0 0 1-2.77 4.578q-1.574 2.292-2.892 3.134-1.325.845-3.013.843-2.167.001-4.098-.843-1.93-.84-3.855-2.412c-1.287-1.04-3.614-2.73-6.986-5.058s-7.15-4.78-11.325-7.352c1.601 0 3.134.242 4.578.726q.478-2.896.48-10.607m13.015-29.64q-11.568 1.448-18.557 4.578c2.247 3.533 3.856 6.989 4.82 10.36q4.815-.96 8.191-2.65c2.412-4.492 4.255-8.59 5.546-12.288M65.543 97.11c-.327.646-.722 2.17-1.206 4.578 7.711-2.085 13.091-4.178 16.145-6.264q.484-1.444.484-2.17c0-.963-.646-1.443-1.928-1.443q-.726 0-2.65.964c-1.287.64-2.973 1.407-5.058 2.286q-3.138 1.331-5.787 2.05m20 19.275q-7.47.002-13.253 1.686-.243.727-.722 6.989 3.37-.719 5.905-1.686c1.686-.637 2.892-1.085 3.614-1.327q1.081-.361 1.564-.359 3.134.001 3.134 3.856c0 1.125-.484 1.686-1.444 1.686q-6.026.001-12.773 1.686c-.326 7.07-.883 11.89-1.686 14.455 5.623 2.411 8.752 3.613 9.398 3.613.484 0 1.242-.56 2.29-1.686 1.041-1.125 2.412-3.053 4.098-5.787q2.528-4.091 4.94-9.397c.642-1.444 1.485-3.175 2.53-5.183q1.565-3.012 2.048-4.215c.323-.802.722-1.807 1.206-3.012s.803-2.207.964-3.013a13.5 13.5 0 0 0 .242-2.65c0-1.448-2.815-5.219-8.433-11.325q-2.407-.484-4.578 0c-.48.641-1.206 1.65-2.17 3.013a74 74 0 0 0-2.77 4.218 36.5 36.5 0 0 0-2.287 4.336q5.057-.963 6.985-.964 1.446.001 2.65 1.085 1.205 1.083 1.206 2.529c-.008.972-.891 1.452-2.658 1.452"/></svg>