<svg xmlns="http://www.w3.org/2000/svg" xml:space="preserve" viewBox="0 0 139.764 200"><path d="M52.29 143.859q-9.16 0-9.16-4.82.001-1.205 3.614-3.372a1470 1470 0 0 0-8.074-21.327q-3.974-10.242-5.663-14.459c-1.125-2.807-1.77-4.699-1.928-5.663.158-.157.363-.358.601-.6.242-.242.4-.4.484-.48q.12-.12.601.117c4.82 3.214 7.869 6.025 9.16 8.433 5.46-1.767 9.796-3.53 13.01-5.3q-1.446-13.011-1.447-13.495c0-2.565.484-3.855 1.448-3.855q1.923 0 2.891 5.057c.642 3.372.964 6.348.964 8.914q7.95-8.19 11.325-13.011.724-3.13.964-3.856l3.614-1.206q4.094-3.127 5.062-5.784-1.21-1.444-8.192-1.443c-5.303 0-11.047.484-17.23 1.443-6.186.964-11.365 1.932-15.543 2.892q-6.268 1.445-6.748 1.444-5.063 0-5.3-2.892 4.816-.96 22.409-4.94a4225 4225 0 0 1 29.757-6.627c8.11-1.766 12.97-2.654 14.58-2.654q1.923 0 3.133.605 1.204.605 3.013 1.928c1.206.888 2.206 1.565 3.013 2.05 6.905 3.855 10.36 7.392 10.36 10.602 0 2.093-1.124 3.134-3.37 3.134-2.409 0-6.349-.363-11.81-1.085q-8.191-1.084-11.563-1.085-.966 0-3.856.484c-1.286.807-2.012 1.686-2.17 2.65 2.892 1.61 4.34 3.214 4.34 4.82q-.001 1.69-1.085 2.29c-.722.404-1.847.722-3.371.964-1.529.242-2.69.525-3.493.843q-1.209 2.409-1.686 6.022c2.57-.48 4.735-1.202 6.506-2.17q2.648-1.445 4.82-1.444 3.848-.002 12.288 6.626c5.622 4.42 8.433 8.07 8.433 10.967q-.002 1.928-1.685 3.855-1.69 1.929-4.457 4.215-2.77 2.294-7.47 9.397-4.701 7.115-9.276 17.472-1.688 4.339-8.913 4.34c-1.287 0-3.134-.158-5.541-.484-2.412-.323-4.34-.48-5.784-.48q-2.408 0-6.026.48c-2.42.326-4.267.488-5.55.488m-8.917-38.8q7.229 16.633 10.36 29.882h4.098q-.242-2.407-1.206-8.917c-.645-4.336-.963-8.107-.963-11.325q0-.72-.121-3.013a427 427 0 0 0-.363-5.783c-.162-2.328-.242-4.22-.242-5.663q-4.333 1.21-11.563 4.82m16.144-6.505q.237 2.172.964 14.58c.484 8.276.883 15.624 1.206 22.05q.48 0 1.928.12c.964.085 1.601.121 1.928.121q.478-7.467 1.085-14.939.6-7.465 1.206-14.458.6-6.99.843-9.878c-.807.162-2.287.525-4.457 1.085-2.174.56-3.739 1-4.703 1.32M69.64 86.991c-.963-.323-2.254-.08-3.855.722-.964 1.605-1.605 3.456-1.928 5.542q1.445-.238 3.134-.722a79 79 0 0 0 2.407-.722c0-.323.037-.968.121-1.932q.121-1.445.121-2.17zm4.336 7.95q-3.859 31.084-4.578 40.964 2.167.249 3.856-.242 3.372-4.574 9.881-17.471 6.505-12.888 6.506-15.544-.001-3.127-3.493-5.784-3.497-2.65-5.904-2.65c-1.775.004-3.86.242-6.268.726"/></svg>